<svg width="120" height="105" viewBox="0 0 120 105" fill="none" xmlns="http://www.w3.org/2000/svg">
<ellipse cx="60" cy="52.5" rx="60" ry="52.5" fill="#BDBDBD"/>
<ellipse cx="60" cy="45.1316" rx="60" ry="45.1316" fill="#E0E0E0"/>
<path d="M55.1263 14.0306C55.1263 11.0294 52.6888 8.57175 49.6987 8.83056C43.5378 9.36383 37.5545 10.8016 32.0902 13.0776C25.0322 16.0174 19.0686 20.2603 14.7529 25.4125C10.4372 30.5648 7.90917 36.4595 7.40344 42.5497C7.04149 46.9084 7.72375 51.266 9.39807 55.4156C10.5841 58.355 13.9904 59.4901 16.976 58.4257C21.0199 56.984 22.5728 52.1079 21.8962 47.8683C21.6517 46.3358 21.5914 44.7841 21.7203 43.2322C22.0743 38.969 23.8439 34.8427 26.8649 31.2361C29.8859 27.6295 34.0604 24.6595 39.001 22.6017C42.3449 21.2089 45.9663 20.2645 49.7058 19.7996C52.6841 19.4293 55.1263 17.0319 55.1263 14.0306Z" fill="#EEEEEE"/>
<path fill-rule="evenodd" clip-rule="evenodd" d="M70.1248 36.5594V39.3705C73.2825 40.3562 75.5832 43.2147 75.5832 46.6288V55.6798C75.5832 59.9065 72.079 63.3334 67.7589 63.3334H52.2426C47.9207 63.3334 44.4165 59.9065 44.4165 55.6798V46.6288C44.4165 43.2147 46.7191 40.3562 49.8749 39.3705V36.5594C49.8935 31.0939 54.4204 26.6667 59.9719 26.6667C65.5979 26.6667 70.1248 31.0939 70.1248 36.5594ZM60.0092 29.855C63.7909 29.855 66.8647 32.8611 66.8647 36.5594V38.9752H53.135V36.523C53.1536 32.8428 56.2274 29.855 60.0092 29.855ZM61.6299 53.1675C61.6299 54.0602 60.9034 54.7707 59.9905 54.7707C59.0963 54.7707 58.3698 54.0602 58.3698 53.1675V49.1229C58.3698 48.2485 59.0963 47.5379 59.9905 47.5379C60.9034 47.5379 61.6299 48.2485 61.6299 49.1229V53.1675Z" fill="#9E9E9E"/>
</svg>
