<svg width="120" height="105" viewBox="0 0 120 105" fill="none" xmlns="http://www.w3.org/2000/svg">
<ellipse cx="60" cy="52.5" rx="60" ry="52.5" fill="#FF981F"/>
<ellipse cx="60" cy="45.1316" rx="60" ry="45.1316" fill="#FFC107"/>
<path d="M55.1263 14.0306C55.1263 11.0294 52.6888 8.57175 49.6987 8.83056C43.5378 9.36383 37.5545 10.8016 32.0902 13.0776C25.0322 16.0174 19.0686 20.2603 14.7529 25.4125C10.4372 30.5648 7.90917 36.4595 7.40344 42.5497C7.04149 46.9084 7.72375 51.266 9.39807 55.4156C10.5841 58.355 13.9904 59.4901 16.976 58.4257C21.0199 56.984 22.5728 52.1079 21.8962 47.8683C21.6517 46.3358 21.5914 44.7841 21.7203 43.2322C22.0743 38.969 23.8439 34.8427 26.8649 31.2361C29.8859 27.6295 34.0604 24.6595 39.001 22.6017C42.3449 21.2089 45.9663 20.2645 49.7058 19.7996C52.6841 19.4293 55.1263 17.0319 55.1263 14.0306Z" fill="#FFDA6A"/>
<path fill-rule="evenodd" clip-rule="evenodd" d="M52.062 26.6665H67.957C74.172 26.6665 78.3337 31.0298 78.3337 37.5198V52.5C78.3337 58.9698 74.172 63.3332 67.957 63.3332H52.062C45.847 63.3332 41.667 58.9698 41.667 52.5V37.5198C41.667 31.0298 45.847 26.6665 52.062 26.6665ZM58.9553 50.4815L67.6637 41.7732C68.287 41.1498 68.287 40.1415 67.6637 39.4998C67.0403 38.8765 66.0137 38.8765 65.3903 39.4998L57.8187 47.0715L54.6103 43.8632C53.987 43.2398 52.9603 43.2398 52.337 43.8632C51.7137 44.4865 51.7137 45.4948 52.337 46.1365L56.7003 50.4815C57.012 50.7932 57.4153 50.9398 57.8187 50.9398C58.2403 50.9398 58.6437 50.7932 58.9553 50.4815Z" fill="white"/>
</svg>
