<svg width="242" height="116" viewBox="0 0 242 116" fill="none" xmlns="http://www.w3.org/2000/svg">
<mask id="path-1-inside-1_2031_26577" fill="white">
<path fill-rule="evenodd" clip-rule="evenodd" d="M21.8041 4.68629C17.1178 9.37258 17.1178 16.9151 17.1178 32V45.2798C15.262 45.7836 12.85 47.1645 9.14577 49.2852C3.77848 52.3581 1.09483 53.8946 0.34935 55.9825C-0.11645 57.2872 -0.11645 58.7128 0.34935 60.0175C1.09483 62.1054 3.77848 63.6419 9.14577 66.7148L9.14584 66.7148C12.85 68.8355 15.262 70.2164 17.1178 70.7202V84C17.1178 99.0849 17.1178 106.627 21.8041 111.314C26.4904 116 34.0328 116 49.1178 116H209.999C225.084 116 232.627 116 237.313 111.314C241.999 106.627 241.999 99.0849 241.999 84V32C241.999 16.9151 241.999 9.37258 237.313 4.68629C232.627 0 225.084 0 209.999 0H49.1178C34.0328 0 26.4904 0 21.8041 4.68629Z"/>
</mask>
<path fill-rule="evenodd" clip-rule="evenodd" d="M21.8041 4.68629C17.1178 9.37258 17.1178 16.9151 17.1178 32V45.2798C15.262 45.7836 12.85 47.1645 9.14577 49.2852C3.77848 52.3581 1.09483 53.8946 0.34935 55.9825C-0.11645 57.2872 -0.11645 58.7128 0.34935 60.0175C1.09483 62.1054 3.77848 63.6419 9.14577 66.7148L9.14584 66.7148C12.85 68.8355 15.262 70.2164 17.1178 70.7202V84C17.1178 99.0849 17.1178 106.627 21.8041 111.314C26.4904 116 34.0328 116 49.1178 116H209.999C225.084 116 232.627 116 237.313 111.314C241.999 106.627 241.999 99.0849 241.999 84V32C241.999 16.9151 241.999 9.37258 237.313 4.68629C232.627 0 225.084 0 209.999 0H49.1178C34.0328 0 26.4904 0 21.8041 4.68629Z" fill="#FAFAFA"/>
<path d="M21.8041 4.68629L20.3899 3.27208V3.27208L21.8041 4.68629ZM17.1178 45.2798L17.6418 47.2099L19.1178 46.8092V45.2798H17.1178ZM9.14577 49.2852L8.15207 47.5496H8.15207L9.14577 49.2852ZM0.34935 55.9825L-1.5342 55.31L0.34935 55.9825ZM0.34935 60.0175L-1.5342 60.69H-1.5342L0.34935 60.0175ZM9.14577 66.7148L10.2239 65.0302L10.1823 65.0036L10.1395 64.9791L9.14577 66.7148ZM9.14584 66.7148L8.06774 68.3994L8.10931 68.426L8.15214 68.4505L9.14584 66.7148ZM17.1178 70.7202H19.1178V69.1908L17.6418 68.7901L17.1178 70.7202ZM21.8041 111.314L23.2183 109.899L21.8041 111.314ZM237.313 111.314L235.899 109.899L235.899 109.899L237.313 111.314ZM237.313 4.68629L235.899 6.1005L235.899 6.10051L237.313 4.68629ZM19.1178 32C19.1178 24.401 19.122 18.9029 19.6857 14.7101C20.2417 10.5749 21.3087 8.01011 23.2183 6.1005L20.3899 3.27208C17.6132 6.04876 16.337 9.59836 15.7214 14.1772C15.1135 18.6984 15.1178 24.5141 15.1178 32H19.1178ZM19.1178 45.2798V32H15.1178V45.2798H19.1178ZM10.1395 51.0209C13.9637 48.8315 16.0982 47.629 17.6418 47.2099L16.5938 43.3496C14.4258 43.9382 11.7363 45.4975 8.15207 47.5496L10.1395 51.0209ZM2.2329 56.655C2.39612 56.1979 2.84029 55.5893 4.18001 54.6284C5.51183 53.6732 7.4172 52.5795 10.1395 51.0209L8.15207 47.5496C5.50705 49.0639 3.38695 50.2748 1.84875 51.378C0.318448 52.4756 -0.951945 53.6792 -1.5342 55.31L2.2329 56.655ZM2.2329 59.345C1.92237 58.4752 1.92237 57.5248 2.2329 56.655L-1.5342 55.31C-2.15527 57.0496 -2.15527 58.9504 -1.5342 60.69L2.2329 59.345ZM10.1395 64.9791C7.4172 63.4205 5.51183 62.3268 4.18001 61.3716C2.84029 60.4107 2.39612 59.8021 2.2329 59.345L-1.5342 60.69C-0.951944 62.3208 0.318448 63.5244 1.84875 64.622C3.38695 65.7252 5.50705 66.9361 8.15207 68.4504L10.1395 64.9791ZM10.224 65.0303L10.2239 65.0302L8.06767 68.3993L8.06774 68.3994L10.224 65.0303ZM17.6418 68.7901C16.0982 68.371 13.9637 67.1685 10.1395 64.9791L8.15214 68.4505C11.7364 70.5025 14.4258 72.0618 16.5938 72.6504L17.6418 68.7901ZM19.1178 84V70.7202H15.1178V84H19.1178ZM23.2183 109.899C21.3087 107.99 20.2417 105.425 19.6857 101.29C19.122 97.0971 19.1178 91.599 19.1178 84H15.1178C15.1178 91.4859 15.1135 97.3016 15.7214 101.823C16.337 106.402 17.6132 109.951 20.3899 112.728L23.2183 109.899ZM49.1178 114C41.5188 114 36.0207 113.996 31.8279 113.432C27.6927 112.876 25.1279 111.809 23.2183 109.899L20.3899 112.728C23.1666 115.505 26.7161 116.781 31.2949 117.396C35.8162 118.004 41.6318 118 49.1178 118V114ZM209.999 114H49.1178V118H209.999V114ZM235.899 109.899C233.989 111.809 231.425 112.876 227.289 113.432C223.096 113.996 217.598 114 209.999 114V118C217.485 118 223.301 118.004 227.822 117.396C232.401 116.781 235.951 115.505 238.727 112.728L235.899 109.899ZM239.999 84C239.999 91.599 239.995 97.0971 239.431 101.29C238.876 105.425 237.809 107.99 235.899 109.899L238.727 112.728C241.504 109.951 242.78 106.402 243.396 101.823C244.004 97.3016 243.999 91.4859 243.999 84H239.999ZM239.999 32V84H243.999V32H239.999ZM235.899 6.10051C237.809 8.01011 238.876 10.5749 239.431 14.7101C239.995 18.9029 239.999 24.401 239.999 32H243.999C243.999 24.5141 244.004 18.6984 243.396 14.1772C242.78 9.59836 241.504 6.04876 238.727 3.27208L235.899 6.10051ZM209.999 2C217.598 2 223.097 2.00425 227.289 2.56795C231.425 3.12392 233.989 4.1909 235.899 6.1005L238.727 3.27208C235.951 0.495395 232.401 -0.780775 227.822 -1.39638C223.301 -2.00425 217.485 -2 209.999 -2V2ZM49.1178 2H209.999V-2H49.1178V2ZM23.2183 6.10051C25.1279 4.1909 27.6927 3.12392 31.8279 2.56795C36.0207 2.00425 41.5188 2 49.1178 2V-2C41.6319 -2 35.8162 -2.00425 31.2949 -1.39638C26.7161 -0.780775 23.1666 0.495394 20.3899 3.27208L23.2183 6.10051Z" fill="#EEEEEE" mask="url(#path-1-inside-1_2031_26577)"/>
</svg>
