<svg width="125" height="59" viewBox="0 0 125 59" fill="none" xmlns="http://www.w3.org/2000/svg">
<mask id="path-1-inside-1_2034_30959" fill="white">
<path fill-rule="evenodd" clip-rule="evenodd" d="M1.21793 9.87706C0 12.8174 0 16.5449 0 24C0 31.4551 0 35.1826 1.21793 38.1229C2.84183 42.0434 5.95662 45.1582 9.87706 46.7821C12.8174 48 16.5449 48 24 48H52.2717C53.6495 48 54.8814 48.8866 55.349 50.1827C56.5778 53.5879 57.1922 55.2905 57.8094 56.0643C60.2114 59.0758 64.7886 59.0758 67.1906 56.0643C67.8078 55.2905 68.4222 53.5879 69.6509 50.1828L69.651 50.1827L69.651 50.1825C70.1187 48.8866 71.3504 48 72.7282 48H101C108.455 48 112.183 48 115.123 46.7821C119.043 45.1582 122.158 42.0434 123.782 38.1229C125 35.1826 125 31.4551 125 24C125 16.5449 125 12.8174 123.782 9.87706C122.158 5.95662 119.043 2.84183 115.123 1.21793C112.183 0 108.455 0 101 0H24C16.5449 0 12.8174 0 9.87706 1.21793C5.95662 2.84183 2.84183 5.95662 1.21793 9.87706Z"/>
</mask>
<path fill-rule="evenodd" clip-rule="evenodd" d="M1.21793 9.87706C0 12.8174 0 16.5449 0 24C0 31.4551 0 35.1826 1.21793 38.1229C2.84183 42.0434 5.95662 45.1582 9.87706 46.7821C12.8174 48 16.5449 48 24 48H52.2717C53.6495 48 54.8814 48.8866 55.349 50.1827C56.5778 53.5879 57.1922 55.2905 57.8094 56.0643C60.2114 59.0758 64.7886 59.0758 67.1906 56.0643C67.8078 55.2905 68.4222 53.5879 69.6509 50.1828L69.651 50.1827L69.651 50.1825C70.1187 48.8866 71.3504 48 72.7282 48H101C108.455 48 112.183 48 115.123 46.7821C119.043 45.1582 122.158 42.0434 123.782 38.1229C125 35.1826 125 31.4551 125 24C125 16.5449 125 12.8174 123.782 9.87706C122.158 5.95662 119.043 2.84183 115.123 1.21793C112.183 0 108.455 0 101 0H24C16.5449 0 12.8174 0 9.87706 1.21793C5.95662 2.84183 2.84183 5.95662 1.21793 9.87706Z" fill="#F9F8FF"/>
<path d="M1.21793 9.87706L-2.47759 8.34633H-2.47759L1.21793 9.87706ZM1.21793 38.1229L-2.47759 39.6537H-2.47759L1.21793 38.1229ZM9.87706 46.7821L8.34633 50.4776H8.34633L9.87706 46.7821ZM57.8094 56.0643L60.9365 53.57L57.8094 56.0643ZM67.1906 56.0643L64.0636 53.57L64.0635 53.57L67.1906 56.0643ZM69.6509 50.1828L65.9056 48.7784L65.8968 48.8017L65.8884 48.8252L69.6509 50.1828ZM69.651 50.1827L73.3963 51.5872L73.4033 51.5684L73.4101 51.5496L69.651 50.1827ZM115.123 46.7821L116.654 50.4776H116.654L115.123 46.7821ZM123.782 38.1229L127.478 39.6537L123.782 38.1229ZM123.782 9.87706L127.478 8.34633L123.782 9.87706ZM115.123 1.21793L116.654 -2.47759V-2.47759L115.123 1.21793ZM9.87706 1.21793L8.34633 -2.47759V-2.47759L9.87706 1.21793ZM55.349 50.1827L51.5865 51.5404L51.5865 51.5404L55.349 50.1827ZM4 24C4 20.2177 4.00217 17.5814 4.14296 15.5178C4.28131 13.4901 4.54002 12.3093 4.91345 11.4078L-2.47759 8.34633C-3.32209 10.3851 -3.67234 12.5383 -3.83848 14.9732C-4.00217 17.3723 -4 20.3272 -4 24H4ZM4.91345 36.5922C4.54002 35.6907 4.28131 34.5099 4.14296 32.4822C4.00217 30.4186 4 27.7823 4 24H-4C-4 27.6728 -4.00217 30.6277 -3.83848 33.0268C-3.67234 35.4617 -3.32209 37.6149 -2.47759 39.6537L4.91345 36.5922ZM11.4078 43.0866C8.46746 41.8686 6.13137 39.5325 4.91345 36.5922L-2.47759 39.6537C-0.447711 44.5542 3.44577 48.4477 8.34633 50.4776L11.4078 43.0866ZM24 44C20.2177 44 17.5814 43.9978 15.5178 43.857C13.4901 43.7187 12.3093 43.46 11.4078 43.0866L8.34633 50.4776C10.3851 51.3221 12.5383 51.6723 14.9732 51.8385C17.3723 52.0022 20.3272 52 24 52V44ZM52.2717 44H24V52H52.2717V44ZM60.9365 53.57C61.0251 53.6812 60.8981 53.5512 60.5155 52.6074C60.1674 51.7489 59.7376 50.5598 59.1116 48.825L51.5865 51.5404C52.1892 53.2107 52.681 54.5756 53.1016 55.6131C53.4877 56.5654 53.9764 57.6736 54.6823 58.5586L60.9365 53.57ZM64.0635 53.57C63.2629 54.5739 61.7371 54.5738 60.9365 53.57L54.6823 58.5586C58.6857 63.5777 66.3143 63.5777 70.3177 58.5586L64.0635 53.57ZM65.8884 48.8252C65.2624 50.5599 64.8325 51.749 64.4845 52.6075C64.1019 53.5512 63.9749 53.6812 64.0636 53.57L70.3177 58.5586C71.0235 57.6737 71.5123 56.5654 71.8984 55.6132C72.319 54.5756 72.8107 53.2109 73.4134 51.5405L65.8884 48.8252ZM65.9056 48.7782L65.9056 48.7784L73.3962 51.5873L73.3963 51.5872L65.9056 48.7782ZM65.8918 48.8156L65.8918 48.8157L73.4101 51.5496L73.4102 51.5495L65.8918 48.8156ZM101 44H72.7282V52H101V44ZM113.592 43.0866C112.691 43.46 111.51 43.7187 109.482 43.857C107.419 43.9978 104.782 44 101 44V52C104.673 52 107.628 52.0022 110.027 51.8385C112.462 51.6723 114.615 51.3221 116.654 50.4776L113.592 43.0866ZM120.087 36.5922C118.869 39.5325 116.533 41.8686 113.592 43.0866L116.654 50.4776C121.554 48.4477 125.448 44.5542 127.478 39.6537L120.087 36.5922ZM121 24C121 27.7823 120.998 30.4186 120.857 32.4822C120.719 34.5099 120.46 35.6907 120.087 36.5922L127.478 39.6537C128.322 37.6149 128.672 35.4617 128.838 33.0268C129.002 30.6277 129 27.6728 129 24H121ZM120.087 11.4078C120.46 12.3093 120.719 13.4901 120.857 15.5178C120.998 17.5814 121 20.2177 121 24H129C129 20.3272 129.002 17.3723 128.838 14.9732C128.672 12.5383 128.322 10.3851 127.478 8.34633L120.087 11.4078ZM113.592 4.91345C116.533 6.13137 118.869 8.46746 120.087 11.4078L127.478 8.34633C125.448 3.44577 121.554 -0.447713 116.654 -2.47759L113.592 4.91345ZM101 4C104.782 4 107.419 4.00217 109.482 4.14296C111.51 4.28131 112.691 4.54002 113.592 4.91345L116.654 -2.47759C114.615 -3.32209 112.462 -3.67234 110.027 -3.83848C107.628 -4.00217 104.673 -4 101 -4V4ZM24 4H101V-4H24V4ZM11.4078 4.91345C12.3093 4.54002 13.4901 4.28131 15.5178 4.14296C17.5814 4.00217 20.2177 4 24 4V-4C20.3272 -4 17.3723 -4.00217 14.9732 -3.83848C12.5383 -3.67234 10.3851 -3.32209 8.34633 -2.47759L11.4078 4.91345ZM4.91345 11.4078C6.13137 8.46746 8.46746 6.13137 11.4078 4.91345L8.34633 -2.47759C3.44577 -0.447711 -0.447711 3.44577 -2.47759 8.34633L4.91345 11.4078ZM73.4135 51.5402C73.3239 51.7888 73.0793 52 72.7282 52V44C69.6216 44 66.9135 45.9844 65.8885 48.8248L73.4135 51.5402ZM52.2717 52C51.9207 52 51.6762 51.7888 51.5865 51.5404L59.1116 48.825C58.0866 45.9844 55.3784 44 52.2717 44V52Z" fill="url(#paint0_linear_2034_30959)" mask="url(#path-1-inside-1_2034_30959)"/>
<defs>
<linearGradient id="paint0_linear_2034_30959" x1="125" y1="58.3229" x2="8.67627" y2="-13.9622" gradientUnits="userSpaceOnUse">
<stop stop-color="#6949FF"/>
<stop offset="1" stop-color="#876DFF"/>
</linearGradient>
</defs>
</svg>
