<svg width="200" height="64" viewBox="0 0 200 64" fill="none" xmlns="http://www.w3.org/2000/svg">
<mask id="path-1-inside-1_2031_26656" fill="white">
<path fill-rule="evenodd" clip-rule="evenodd" d="M1.21793 9.87706C0 12.8174 0 16.5449 0 24C0 31.4551 0 35.1826 1.21793 38.1229C2.84183 42.0434 5.95662 45.1582 9.87706 46.7821C12.8174 48 16.5449 48 24 48H87.6299C88.2875 49.7133 89.55 51.9 91.3398 55C94.3771 60.2608 95.8958 62.8912 97.9479 63.6382C99.2734 64.1206 100.727 64.1206 102.052 63.6382C104.104 62.8912 105.623 60.2608 108.66 55C110.45 51.9 111.713 49.7133 112.37 48H176C183.455 48 187.183 48 190.123 46.7821C194.043 45.1582 197.158 42.0434 198.782 38.1229C200 35.1826 200 31.4551 200 24C200 16.5449 200 12.8174 198.782 9.87706C197.158 5.95662 194.043 2.84183 190.123 1.21793C187.183 0 183.455 0 176 0H24C16.5449 0 12.8174 0 9.87706 1.21793C5.95662 2.84183 2.84183 5.95662 1.21793 9.87706Z"/>
</mask>
<path fill-rule="evenodd" clip-rule="evenodd" d="M1.21793 9.87706C0 12.8174 0 16.5449 0 24C0 31.4551 0 35.1826 1.21793 38.1229C2.84183 42.0434 5.95662 45.1582 9.87706 46.7821C12.8174 48 16.5449 48 24 48H87.6299C88.2875 49.7133 89.55 51.9 91.3398 55C94.3771 60.2608 95.8958 62.8912 97.9479 63.6382C99.2734 64.1206 100.727 64.1206 102.052 63.6382C104.104 62.8912 105.623 60.2608 108.66 55C110.45 51.9 111.713 49.7133 112.37 48H176C183.455 48 187.183 48 190.123 46.7821C194.043 45.1582 197.158 42.0434 198.782 38.1229C200 35.1826 200 31.4551 200 24C200 16.5449 200 12.8174 198.782 9.87706C197.158 5.95662 194.043 2.84183 190.123 1.21793C187.183 0 183.455 0 176 0H24C16.5449 0 12.8174 0 9.87706 1.21793C5.95662 2.84183 2.84183 5.95662 1.21793 9.87706Z" fill="#FAFAFA"/>
<path d="M1.21793 9.87706L-0.629833 9.1117L-0.629833 9.1117L1.21793 9.87706ZM1.21793 38.1229L-0.629833 38.8883H-0.629833L1.21793 38.1229ZM9.87706 46.7821L9.11169 48.6298H9.11169L9.87706 46.7821ZM87.6299 48L89.4972 47.2834L89.0046 46H87.6299V48ZM91.3398 55L93.0718 54L93.0718 54L91.3398 55ZM97.9479 63.6382L98.6319 61.7588L97.9479 63.6382ZM102.052 63.6382L101.368 61.7588L102.052 63.6382ZM108.66 55L106.928 54L106.928 54L108.66 55ZM112.37 48V46H110.995L110.503 47.2834L112.37 48ZM190.123 46.7821L189.358 44.9343V44.9343L190.123 46.7821ZM198.782 38.1229L200.63 38.8883L198.782 38.1229ZM198.782 9.87706L200.63 9.1117V9.1117L198.782 9.87706ZM190.123 1.21793L189.358 3.06568L189.358 3.06569L190.123 1.21793ZM9.87706 1.21793L9.11169 -0.629832L9.11169 -0.629831L9.87706 1.21793ZM2 24C2 20.2451 2.00108 17.5291 2.1476 15.3817C2.29289 13.2522 2.57449 11.8283 3.06569 10.6424L-0.629833 9.1117C-1.35656 10.8662 -1.68393 12.7762 -1.84312 15.1094C-2.00108 17.4245 -2 20.2998 -2 24H2ZM3.06569 37.3576C2.57449 36.1717 2.29289 34.7478 2.1476 32.6183C2.00108 30.4709 2 27.7549 2 24H-2C-2 27.7002 -2.00108 30.5755 -1.84312 32.8906C-1.68393 35.2238 -1.35656 37.1338 -0.629833 38.8883L3.06569 37.3576ZM10.6424 44.9343C7.21204 43.5134 4.4866 40.788 3.06569 37.3576L-0.629833 38.8883C1.19706 43.2988 4.7012 46.8029 9.11169 48.6298L10.6424 44.9343ZM24 46C20.2451 46 17.5291 45.9989 15.3816 45.8524C13.2522 45.7071 11.8283 45.4255 10.6424 44.9343L9.11169 48.6298C10.8662 49.3566 12.7762 49.6839 15.1094 49.8431C17.4245 50.0011 20.2998 50 24 50V46ZM87.6299 46H24V50H87.6299V46ZM93.0718 54C91.244 50.8341 90.0841 48.8127 89.4972 47.2834L85.7627 48.7166C86.4909 50.6139 87.8559 52.9659 89.6077 56L93.0718 54ZM98.6319 61.7588C98.182 61.595 97.5829 61.1557 96.6354 59.8419C95.6931 58.5353 94.6125 56.6685 93.0718 54L89.6077 56C91.1044 58.5923 92.3017 60.6712 93.3911 62.1817C94.4753 63.6851 95.6616 64.9344 97.2638 65.5175L98.6319 61.7588ZM101.368 61.7588C100.484 62.0804 99.5156 62.0804 98.6319 61.7588L97.2638 65.5175C99.0312 66.1608 100.969 66.1608 102.736 65.5175L101.368 61.7588ZM106.928 54C105.388 56.6685 104.307 58.5353 103.365 59.8419C102.417 61.1557 101.818 61.595 101.368 61.7588L102.736 65.5175C104.338 64.9344 105.525 63.6851 106.609 62.1817C107.698 60.6711 108.896 58.5923 110.392 56L106.928 54ZM110.503 47.2834C109.916 48.8127 108.756 50.8341 106.928 54L110.392 56C112.144 52.9659 113.509 50.6139 114.237 48.7166L110.503 47.2834ZM176 46H112.37V50H176V46ZM189.358 44.9343C188.172 45.4255 186.748 45.7071 184.618 45.8524C182.471 45.9989 179.755 46 176 46V50C179.7 50 182.575 50.0011 184.891 49.8431C187.224 49.6839 189.134 49.3566 190.888 48.6298L189.358 44.9343ZM196.934 37.3576C195.513 40.788 192.788 43.5134 189.358 44.9343L190.888 48.6298C195.299 46.8029 198.803 43.2988 200.63 38.8883L196.934 37.3576ZM198 24C198 27.7549 197.999 30.4709 197.852 32.6183C197.707 34.7478 197.426 36.1717 196.934 37.3576L200.63 38.8883C201.357 37.1338 201.684 35.2238 201.843 32.8906C202.001 30.5755 202 27.7002 202 24H198ZM196.934 10.6424C197.426 11.8283 197.707 13.2522 197.852 15.3817C197.999 17.5291 198 20.2451 198 24H202C202 20.2998 202.001 17.4245 201.843 15.1094C201.684 12.7762 201.357 10.8662 200.63 9.1117L196.934 10.6424ZM189.358 3.06569C192.788 4.4866 195.513 7.21204 196.934 10.6424L200.63 9.1117C198.803 4.70119 195.299 1.19706 190.888 -0.629833L189.358 3.06569ZM176 2C179.755 2 182.471 2.00108 184.618 2.1476C186.748 2.2929 188.172 2.57449 189.358 3.06568L190.888 -0.629829C189.134 -1.35656 187.224 -1.68393 184.891 -1.84312C182.575 -2.00108 179.7 -2 176 -2V2ZM24 2H176V-2H24V2ZM10.6424 3.06569C11.8283 2.57449 13.2522 2.2929 15.3817 2.1476C17.5291 2.00108 20.2451 2 24 2V-2C20.2998 -2 17.4245 -2.00108 15.1094 -1.84312C12.7762 -1.68393 10.8662 -1.35656 9.11169 -0.629832L10.6424 3.06569ZM3.06569 10.6424C4.4866 7.21204 7.21204 4.4866 10.6424 3.06569L9.11169 -0.629831C4.7012 1.19706 1.19706 4.70119 -0.629833 9.1117L3.06569 10.6424Z" fill="#EEEEEE" mask="url(#path-1-inside-1_2031_26656)"/>
</svg>
