<svg width="430" height="932" viewBox="0 0 430 932" fill="none" xmlns="http://www.w3.org/2000/svg">
<g clip-path="url(#clip0_2032_28449)">
<rect width="430" height="932" fill="white"/>
<path d="M284.793 483.131C284.621 483.131 284.456 483.131 284.291 483.117C276.183 482.629 271.609 471.252 270.713 449.309C270.649 447.725 271.875 446.391 273.459 446.327C275.022 446.262 276.377 447.488 276.441 449.072C277.287 469.661 281.381 477.195 284.635 477.396H284.793C289.001 477.396 295.833 467.603 297.675 456.255C297.933 454.692 299.403 453.639 300.965 453.89C302.528 454.14 303.589 455.617 303.338 457.18C301.267 469.883 293.381 483.131 284.793 483.131Z" fill="#133441"/>
<path d="M301.732 460.965C300.951 460.965 300.134 460.886 299.281 460.714C293.46 459.553 291.983 455.911 292.492 453.144C292.786 451.509 293.789 450.033 295.137 448.957C296.033 446.627 297.582 444.864 299.61 443.975C301.947 442.95 304.557 443.28 306.413 444.85C309.761 447.674 310.973 452.836 309.159 456.592C307.797 459.416 305.109 460.965 301.732 460.965Z" fill="#133441"/>
<path d="M141.718 392.088C140.851 392.088 139.998 391.701 139.432 390.962C111.853 354.71 122.75 318.429 123.23 316.902C123.703 315.39 125.309 314.551 126.822 315.024C128.334 315.497 129.173 317.103 128.7 318.616C128.599 318.96 118.277 353.678 143.998 387.486C144.959 388.747 144.708 390.547 143.453 391.507C142.93 391.901 142.321 392.088 141.718 392.088Z" fill="#133441"/>
<path d="M129.467 323.841C127.732 323.841 125.696 323.096 123.503 321.139C120.076 318.078 119.094 314.199 120.865 310.766C122.786 307.059 127.632 304.93 131.905 305.905C134.27 306.45 136.105 308.335 136.693 310.823C137.202 312.973 136.722 315.275 135.396 317.389C135.346 319.117 134.765 320.802 133.639 322.02C132.679 323.067 131.231 323.841 129.467 323.841Z" fill="#133441"/>
<path d="M212.61 507.848C211.162 507.848 209.922 506.766 209.764 505.296C209.198 500.192 212.288 497.69 212.639 497.418C213.213 496.98 213.922 496.787 214.639 496.844C227.951 498.077 230.353 495.16 230.769 494.242C232.296 490.887 226.396 483.016 221.923 478.757C220.776 477.661 220.733 475.847 221.822 474.7C222.919 473.553 224.726 473.51 225.88 474.6C228.224 476.829 239.737 488.371 235.995 496.608C233.758 501.533 227.106 503.525 215.693 502.687C215.507 503.131 215.363 503.783 215.464 504.672C215.636 506.242 214.503 507.662 212.926 507.834C212.818 507.848 212.711 507.848 212.61 507.848Z" fill="#133441"/>
<path d="M165.476 503.741C164.529 503.741 163.605 503.268 163.06 502.415C162.207 501.074 162.601 499.303 163.934 498.45C164.802 497.905 165.225 497.303 165.426 496.852C160.128 489.375 158.264 482.285 159.884 475.775C162.314 466.004 171.72 461.467 172.121 461.28C173.555 460.599 175.261 461.216 175.935 462.65C176.609 464.076 176.007 465.782 174.573 466.463C174.458 466.521 167.182 470.112 165.44 477.202C164.2 482.256 165.999 488.07 170.788 494.472C171.139 494.945 171.34 495.518 171.354 496.113C171.368 496.558 171.347 500.529 167.017 503.289C166.537 503.597 166.006 503.741 165.476 503.741Z" fill="#133441"/>
<path d="M291.115 422.698C280.047 464.004 237.594 488.514 196.287 477.445C154.981 466.377 130.464 423.924 141.533 382.617C159.031 317.303 256.963 251 256.963 251C256.963 251 308.614 357.384 291.115 422.698Z" fill="#6949FF"/>
<path d="M218.567 470.177C211.972 470.177 205.083 469.18 198.193 467.08C168.988 458.183 150.858 432.792 157.69 410.375C162.909 393.249 181.204 382.811 202.566 382.811C209.162 382.811 216.051 383.808 222.94 385.908C252.145 394.805 270.275 420.196 263.443 442.613C258.225 459.739 239.93 470.177 218.567 470.177Z" fill="#673AB3"/>
<path d="M244.267 274.778C244.36 274.126 243.657 273.51 243.048 273.51C239.349 273.495 235.8 277.531 233.105 279.775C229.506 282.772 226.029 285.876 222.646 289.109C219.269 292.335 215.922 295.596 212.717 298.994C209.993 301.876 205.025 305.604 204.323 309.618C203.986 311.54 205.412 313.798 207.649 313.131C211.735 311.92 214.624 307.145 217.477 304.106C220.682 300.701 223.872 297.281 227.148 293.948C230.424 290.607 233.707 287.274 236.998 283.954C239.557 281.374 243.729 278.549 244.267 274.778Z" fill="white"/>
<path d="M200.1 316.744C198.351 315.647 196.416 316.35 195.24 317.855C194.58 318.701 193.914 319.554 193.247 320.4C192.243 321.418 191.34 322.551 190.58 323.813C189.627 325.397 190.071 327.548 191.663 328.544C193.397 329.634 195.211 328.902 196.394 327.462C198 325.512 199.606 323.562 201.211 321.605C202.423 320.135 201.57 317.669 200.1 316.744Z" fill="white"/>
<path d="M152.257 388.64C148.601 399.536 154.48 411.336 165.39 414.999C176.301 418.655 188.101 412.798 191.757 401.902C195.413 391.005 189.535 379.206 178.631 375.542C167.72 371.879 155.913 377.743 152.257 388.64Z" fill="white"/>
<path d="M177.769 406.124C176.049 407.02 174.042 406.597 173.296 405.163C172.543 403.737 173.332 401.852 175.06 400.948C176.78 400.052 178.78 400.482 179.533 401.909C180.279 403.335 179.49 405.221 177.769 406.124ZM170.88 393.263C167.905 394.819 164.443 394.073 163.145 391.607C161.855 389.141 163.217 385.88 166.192 384.324C169.174 382.768 172.637 383.507 173.927 385.973C175.224 388.446 173.862 391.708 170.88 393.263ZM185.598 399.83C188.114 392.331 184.071 384.202 176.558 381.679C169.038 379.155 160.909 383.191 158.385 390.697C155.869 398.203 159.919 406.332 167.439 408.855C174.952 411.372 183.081 407.336 185.598 399.83Z" fill="#133441"/>
<path d="M235.908 420.806C232.252 431.702 238.13 443.502 249.041 447.165C259.945 450.828 271.751 444.964 275.408 434.068C279.064 423.179 273.185 411.379 262.274 407.716C251.371 404.052 239.564 409.916 235.908 420.806Z" fill="white"/>
<path d="M262.504 438.154C260.784 439.058 258.784 438.627 258.031 437.201C257.286 435.767 258.074 433.882 259.795 432.978C261.515 432.082 263.522 432.512 264.268 433.939C265.021 435.366 264.232 437.258 262.504 438.154ZM255.02 424.72C251.873 425.889 248.525 424.72 247.55 422.104C246.575 419.494 248.339 416.426 251.493 415.257C254.64 414.089 257.981 415.257 258.956 417.874C259.931 420.483 258.167 423.552 255.02 424.72ZM269.25 432.003C271.766 424.498 267.716 416.368 260.203 413.852C252.69 411.329 244.554 415.365 242.038 422.87C239.521 430.369 243.572 438.498 251.085 441.022C258.605 443.545 266.734 439.509 269.25 432.003Z" fill="#133441"/>
<path d="M254.604 388.854C253.722 392.432 259.859 395.27 266.92 396.862C273.243 398.281 279.279 400.238 281.265 395.758C285.358 386.546 257.278 378.087 254.604 388.854Z" fill="#133441"/>
<path d="M174.229 354.596C172.702 359.248 178.487 361.843 184.136 365.026C190.437 368.582 196.904 370.582 198.638 367.334C203.872 357.556 177.362 345.018 174.229 354.596Z" fill="#133441"/>
<path d="M267.128 460.026C266.167 462.52 261.608 463.087 256.948 461.295C252.281 459.495 249.278 456.018 250.231 453.524C251.192 451.036 255.751 450.463 260.418 452.262C265.085 454.054 268.088 457.531 267.128 460.026Z" fill="#A592FF"/>
<path d="M156.895 417.63C155.935 420.125 151.376 420.691 146.709 418.899C142.049 417.107 139.045 413.63 139.999 411.135C140.959 408.641 145.519 408.074 150.186 409.866C154.852 411.659 157.856 415.135 156.895 417.63Z" fill="#A592FF"/>
<path d="M222.747 428.218C224.725 434.104 217.93 441.05 205.779 436.376C193.635 431.702 194.108 421.566 198.66 418.956C201.277 417.458 204.947 420.118 211.119 422.491C217.292 424.871 221.765 425.294 222.747 428.218Z" fill="#AB1700"/>
<path d="M220.71 428.362C220.316 429.38 215.534 428.483 210.022 426.369C204.509 424.247 200.358 421.702 200.752 420.684C201.14 419.666 205.512 421.637 211.025 423.759C216.538 425.874 221.104 427.344 220.71 428.362Z" fill="white"/>
<path d="M198.84 429.831C200.274 431.731 202.689 433.58 206.374 435C210.496 436.584 213.851 436.799 216.317 436.204C211.894 426.705 203.829 427.903 198.84 429.831Z" fill="#FD6C6C"/>
<mask id="path-22-inside-1_2032_28449" fill="white">
<path fill-rule="evenodd" clip-rule="evenodd" d="M116.218 168.877C115 171.817 115 175.545 115 183C115 190.455 115 194.183 116.218 197.123C117.842 201.043 120.957 204.158 124.877 205.782C127.817 207 131.545 207 139 207H202.63C203.287 208.713 204.55 210.9 206.34 214C209.377 219.261 210.896 221.891 212.948 222.638C214.273 223.121 215.727 223.121 217.052 222.638C219.104 221.891 220.623 219.261 223.66 214C225.45 210.9 226.713 208.713 227.37 207H291C298.455 207 302.183 207 305.123 205.782C309.043 204.158 312.158 201.043 313.782 197.123C315 194.183 315 190.455 315 183C315 175.545 315 171.817 313.782 168.877C312.158 164.957 309.043 161.842 305.123 160.218C302.183 159 298.455 159 291 159H139C131.545 159 127.817 159 124.877 160.218C120.957 161.842 117.842 164.957 116.218 168.877Z"/>
</mask>
<path fill-rule="evenodd" clip-rule="evenodd" d="M116.218 168.877C115 171.817 115 175.545 115 183C115 190.455 115 194.183 116.218 197.123C117.842 201.043 120.957 204.158 124.877 205.782C127.817 207 131.545 207 139 207H202.63C203.287 208.713 204.55 210.9 206.34 214C209.377 219.261 210.896 221.891 212.948 222.638C214.273 223.121 215.727 223.121 217.052 222.638C219.104 221.891 220.623 219.261 223.66 214C225.45 210.9 226.713 208.713 227.37 207H291C298.455 207 302.183 207 305.123 205.782C309.043 204.158 312.158 201.043 313.782 197.123C315 194.183 315 190.455 315 183C315 175.545 315 171.817 313.782 168.877C312.158 164.957 309.043 161.842 305.123 160.218C302.183 159 298.455 159 291 159H139C131.545 159 127.817 159 124.877 160.218C120.957 161.842 117.842 164.957 116.218 168.877Z" fill="#FAFAFA"/>
<path d="M116.218 168.877L114.37 168.112L114.37 168.112L116.218 168.877ZM116.218 197.123L114.37 197.888L114.37 197.888L116.218 197.123ZM124.877 205.782L124.112 207.63H124.112L124.877 205.782ZM202.63 207L204.497 206.283L204.005 205H202.63V207ZM206.34 214L208.072 213L206.34 214ZM212.948 222.638L213.632 220.759L213.632 220.759L212.948 222.638ZM217.052 222.638L216.368 220.759L216.368 220.759L217.052 222.638ZM223.66 214L221.928 213L223.66 214ZM227.37 207V205H225.995L225.503 206.283L227.37 207ZM305.123 205.782L305.888 207.63L305.123 205.782ZM313.782 197.123L315.63 197.888L313.782 197.123ZM313.782 168.877L315.63 168.112V168.112L313.782 168.877ZM305.123 160.218L305.888 158.37V158.37L305.123 160.218ZM124.877 160.218L124.112 158.37L124.112 158.37L124.877 160.218ZM117 183C117 179.245 117.001 176.529 117.148 174.382C117.293 172.252 117.574 170.828 118.066 169.642L114.37 168.112C113.643 169.866 113.316 171.776 113.157 174.109C112.999 176.425 113 179.3 113 183H117ZM118.066 196.358C117.574 195.172 117.293 193.748 117.148 191.618C117.001 189.471 117 186.755 117 183H113C113 186.7 112.999 189.575 113.157 191.891C113.316 194.224 113.643 196.134 114.37 197.888L118.066 196.358ZM125.642 203.934C122.212 202.513 119.487 199.788 118.066 196.358L114.37 197.888C116.197 202.299 119.701 205.803 124.112 207.63L125.642 203.934ZM139 205C135.245 205 132.529 204.999 130.382 204.852C128.252 204.707 126.828 204.426 125.642 203.934L124.112 207.63C125.866 208.357 127.776 208.684 130.109 208.843C132.425 209.001 135.3 209 139 209V205ZM202.63 205H139V209H202.63V205ZM208.072 213C206.244 209.834 205.084 207.813 204.497 206.283L200.763 207.717C201.491 209.614 202.856 211.966 204.608 215L208.072 213ZM213.632 220.759C213.182 220.595 212.583 220.156 211.635 218.842C210.693 217.535 209.612 215.669 208.072 213L204.608 215C206.104 217.592 207.302 219.671 208.391 221.182C209.475 222.685 210.662 223.934 212.264 224.518L213.632 220.759ZM216.368 220.759C215.484 221.08 214.516 221.08 213.632 220.759L212.264 224.518C214.031 225.161 215.969 225.161 217.736 224.518L216.368 220.759ZM221.928 213C220.388 215.669 219.307 217.535 218.365 218.842C217.417 220.156 216.818 220.595 216.368 220.759L217.736 224.518C219.338 223.934 220.525 222.685 221.609 221.182C222.698 219.671 223.896 217.592 225.392 215L221.928 213ZM225.503 206.283C224.916 207.813 223.756 209.834 221.928 213L225.392 215C227.144 211.966 228.509 209.614 229.237 207.717L225.503 206.283ZM291 205H227.37V209H291V205ZM304.358 203.934C303.172 204.426 301.748 204.707 299.618 204.852C297.471 204.999 294.755 205 291 205V209C294.7 209 297.575 209.001 299.891 208.843C302.224 208.684 304.134 208.357 305.888 207.63L304.358 203.934ZM311.934 196.358C310.513 199.788 307.788 202.513 304.358 203.934L305.888 207.63C310.299 205.803 313.803 202.299 315.63 197.888L311.934 196.358ZM313 183C313 186.755 312.999 189.471 312.852 191.618C312.707 193.748 312.426 195.172 311.934 196.358L315.63 197.888C316.357 196.134 316.684 194.224 316.843 191.891C317.001 189.575 317 186.7 317 183H313ZM311.934 169.642C312.426 170.828 312.707 172.252 312.852 174.382C312.999 176.529 313 179.245 313 183H317C317 179.3 317.001 176.425 316.843 174.109C316.684 171.776 316.357 169.866 315.63 168.112L311.934 169.642ZM304.358 162.066C307.788 163.487 310.513 166.212 311.934 169.642L315.63 168.112C313.803 163.701 310.299 160.197 305.888 158.37L304.358 162.066ZM291 161C294.755 161 297.471 161.001 299.618 161.148C301.748 161.293 303.172 161.574 304.358 162.066L305.888 158.37C304.134 157.643 302.224 157.316 299.891 157.157C297.575 156.999 294.7 157 291 157V161ZM139 161H291V157H139V161ZM125.642 162.066C126.828 161.574 128.252 161.293 130.382 161.148C132.529 161.001 135.245 161 139 161V157C135.3 157 132.425 156.999 130.109 157.157C127.776 157.316 125.866 157.643 124.112 158.37L125.642 162.066ZM118.066 169.642C119.487 166.212 122.212 163.487 125.642 162.066L124.112 158.37C119.701 160.197 116.197 163.701 114.37 168.112L118.066 169.642Z" fill="#EEEEEE" mask="url(#path-22-inside-1_2032_28449)"/>
<path d="M180.867 190.16C180.014 190.16 179.587 189.72 179.587 188.84V177.06C179.587 176.18 180.014 175.74 180.867 175.74C181.72 175.74 182.147 176.18 182.147 177.06V181.78H189.407V177.06C189.407 176.18 189.834 175.74 190.687 175.74C191.54 175.74 191.967 176.18 191.967 177.06V188.84C191.967 189.72 191.54 190.16 190.687 190.16C189.834 190.16 189.407 189.72 189.407 188.84V183.92H182.147V188.84C182.147 189.72 181.72 190.16 180.867 190.16ZM198.356 190.2C195.956 190.2 194.756 188.853 194.756 186.16V181.32C194.756 180.48 195.169 180.06 195.996 180.06C196.836 180.06 197.256 180.48 197.256 181.32V186.2C197.256 186.893 197.396 187.407 197.676 187.74C197.956 188.073 198.402 188.24 199.016 188.24C199.682 188.24 200.229 188.013 200.656 187.56C201.082 187.093 201.296 186.48 201.296 185.72V181.32C201.296 180.48 201.709 180.06 202.536 180.06C203.376 180.06 203.796 180.48 203.796 181.32V188.88C203.796 189.733 203.389 190.16 202.576 190.16C201.762 190.16 201.356 189.733 201.356 188.88V188.54C200.702 189.647 199.702 190.2 198.356 190.2ZM207.678 190.16C206.824 190.16 206.398 189.733 206.398 188.88V181.32C206.398 180.48 206.804 180.06 207.618 180.06C208.431 180.06 208.838 180.48 208.838 181.32V181.94C209.318 180.793 210.344 180.153 211.918 180.02C212.491 179.953 212.811 180.28 212.878 181C212.944 181.707 212.598 182.1 211.838 182.18L211.398 182.22C209.758 182.38 208.938 183.22 208.938 184.74V188.88C208.938 189.733 208.518 190.16 207.678 190.16ZM215.51 190.16C214.656 190.16 214.23 189.733 214.23 188.88V181.32C214.23 180.48 214.636 180.06 215.45 180.06C216.263 180.06 216.67 180.48 216.67 181.32V181.94C217.15 180.793 218.176 180.153 219.75 180.02C220.323 179.953 220.643 180.28 220.71 181C220.776 181.707 220.43 182.1 219.67 182.18L219.23 182.22C217.59 182.38 216.77 183.22 216.77 184.74V188.88C216.77 189.733 216.35 190.16 215.51 190.16ZM225.184 190.2C224.477 190.2 223.844 190.067 223.284 189.8C222.737 189.52 222.304 189.147 221.984 188.68C221.677 188.213 221.524 187.687 221.524 187.1C221.524 186.38 221.711 185.813 222.084 185.4C222.457 184.973 223.064 184.667 223.904 184.48C224.744 184.293 225.871 184.2 227.284 184.2H227.984V183.78C227.984 183.113 227.837 182.633 227.544 182.34C227.251 182.047 226.757 181.9 226.064 181.9C225.677 181.9 225.257 181.947 224.804 182.04C224.364 182.133 223.897 182.293 223.404 182.52C223.084 182.667 222.817 182.687 222.604 182.58C222.391 182.46 222.244 182.28 222.164 182.04C222.097 181.787 222.111 181.533 222.204 181.28C222.311 181.027 222.517 180.84 222.824 180.72C223.437 180.467 224.024 180.287 224.584 180.18C225.157 180.073 225.677 180.02 226.144 180.02C227.571 180.02 228.631 180.353 229.324 181.02C230.017 181.673 230.364 182.693 230.364 184.08V188.88C230.364 189.733 229.977 190.16 229.204 190.16C228.417 190.16 228.024 189.733 228.024 188.88V188.44C227.797 188.987 227.437 189.42 226.944 189.74C226.451 190.047 225.864 190.2 225.184 190.2ZM225.704 188.48C226.357 188.48 226.897 188.253 227.324 187.8C227.764 187.347 227.984 186.773 227.984 186.08V185.64H227.304C226.051 185.64 225.177 185.74 224.684 185.94C224.204 186.127 223.964 186.473 223.964 186.98C223.964 187.42 224.117 187.78 224.424 188.06C224.731 188.34 225.157 188.48 225.704 188.48ZM235.284 193.76C234.831 193.76 234.517 193.593 234.344 193.26C234.171 192.927 234.177 192.547 234.364 192.12L235.504 189.6L232.084 181.72C231.897 181.28 231.897 180.893 232.084 180.56C232.271 180.227 232.637 180.06 233.184 180.06C233.491 180.06 233.737 180.133 233.924 180.28C234.111 180.413 234.277 180.673 234.424 181.06L236.824 187.06L239.284 181.04C239.431 180.667 239.604 180.413 239.804 180.28C240.004 180.133 240.271 180.06 240.604 180.06C241.031 180.06 241.331 180.227 241.504 180.56C241.677 180.893 241.671 181.273 241.484 181.7L236.624 192.8C236.451 193.173 236.264 193.427 236.064 193.56C235.864 193.693 235.604 193.76 235.284 193.76ZM244.531 185.94C244.011 185.94 243.731 185.633 243.691 185.02L243.091 177.38C243.051 176.887 243.158 176.493 243.411 176.2C243.665 175.893 244.038 175.74 244.531 175.74C245.011 175.74 245.371 175.893 245.611 176.2C245.865 176.493 245.971 176.887 245.931 177.38L245.331 185.02C245.291 185.633 245.025 185.94 244.531 185.94ZM244.531 190.1C244.078 190.1 243.711 189.96 243.431 189.68C243.165 189.4 243.031 189.04 243.031 188.6C243.031 188.173 243.165 187.827 243.431 187.56C243.711 187.28 244.078 187.14 244.531 187.14C244.998 187.14 245.358 187.28 245.611 187.56C245.878 187.827 246.011 188.173 246.011 188.6C246.011 189.04 245.878 189.4 245.611 189.68C245.358 189.96 244.998 190.1 244.531 190.1ZM249.492 185.94C248.972 185.94 248.692 185.633 248.652 185.02L248.052 177.38C248.012 176.887 248.119 176.493 248.372 176.2C248.626 175.893 248.999 175.74 249.492 175.74C249.972 175.74 250.332 175.893 250.572 176.2C250.826 176.493 250.932 176.887 250.892 177.38L250.292 185.02C250.252 185.633 249.986 185.94 249.492 185.94ZM249.492 190.1C249.039 190.1 248.672 189.96 248.392 189.68C248.126 189.4 247.992 189.04 247.992 188.6C247.992 188.173 248.126 187.827 248.392 187.56C248.672 187.28 249.039 187.14 249.492 187.14C249.959 187.14 250.319 187.28 250.572 187.56C250.839 187.827 250.972 188.173 250.972 188.6C250.972 189.04 250.839 189.4 250.572 189.68C250.319 189.96 249.959 190.1 249.492 190.1Z" fill="#212121"/>
<path d="M95.3656 602.384C93.7336 602.384 92.6136 601.52 92.0056 599.792L81.9736 571.424C81.6216 570.4 81.6856 569.536 82.1656 568.832C82.6776 568.128 83.5256 567.776 84.7096 567.776C85.5736 567.776 86.2456 567.984 86.7256 568.4C87.2056 568.784 87.5896 569.408 87.8776 570.272L95.5576 593.12L103.622 570.32C104.23 568.624 105.254 567.776 106.694 567.776C107.462 567.776 108.07 567.984 108.518 568.4C108.966 568.816 109.35 569.472 109.67 570.368L117.59 593.456L125.51 570.272C125.798 569.44 126.182 568.816 126.662 568.4C127.142 567.984 127.798 567.776 128.63 567.776C129.654 567.776 130.406 568.128 130.886 568.832C131.366 569.536 131.43 570.4 131.078 571.424L120.95 599.84C120.63 600.704 120.214 601.344 119.702 601.76C119.19 602.176 118.502 602.384 117.638 602.384C116.774 602.384 116.086 602.176 115.574 601.76C115.062 601.344 114.646 600.688 114.326 599.792L106.502 577.568L98.6296 599.84C98.3096 600.704 97.8936 601.344 97.3816 601.76C96.9016 602.176 96.2296 602.384 95.3656 602.384ZM144.844 602.48C142.188 602.48 139.9 601.984 137.98 600.992C136.06 600 134.572 598.592 133.516 596.768C132.492 594.944 131.98 592.784 131.98 590.288C131.98 587.856 132.476 585.728 133.468 583.904C134.492 582.08 135.884 580.656 137.644 579.632C139.436 578.576 141.468 578.048 143.74 578.048C147.068 578.048 149.692 579.104 151.612 581.216C153.564 583.328 154.54 586.208 154.54 589.856C154.54 591.04 153.772 591.632 152.236 591.632H137.74C138.188 595.824 140.588 597.92 144.94 597.92C145.772 597.92 146.7 597.824 147.724 597.632C148.78 597.408 149.772 597.04 150.7 596.528C151.532 596.048 152.236 595.904 152.812 596.096C153.388 596.256 153.788 596.592 154.012 597.104C154.268 597.616 154.3 598.192 154.108 598.832C153.948 599.44 153.5 599.968 152.764 600.416C151.644 601.12 150.348 601.648 148.876 602C147.436 602.32 146.092 602.48 144.844 602.48ZM143.98 582.128C142.22 582.128 140.796 582.672 139.708 583.76C138.62 584.848 137.964 586.32 137.74 588.176H149.548C149.42 586.224 148.876 584.736 147.916 583.712C146.988 582.656 145.676 582.128 143.98 582.128ZM167.308 602.48C161.964 602.48 159.292 599.488 159.292 593.504V570.8C159.292 568.784 160.284 567.776 162.268 567.776C164.284 567.776 165.292 568.784 165.292 570.8V593.216C165.292 596.096 166.492 597.536 168.892 597.536C169.148 597.536 169.388 597.536 169.612 597.536C169.836 597.504 170.06 597.472 170.284 597.44C170.732 597.376 171.036 597.504 171.196 597.824C171.356 598.112 171.436 598.72 171.436 599.648C171.436 600.448 171.276 601.072 170.956 601.52C170.636 601.968 170.108 602.24 169.372 602.336C168.7 602.432 168.012 602.48 167.308 602.48ZM185.234 602.48C182.77 602.48 180.626 601.984 178.802 600.992C176.978 599.968 175.57 598.528 174.578 596.672C173.586 594.816 173.09 592.64 173.09 590.144C173.09 587.648 173.586 585.504 174.578 583.712C175.57 581.888 176.978 580.496 178.802 579.536C180.626 578.544 182.77 578.048 185.234 578.048C186.29 578.048 187.426 578.192 188.642 578.48C189.89 578.768 191.058 579.248 192.146 579.92C192.786 580.304 193.154 580.8 193.25 581.408C193.378 582.016 193.298 582.576 193.01 583.088C192.754 583.6 192.354 583.968 191.81 584.192C191.298 584.416 190.706 584.336 190.034 583.952C188.562 583.12 187.138 582.704 185.762 582.704C183.682 582.704 182.066 583.36 180.914 584.672C179.794 585.952 179.234 587.792 179.234 590.192C179.234 592.56 179.794 594.432 180.914 595.808C182.066 597.152 183.682 597.824 185.762 597.824C187.138 597.824 188.562 597.424 190.034 596.624C190.706 596.24 191.298 596.16 191.81 596.384C192.322 596.608 192.69 596.992 192.914 597.536C193.138 598.048 193.186 598.608 193.058 599.216C192.93 599.792 192.562 600.272 191.954 600.656C190.898 601.296 189.778 601.76 188.594 602.048C187.41 602.336 186.29 602.48 185.234 602.48ZM207.262 602.48C204.83 602.48 202.718 601.984 200.926 600.992C199.134 600 197.742 598.592 196.75 596.768C195.758 594.912 195.262 592.736 195.262 590.24C195.262 587.744 195.758 585.584 196.75 583.76C197.742 581.936 199.134 580.528 200.926 579.536C202.718 578.544 204.83 578.048 207.262 578.048C209.694 578.048 211.806 578.544 213.598 579.536C215.39 580.528 216.782 581.936 217.774 583.76C218.766 585.584 219.262 587.744 219.262 590.24C219.262 592.736 218.766 594.912 217.774 596.768C216.782 598.592 215.39 600 213.598 600.992C211.806 601.984 209.694 602.48 207.262 602.48ZM207.262 597.92C209.054 597.92 210.494 597.28 211.582 596C212.67 594.688 213.214 592.768 213.214 590.24C213.214 587.68 212.67 585.776 211.582 584.528C210.494 583.248 209.054 582.608 207.262 582.608C205.47 582.608 204.03 583.248 202.942 584.528C201.854 585.776 201.31 587.68 201.31 590.24C201.31 592.768 201.854 594.688 202.942 596C204.03 597.28 205.47 597.92 207.262 597.92ZM227.286 602.384C225.302 602.384 224.31 601.36 224.31 599.312V581.168C224.31 579.152 225.286 578.144 227.238 578.144C229.19 578.144 230.166 579.152 230.166 581.168V582.128C230.87 580.848 231.846 579.856 233.094 579.152C234.342 578.416 235.782 578.048 237.414 578.048C240.934 578.048 243.238 579.584 244.326 582.656C245.062 581.216 246.118 580.096 247.494 579.296C248.87 578.464 250.438 578.048 252.198 578.048C257.478 578.048 260.118 581.264 260.118 587.696V599.312C260.118 601.36 259.11 602.384 257.094 602.384C255.11 602.384 254.118 601.36 254.118 599.312V587.936C254.118 586.144 253.814 584.832 253.206 584C252.63 583.168 251.638 582.752 250.23 582.752C248.662 582.752 247.43 583.312 246.534 584.432C245.638 585.52 245.19 587.04 245.19 588.992V599.312C245.19 601.36 244.198 602.384 242.214 602.384C240.198 602.384 239.19 601.36 239.19 599.312V587.936C239.19 586.144 238.886 584.832 238.278 584C237.702 583.168 236.726 582.752 235.35 582.752C233.782 582.752 232.55 583.312 231.654 584.432C230.758 585.52 230.31 587.04 230.31 588.992V599.312C230.31 601.36 229.302 602.384 227.286 602.384ZM277.876 602.48C275.22 602.48 272.932 601.984 271.012 600.992C269.092 600 267.604 598.592 266.548 596.768C265.524 594.944 265.012 592.784 265.012 590.288C265.012 587.856 265.508 585.728 266.5 583.904C267.524 582.08 268.916 580.656 270.676 579.632C272.468 578.576 274.5 578.048 276.772 578.048C280.1 578.048 282.724 579.104 284.644 581.216C286.596 583.328 287.572 586.208 287.572 589.856C287.572 591.04 286.804 591.632 285.268 591.632H270.772C271.22 595.824 273.62 597.92 277.972 597.92C278.804 597.92 279.732 597.824 280.756 597.632C281.812 597.408 282.804 597.04 283.732 596.528C284.564 596.048 285.268 595.904 285.844 596.096C286.42 596.256 286.82 596.592 287.044 597.104C287.299 597.616 287.332 598.192 287.14 598.832C286.98 599.44 286.532 599.968 285.796 600.416C284.676 601.12 283.38 601.648 281.908 602C280.468 602.32 279.124 602.48 277.876 602.48ZM277.012 582.128C275.252 582.128 273.828 582.672 272.74 583.76C271.652 584.848 270.996 586.32 270.772 588.176H282.58C282.452 586.224 281.908 584.736 280.948 583.712C280.02 582.656 278.708 582.128 277.012 582.128ZM302.234 605.36H350.234V557.36H302.234V605.36Z" fill="#6949FF"/>
<path d="M85.7405 652.16C84.8872 652.16 84.4605 651.713 84.4605 650.82V645.52L80.1805 639.5C80.0072 639.26 79.9272 639.007 79.9405 638.74C79.9672 638.46 80.0805 638.227 80.2805 638.04C80.4805 637.84 80.7605 637.74 81.1205 637.74C81.6405 637.74 82.0939 638.013 82.4805 638.56L85.7805 643.24L89.1005 638.56C89.3139 638.267 89.5205 638.06 89.7205 637.94C89.9205 637.807 90.1672 637.74 90.4605 637.74C90.9805 637.74 91.3205 637.933 91.4805 638.32C91.6539 638.693 91.5872 639.093 91.2805 639.52L87.0205 645.54V650.82C87.0205 651.713 86.5939 652.16 85.7405 652.16ZM96.0237 652.2C95.0103 652.2 94.1303 651.993 93.3837 651.58C92.637 651.167 92.057 650.58 91.6437 649.82C91.2303 649.047 91.0237 648.14 91.0237 647.1C91.0237 646.06 91.2303 645.16 91.6437 644.4C92.057 643.64 92.637 643.053 93.3837 642.64C94.1303 642.227 95.0103 642.02 96.0237 642.02C97.037 642.02 97.917 642.227 98.6637 642.64C99.4103 643.053 99.9903 643.64 100.404 644.4C100.817 645.16 101.024 646.06 101.024 647.1C101.024 648.14 100.817 649.047 100.404 649.82C99.9903 650.58 99.4103 651.167 98.6637 651.58C97.917 651.993 97.037 652.2 96.0237 652.2ZM96.0237 650.3C96.7703 650.3 97.3703 650.033 97.8237 649.5C98.277 648.953 98.5037 648.153 98.5037 647.1C98.5037 646.033 98.277 645.24 97.8237 644.72C97.3703 644.187 96.7703 643.92 96.0237 643.92C95.277 643.92 94.677 644.187 94.2237 644.72C93.7703 645.24 93.5437 646.033 93.5437 647.1C93.5437 648.153 93.7703 648.953 94.2237 649.5C94.677 650.033 95.277 650.3 96.0237 650.3ZM106.627 652.2C104.227 652.2 103.027 650.853 103.027 648.16V643.32C103.027 642.48 103.44 642.06 104.267 642.06C105.107 642.06 105.527 642.48 105.527 643.32V648.2C105.527 648.893 105.667 649.407 105.947 649.74C106.227 650.073 106.674 650.24 107.287 650.24C107.954 650.24 108.5 650.013 108.927 649.56C109.354 649.093 109.567 648.48 109.567 647.72V643.32C109.567 642.48 109.98 642.06 110.807 642.06C111.647 642.06 112.067 642.48 112.067 643.32V650.88C112.067 651.733 111.66 652.16 110.847 652.16C110.034 652.16 109.627 651.733 109.627 650.88V650.54C108.974 651.647 107.974 652.2 106.627 652.2ZM115.949 652.16C115.096 652.16 114.669 651.733 114.669 650.88V643.32C114.669 642.48 115.076 642.06 115.889 642.06C116.702 642.06 117.109 642.48 117.109 643.32V643.94C117.589 642.793 118.616 642.153 120.189 642.02C120.762 641.953 121.082 642.28 121.149 643C121.216 643.707 120.869 644.1 120.109 644.18L119.669 644.22C118.029 644.38 117.209 645.22 117.209 646.74V650.88C117.209 651.733 116.789 652.16 115.949 652.16ZM129.171 655.76C128.344 655.76 127.931 655.34 127.931 654.5V643.32C127.931 642.48 128.338 642.06 129.151 642.06C129.978 642.06 130.391 642.48 130.391 643.32V643.74C130.671 643.22 131.091 642.807 131.651 642.5C132.211 642.18 132.851 642.02 133.571 642.02C134.424 642.02 135.171 642.227 135.811 642.64C136.464 643.053 136.971 643.64 137.331 644.4C137.691 645.147 137.871 646.047 137.871 647.1C137.871 648.14 137.691 649.047 137.331 649.82C136.971 650.58 136.471 651.167 135.831 651.58C135.191 651.993 134.438 652.2 133.571 652.2C132.878 652.2 132.251 652.053 131.691 651.76C131.144 651.453 130.724 651.047 130.431 650.54V654.5C130.431 655.34 130.011 655.76 129.171 655.76ZM132.871 650.3C133.618 650.3 134.218 650.033 134.671 649.5C135.124 648.953 135.351 648.153 135.351 647.1C135.351 646.033 135.124 645.24 134.671 644.72C134.218 644.187 133.618 643.92 132.871 643.92C132.124 643.92 131.524 644.187 131.071 644.72C130.618 645.24 130.391 646.033 130.391 647.1C130.391 648.153 130.618 648.953 131.071 649.5C131.524 650.033 132.124 650.3 132.871 650.3ZM141.203 652.16C140.35 652.16 139.923 651.733 139.923 650.88V643.32C139.923 642.48 140.33 642.06 141.143 642.06C141.956 642.06 142.363 642.48 142.363 643.32V643.94C142.843 642.793 143.87 642.153 145.443 642.02C146.016 641.953 146.336 642.28 146.403 643C146.47 643.707 146.123 644.1 145.363 644.18L144.923 644.22C143.283 644.38 142.463 645.22 142.463 646.74V650.88C142.463 651.733 142.043 652.16 141.203 652.16ZM152.059 652.2C151.045 652.2 150.165 651.993 149.419 651.58C148.672 651.167 148.092 650.58 147.679 649.82C147.265 649.047 147.059 648.14 147.059 647.1C147.059 646.06 147.265 645.16 147.679 644.4C148.092 643.64 148.672 643.053 149.419 642.64C150.165 642.227 151.045 642.02 152.059 642.02C153.072 642.02 153.952 642.227 154.699 642.64C155.445 643.053 156.025 643.64 156.439 644.4C156.852 645.16 157.059 646.06 157.059 647.1C157.059 648.14 156.852 649.047 156.439 649.82C156.025 650.58 155.445 651.167 154.699 651.58C153.952 651.993 153.072 652.2 152.059 652.2ZM152.059 650.3C152.805 650.3 153.405 650.033 153.859 649.5C154.312 648.953 154.539 648.153 154.539 647.1C154.539 646.033 154.312 645.24 153.859 644.72C153.405 644.187 152.805 643.92 152.059 643.92C151.312 643.92 150.712 644.187 150.259 644.72C149.805 645.24 149.579 646.033 149.579 647.1C149.579 648.153 149.805 648.953 150.259 649.5C150.712 650.033 151.312 650.3 152.059 650.3ZM167.445 640.22C166.498 640.22 166.025 639.78 166.025 638.9C166.025 638.02 166.498 637.58 167.445 637.58C168.405 637.58 168.885 638.02 168.885 638.9C168.885 639.313 168.758 639.64 168.505 639.88C168.265 640.107 167.911 640.22 167.445 640.22ZM160.945 652.16C160.105 652.16 159.685 651.733 159.685 650.88V644.1H158.765C158.098 644.1 157.765 643.787 157.765 643.16C157.765 642.533 158.098 642.22 158.765 642.22H159.685V642.2C159.685 640.853 160.025 639.833 160.705 639.14C161.385 638.447 162.371 638.033 163.665 637.9L164.265 637.84C164.651 637.8 164.931 637.867 165.105 638.04C165.291 638.213 165.391 638.427 165.405 638.68C165.418 638.92 165.358 639.14 165.225 639.34C165.105 639.54 164.925 639.653 164.685 639.68L164.205 639.72C163.498 639.773 162.985 639.967 162.665 640.3C162.345 640.633 162.185 641.133 162.185 641.8V642.22H167.405C168.231 642.22 168.645 642.667 168.645 643.56V650.78C168.645 651.207 168.538 651.54 168.325 651.78C168.125 652.02 167.818 652.14 167.405 652.14C167.005 652.14 166.691 652.02 166.465 651.78C166.251 651.54 166.145 651.207 166.145 650.78V644.1H162.185V650.88C162.185 651.733 161.771 652.16 160.945 652.16ZM174.591 652.2C172.365 652.2 171.251 650.953 171.251 648.46V639C171.251 638.16 171.665 637.74 172.491 637.74C173.331 637.74 173.751 638.16 173.751 639V648.34C173.751 649.54 174.251 650.14 175.251 650.14C175.358 650.14 175.458 650.14 175.551 650.14C175.645 650.127 175.738 650.113 175.831 650.1C176.018 650.073 176.145 650.127 176.211 650.26C176.278 650.38 176.311 650.633 176.311 651.02C176.311 651.353 176.245 651.613 176.111 651.8C175.978 651.987 175.758 652.1 175.451 652.14C175.171 652.18 174.885 652.2 174.591 652.2ZM182.36 652.2C181.254 652.2 180.3 651.993 179.5 651.58C178.7 651.167 178.08 650.58 177.64 649.82C177.214 649.06 177 648.16 177 647.12C177 646.107 177.207 645.22 177.62 644.46C178.047 643.7 178.627 643.107 179.36 642.68C180.107 642.24 180.954 642.02 181.9 642.02C183.287 642.02 184.38 642.46 185.18 643.34C185.994 644.22 186.4 645.42 186.4 646.94C186.4 647.433 186.08 647.68 185.44 647.68H179.4C179.587 649.427 180.587 650.3 182.4 650.3C182.747 650.3 183.134 650.26 183.56 650.18C184 650.087 184.414 649.933 184.8 649.72C185.147 649.52 185.44 649.46 185.68 649.54C185.92 649.607 186.087 649.747 186.18 649.96C186.287 650.173 186.3 650.413 186.22 650.68C186.154 650.933 185.967 651.153 185.66 651.34C185.194 651.633 184.654 651.853 184.04 652C183.44 652.133 182.88 652.2 182.36 652.2ZM182 643.72C181.267 643.72 180.674 643.947 180.22 644.4C179.767 644.853 179.494 645.467 179.4 646.24H184.32C184.267 645.427 184.04 644.807 183.64 644.38C183.254 643.94 182.707 643.72 182 643.72ZM195.05 652.16C194.223 652.16 193.81 651.733 193.81 650.88V639C193.81 638.16 194.223 637.74 195.05 637.74C195.89 637.74 196.31 638.16 196.31 639V643.64C196.643 643.107 197.09 642.707 197.65 642.44C198.21 642.16 198.83 642.02 199.51 642.02C201.816 642.02 202.97 643.36 202.97 646.04V650.88C202.97 651.733 202.556 652.16 201.73 652.16C200.89 652.16 200.47 651.733 200.47 650.88V646.16C200.47 645.4 200.323 644.847 200.03 644.5C199.75 644.153 199.31 643.98 198.71 643.98C197.976 643.98 197.39 644.213 196.95 644.68C196.523 645.133 196.31 645.74 196.31 646.5V650.88C196.31 651.733 195.89 652.16 195.05 652.16ZM208.729 652.2C208.022 652.2 207.389 652.067 206.829 651.8C206.282 651.52 205.849 651.147 205.529 650.68C205.222 650.213 205.069 649.687 205.069 649.1C205.069 648.38 205.256 647.813 205.629 647.4C206.002 646.973 206.609 646.667 207.449 646.48C208.289 646.293 209.416 646.2 210.829 646.2H211.529V645.78C211.529 645.113 211.382 644.633 211.089 644.34C210.796 644.047 210.302 643.9 209.609 643.9C209.222 643.9 208.802 643.947 208.349 644.04C207.909 644.133 207.442 644.293 206.949 644.52C206.629 644.667 206.362 644.687 206.149 644.58C205.936 644.46 205.789 644.28 205.709 644.04C205.642 643.787 205.656 643.533 205.749 643.28C205.856 643.027 206.062 642.84 206.369 642.72C206.982 642.467 207.569 642.287 208.129 642.18C208.702 642.073 209.222 642.02 209.689 642.02C211.116 642.02 212.176 642.353 212.869 643.02C213.562 643.673 213.909 644.693 213.909 646.08V650.88C213.909 651.733 213.522 652.16 212.749 652.16C211.962 652.16 211.569 651.733 211.569 650.88V650.44C211.342 650.987 210.982 651.42 210.489 651.74C209.996 652.047 209.409 652.2 208.729 652.2ZM209.249 650.48C209.902 650.48 210.442 650.253 210.869 649.8C211.309 649.347 211.529 648.773 211.529 648.08V647.64H210.849C209.596 647.64 208.722 647.74 208.229 647.94C207.749 648.127 207.509 648.473 207.509 648.98C207.509 649.42 207.662 649.78 207.969 650.06C208.276 650.34 208.702 650.48 209.249 650.48ZM220.026 652.2C219.453 652.2 218.846 652.14 218.206 652.02C217.566 651.9 216.993 651.693 216.486 651.4C216.206 651.24 216.033 651.047 215.966 650.82C215.9 650.58 215.906 650.36 215.986 650.16C216.08 649.947 216.226 649.793 216.426 649.7C216.64 649.607 216.886 649.627 217.166 649.76C217.7 650.013 218.2 650.193 218.666 650.3C219.133 650.393 219.593 650.44 220.046 650.44C220.686 650.44 221.16 650.333 221.466 650.12C221.786 649.893 221.946 649.6 221.946 649.24C221.946 648.68 221.533 648.32 220.706 648.16L218.706 647.78C217.013 647.46 216.166 646.58 216.166 645.14C216.166 644.5 216.34 643.947 216.686 643.48C217.046 643.013 217.54 642.653 218.166 642.4C218.793 642.147 219.513 642.02 220.326 642.02C221.5 642.02 222.546 642.28 223.466 642.8C223.72 642.933 223.866 643.12 223.906 643.36C223.96 643.587 223.933 643.807 223.826 644.02C223.733 644.22 223.58 644.367 223.366 644.46C223.153 644.54 222.906 644.513 222.626 644.38C222.213 644.167 221.813 644.013 221.426 643.92C221.053 643.827 220.693 643.78 220.346 643.78C219.693 643.78 219.206 643.893 218.886 644.12C218.58 644.347 218.426 644.647 218.426 645.02C218.426 645.607 218.806 645.967 219.566 646.1L221.566 646.48C222.433 646.64 223.086 646.933 223.526 647.36C223.98 647.787 224.206 648.36 224.206 649.08C224.206 650.053 223.826 650.82 223.066 651.38C222.306 651.927 221.293 652.2 220.026 652.2ZM237.282 652.2C236.562 652.2 235.922 652.047 235.362 651.74C234.802 651.42 234.382 650.993 234.102 650.46V650.88C234.102 651.733 233.695 652.16 232.882 652.16C232.055 652.16 231.642 651.733 231.642 650.88V639C231.642 638.16 232.055 637.74 232.882 637.74C233.722 637.74 234.142 638.16 234.142 639V643.66C234.435 643.167 234.855 642.773 235.402 642.48C235.962 642.173 236.588 642.02 237.282 642.02C238.148 642.02 238.902 642.227 239.542 642.64C240.182 643.053 240.682 643.64 241.042 644.4C241.402 645.147 241.582 646.047 241.582 647.1C241.582 648.14 241.402 649.047 241.042 649.82C240.682 650.58 240.175 651.167 239.522 651.58C238.882 651.993 238.135 652.2 237.282 652.2ZM236.582 650.3C237.328 650.3 237.928 650.033 238.382 649.5C238.835 648.953 239.062 648.153 239.062 647.1C239.062 646.033 238.835 645.24 238.382 644.72C237.928 644.187 237.328 643.92 236.582 643.92C235.835 643.92 235.235 644.187 234.782 644.72C234.328 645.24 234.102 646.033 234.102 647.1C234.102 648.153 234.328 648.953 234.782 649.5C235.235 650.033 235.835 650.3 236.582 650.3ZM248.454 652.2C247.347 652.2 246.394 651.993 245.594 651.58C244.794 651.167 244.174 650.58 243.734 649.82C243.307 649.06 243.094 648.16 243.094 647.12C243.094 646.107 243.301 645.22 243.714 644.46C244.141 643.7 244.721 643.107 245.454 642.68C246.201 642.24 247.047 642.02 247.994 642.02C249.381 642.02 250.474 642.46 251.274 643.34C252.087 644.22 252.494 645.42 252.494 646.94C252.494 647.433 252.174 647.68 251.534 647.68H245.494C245.681 649.427 246.681 650.3 248.494 650.3C248.841 650.3 249.227 650.26 249.654 650.18C250.094 650.087 250.507 649.933 250.894 649.72C251.241 649.52 251.534 649.46 251.774 649.54C252.014 649.607 252.181 649.747 252.274 649.96C252.381 650.173 252.394 650.413 252.314 650.68C252.247 650.933 252.061 651.153 251.754 651.34C251.287 651.633 250.747 651.853 250.134 652C249.534 652.133 248.974 652.2 248.454 652.2ZM248.094 643.72C247.361 643.72 246.767 643.947 246.314 644.4C245.861 644.853 245.587 645.467 245.494 646.24H250.414C250.361 645.427 250.134 644.807 249.734 644.38C249.347 643.94 248.801 643.72 248.094 643.72ZM259.294 652.2C258.187 652.2 257.234 651.993 256.434 651.58C255.634 651.167 255.014 650.58 254.574 649.82C254.147 649.06 253.934 648.16 253.934 647.12C253.934 646.107 254.14 645.22 254.554 644.46C254.98 643.7 255.56 643.107 256.294 642.68C257.04 642.24 257.887 642.02 258.834 642.02C260.22 642.02 261.314 642.46 262.114 643.34C262.927 644.22 263.334 645.42 263.334 646.94C263.334 647.433 263.014 647.68 262.374 647.68H256.334C256.52 649.427 257.52 650.3 259.334 650.3C259.68 650.3 260.067 650.26 260.494 650.18C260.934 650.087 261.347 649.933 261.734 649.72C262.08 649.52 262.374 649.46 262.614 649.54C262.854 649.607 263.02 649.747 263.114 649.96C263.22 650.173 263.234 650.413 263.154 650.68C263.087 650.933 262.9 651.153 262.594 651.34C262.127 651.633 261.587 651.853 260.974 652C260.374 652.133 259.814 652.2 259.294 652.2ZM258.934 643.72C258.2 643.72 257.607 643.947 257.154 644.4C256.7 644.853 256.427 645.467 256.334 646.24H261.254C261.2 645.427 260.974 644.807 260.574 644.38C260.187 643.94 259.64 643.72 258.934 643.72ZM266.554 652.16C265.727 652.16 265.314 651.733 265.314 650.88V643.32C265.314 642.48 265.72 642.06 266.534 642.06C267.347 642.06 267.754 642.48 267.754 643.32V643.74C268.087 643.18 268.534 642.753 269.094 642.46C269.667 642.167 270.307 642.02 271.014 642.02C273.32 642.02 274.474 643.36 274.474 646.04V650.88C274.474 651.733 274.06 652.16 273.234 652.16C272.394 652.16 271.974 651.733 271.974 650.88V646.16C271.974 645.4 271.827 644.847 271.534 644.5C271.254 644.153 270.814 643.98 270.214 643.98C269.48 643.98 268.894 644.213 268.454 644.68C268.027 645.133 267.814 645.74 267.814 646.5V650.88C267.814 651.733 267.394 652.16 266.554 652.16ZM286.963 652.2C285.936 652.2 285.043 651.993 284.283 651.58C283.523 651.153 282.936 650.553 282.523 649.78C282.109 649.007 281.903 648.1 281.903 647.06C281.903 646.02 282.109 645.127 282.523 644.38C282.936 643.62 283.523 643.04 284.283 642.64C285.043 642.227 285.936 642.02 286.963 642.02C287.403 642.02 287.876 642.08 288.383 642.2C288.903 642.32 289.389 642.52 289.843 642.8C290.109 642.96 290.263 643.167 290.303 643.42C290.356 643.673 290.323 643.907 290.203 644.12C290.096 644.333 289.929 644.487 289.703 644.58C289.489 644.673 289.243 644.64 288.963 644.48C288.349 644.133 287.756 643.96 287.183 643.96C286.316 643.96 285.643 644.233 285.163 644.78C284.696 645.313 284.463 646.08 284.463 647.08C284.463 648.067 284.696 648.847 285.163 649.42C285.643 649.98 286.316 650.26 287.183 650.26C287.756 650.26 288.349 650.093 288.963 649.76C289.243 649.6 289.489 649.567 289.703 649.66C289.916 649.753 290.069 649.913 290.163 650.14C290.256 650.353 290.276 650.587 290.223 650.84C290.169 651.08 290.016 651.28 289.763 651.44C289.323 651.707 288.856 651.9 288.363 652.02C287.869 652.14 287.403 652.2 286.963 652.2ZM293.156 652.16C292.303 652.16 291.876 651.733 291.876 650.88V643.32C291.876 642.48 292.283 642.06 293.096 642.06C293.91 642.06 294.316 642.48 294.316 643.32V643.94C294.796 642.793 295.823 642.153 297.396 642.02C297.97 641.953 298.29 642.28 298.356 643C298.423 643.707 298.076 644.1 297.316 644.18L296.876 644.22C295.236 644.38 294.416 645.22 294.416 646.74V650.88C294.416 651.733 293.996 652.16 293.156 652.16ZM304.372 652.2C303.265 652.2 302.312 651.993 301.512 651.58C300.712 651.167 300.092 650.58 299.652 649.82C299.225 649.06 299.012 648.16 299.012 647.12C299.012 646.107 299.219 645.22 299.632 644.46C300.059 643.7 300.639 643.107 301.372 642.68C302.119 642.24 302.965 642.02 303.912 642.02C305.299 642.02 306.392 642.46 307.192 643.34C308.005 644.22 308.412 645.42 308.412 646.94C308.412 647.433 308.092 647.68 307.452 647.68H301.412C301.599 649.427 302.599 650.3 304.412 650.3C304.759 650.3 305.145 650.26 305.572 650.18C306.012 650.087 306.425 649.933 306.812 649.72C307.159 649.52 307.452 649.46 307.692 649.54C307.932 649.607 308.099 649.747 308.192 649.96C308.299 650.173 308.312 650.413 308.232 650.68C308.165 650.933 307.979 651.153 307.672 651.34C307.205 651.633 306.665 651.853 306.052 652C305.452 652.133 304.892 652.2 304.372 652.2ZM304.012 643.72C303.279 643.72 302.685 643.947 302.232 644.4C301.779 644.853 301.505 645.467 301.412 646.24H306.332C306.279 645.427 306.052 644.807 305.652 644.38C305.265 643.94 304.719 643.72 304.012 643.72ZM313.612 652.2C312.905 652.2 312.272 652.067 311.712 651.8C311.165 651.52 310.732 651.147 310.412 650.68C310.105 650.213 309.952 649.687 309.952 649.1C309.952 648.38 310.138 647.813 310.512 647.4C310.885 646.973 311.492 646.667 312.332 646.48C313.172 646.293 314.298 646.2 315.712 646.2H316.412V645.78C316.412 645.113 316.265 644.633 315.972 644.34C315.678 644.047 315.185 643.9 314.492 643.9C314.105 643.9 313.685 643.947 313.232 644.04C312.792 644.133 312.325 644.293 311.832 644.52C311.512 644.667 311.245 644.687 311.032 644.58C310.818 644.46 310.672 644.28 310.592 644.04C310.525 643.787 310.538 643.533 310.632 643.28C310.738 643.027 310.945 642.84 311.252 642.72C311.865 642.467 312.452 642.287 313.012 642.18C313.585 642.073 314.105 642.02 314.572 642.02C315.998 642.02 317.058 642.353 317.752 643.02C318.445 643.673 318.792 644.693 318.792 646.08V650.88C318.792 651.733 318.405 652.16 317.632 652.16C316.845 652.16 316.452 651.733 316.452 650.88V650.44C316.225 650.987 315.865 651.42 315.372 651.74C314.878 652.047 314.292 652.2 313.612 652.2ZM314.132 650.48C314.785 650.48 315.325 650.253 315.752 649.8C316.192 649.347 316.412 648.773 316.412 648.08V647.64H315.732C314.478 647.64 313.605 647.74 313.112 647.94C312.632 648.127 312.392 648.473 312.392 648.98C312.392 649.42 312.545 649.78 312.852 650.06C313.158 650.34 313.585 650.48 314.132 650.48ZM325.809 652.2C323.223 652.2 321.929 650.92 321.929 648.36V644.1H320.889C320.223 644.1 319.889 643.787 319.889 643.16C319.889 642.533 320.223 642.22 320.889 642.22H321.929V640.4C321.929 639.56 322.349 639.14 323.189 639.14C324.016 639.14 324.429 639.56 324.429 640.4V642.22H326.549C327.216 642.22 327.549 642.533 327.549 643.16C327.549 643.787 327.216 644.1 326.549 644.1H324.429V648.22C324.429 648.86 324.569 649.34 324.849 649.66C325.129 649.98 325.583 650.14 326.209 650.14C326.436 650.14 326.636 650.12 326.809 650.08C326.983 650.04 327.136 650.013 327.269 650C327.429 649.987 327.563 650.04 327.669 650.16C327.776 650.267 327.829 650.493 327.829 650.84C327.829 651.107 327.783 651.347 327.689 651.56C327.609 651.76 327.456 651.9 327.229 651.98C327.056 652.033 326.829 652.08 326.549 652.12C326.269 652.173 326.023 652.2 325.809 652.2ZM333.727 652.2C332.621 652.2 331.667 651.993 330.867 651.58C330.067 651.167 329.447 650.58 329.007 649.82C328.581 649.06 328.367 648.16 328.367 647.12C328.367 646.107 328.574 645.22 328.987 644.46C329.414 643.7 329.994 643.107 330.727 642.68C331.474 642.24 332.321 642.02 333.267 642.02C334.654 642.02 335.747 642.46 336.547 643.34C337.361 644.22 337.767 645.42 337.767 646.94C337.767 647.433 337.447 647.68 336.807 647.68H330.767C330.954 649.427 331.954 650.3 333.767 650.3C334.114 650.3 334.501 650.26 334.927 650.18C335.367 650.087 335.781 649.933 336.167 649.72C336.514 649.52 336.807 649.46 337.047 649.54C337.287 649.607 337.454 649.747 337.547 649.96C337.654 650.173 337.667 650.413 337.587 650.68C337.521 650.933 337.334 651.153 337.027 651.34C336.561 651.633 336.021 651.853 335.407 652C334.807 652.133 334.247 652.2 333.727 652.2ZM333.367 643.72C332.634 643.72 332.041 643.947 331.587 644.4C331.134 644.853 330.861 645.467 330.767 646.24H335.687C335.634 645.427 335.407 644.807 335.007 644.38C334.621 643.94 334.074 643.72 333.367 643.72ZM343.507 652.2C342.654 652.2 341.901 651.993 341.247 651.58C340.607 651.167 340.107 650.58 339.747 649.82C339.387 649.047 339.207 648.14 339.207 647.1C339.207 646.047 339.387 645.147 339.747 644.4C340.107 643.64 340.607 643.053 341.247 642.64C341.901 642.227 342.654 642.02 343.507 642.02C344.201 642.02 344.827 642.173 345.387 642.48C345.947 642.787 346.367 643.193 346.647 643.7V639C346.647 638.16 347.061 637.74 347.887 637.74C348.727 637.74 349.147 638.16 349.147 639V650.88C349.147 651.733 348.734 652.16 347.907 652.16C347.081 652.16 346.667 651.733 346.667 650.88V650.46C346.387 650.993 345.967 651.42 345.407 651.74C344.847 652.047 344.214 652.2 343.507 652.2ZM344.207 650.3C344.954 650.3 345.554 650.033 346.007 649.5C346.461 648.953 346.687 648.153 346.687 647.1C346.687 646.033 346.461 645.24 346.007 644.72C345.554 644.187 344.954 643.92 344.207 643.92C343.461 643.92 342.861 644.187 342.407 644.72C341.954 645.24 341.727 646.033 341.727 647.1C341.727 648.153 341.954 648.953 342.407 649.5C342.861 650.033 343.461 650.3 344.207 650.3ZM161.823 684.2C161.25 684.2 160.643 684.14 160.003 684.02C159.363 683.9 158.79 683.693 158.283 683.4C158.003 683.24 157.83 683.047 157.763 682.82C157.697 682.58 157.703 682.36 157.783 682.16C157.877 681.947 158.023 681.793 158.223 681.7C158.437 681.607 158.683 681.627 158.963 681.76C159.497 682.013 159.997 682.193 160.463 682.3C160.93 682.393 161.39 682.44 161.843 682.44C162.483 682.44 162.957 682.333 163.263 682.12C163.583 681.893 163.743 681.6 163.743 681.24C163.743 680.68 163.33 680.32 162.503 680.16L160.503 679.78C158.81 679.46 157.963 678.58 157.963 677.14C157.963 676.5 158.137 675.947 158.483 675.48C158.843 675.013 159.337 674.653 159.963 674.4C160.59 674.147 161.31 674.02 162.123 674.02C163.297 674.02 164.343 674.28 165.263 674.8C165.517 674.933 165.663 675.12 165.703 675.36C165.757 675.587 165.73 675.807 165.623 676.02C165.53 676.22 165.377 676.367 165.163 676.46C164.95 676.54 164.703 676.513 164.423 676.38C164.01 676.167 163.61 676.013 163.223 675.92C162.85 675.827 162.49 675.78 162.143 675.78C161.49 675.78 161.003 675.893 160.683 676.12C160.377 676.347 160.223 676.647 160.223 677.02C160.223 677.607 160.603 677.967 161.363 678.1L163.363 678.48C164.23 678.64 164.883 678.933 165.323 679.36C165.777 679.787 166.003 680.36 166.003 681.08C166.003 682.053 165.623 682.82 164.863 683.38C164.103 683.927 163.09 684.2 161.823 684.2ZM171.549 684.2C169.149 684.2 167.949 682.853 167.949 680.16V675.32C167.949 674.48 168.362 674.06 169.189 674.06C170.029 674.06 170.449 674.48 170.449 675.32V680.2C170.449 680.893 170.589 681.407 170.869 681.74C171.149 682.073 171.596 682.24 172.209 682.24C172.876 682.24 173.422 682.013 173.849 681.56C174.276 681.093 174.489 680.48 174.489 679.72V675.32C174.489 674.48 174.902 674.06 175.729 674.06C176.569 674.06 176.989 674.48 176.989 675.32V682.88C176.989 683.733 176.582 684.16 175.769 684.16C174.956 684.16 174.549 683.733 174.549 682.88V682.54C173.896 683.647 172.896 684.2 171.549 684.2ZM184.111 684.2C183.084 684.2 182.191 683.993 181.431 683.58C180.671 683.153 180.084 682.553 179.671 681.78C179.258 681.007 179.051 680.1 179.051 679.06C179.051 678.02 179.258 677.127 179.671 676.38C180.084 675.62 180.671 675.04 181.431 674.64C182.191 674.227 183.084 674.02 184.111 674.02C184.551 674.02 185.024 674.08 185.531 674.2C186.051 674.32 186.538 674.52 186.991 674.8C187.258 674.96 187.411 675.167 187.451 675.42C187.504 675.673 187.471 675.907 187.351 676.12C187.244 676.333 187.078 676.487 186.851 676.58C186.638 676.673 186.391 676.64 186.111 676.48C185.498 676.133 184.904 675.96 184.331 675.96C183.464 675.96 182.791 676.233 182.311 676.78C181.844 677.313 181.611 678.08 181.611 679.08C181.611 680.067 181.844 680.847 182.311 681.42C182.791 681.98 183.464 682.26 184.331 682.26C184.904 682.26 185.498 682.093 186.111 681.76C186.391 681.6 186.638 681.567 186.851 681.66C187.064 681.753 187.218 681.913 187.311 682.14C187.404 682.353 187.424 682.587 187.371 682.84C187.318 683.08 187.164 683.28 186.911 683.44C186.471 683.707 186.004 683.9 185.511 684.02C185.018 684.14 184.551 684.2 184.111 684.2ZM193.349 684.2C192.323 684.2 191.429 683.993 190.669 683.58C189.909 683.153 189.323 682.553 188.909 681.78C188.496 681.007 188.289 680.1 188.289 679.06C188.289 678.02 188.496 677.127 188.909 676.38C189.323 675.62 189.909 675.04 190.669 674.64C191.429 674.227 192.323 674.02 193.349 674.02C193.789 674.02 194.263 674.08 194.769 674.2C195.289 674.32 195.776 674.52 196.229 674.8C196.496 674.96 196.649 675.167 196.689 675.42C196.743 675.673 196.709 675.907 196.589 676.12C196.483 676.333 196.316 676.487 196.089 676.58C195.876 676.673 195.629 676.64 195.349 676.48C194.736 676.133 194.143 675.96 193.569 675.96C192.703 675.96 192.029 676.233 191.549 676.78C191.083 677.313 190.849 678.08 190.849 679.08C190.849 680.067 191.083 680.847 191.549 681.42C192.029 681.98 192.703 682.26 193.569 682.26C194.143 682.26 194.736 682.093 195.349 681.76C195.629 681.6 195.876 681.567 196.089 681.66C196.303 681.753 196.456 681.913 196.549 682.14C196.643 682.353 196.663 682.587 196.609 682.84C196.556 683.08 196.403 683.28 196.149 683.44C195.709 683.707 195.243 683.9 194.749 684.02C194.256 684.14 193.789 684.2 193.349 684.2ZM202.888 684.2C201.781 684.2 200.828 683.993 200.028 683.58C199.228 683.167 198.608 682.58 198.168 681.82C197.741 681.06 197.528 680.16 197.528 679.12C197.528 678.107 197.734 677.22 198.148 676.46C198.574 675.7 199.154 675.107 199.888 674.68C200.634 674.24 201.481 674.02 202.428 674.02C203.814 674.02 204.908 674.46 205.708 675.34C206.521 676.22 206.928 677.42 206.928 678.94C206.928 679.433 206.608 679.68 205.968 679.68H199.928C200.114 681.427 201.114 682.3 202.928 682.3C203.274 682.3 203.661 682.26 204.088 682.18C204.528 682.087 204.941 681.933 205.328 681.72C205.674 681.52 205.968 681.46 206.208 681.54C206.448 681.607 206.614 681.747 206.708 681.96C206.814 682.173 206.828 682.413 206.748 682.68C206.681 682.933 206.494 683.153 206.188 683.34C205.721 683.633 205.181 683.853 204.568 684C203.968 684.133 203.408 684.2 202.888 684.2ZM202.528 675.72C201.794 675.72 201.201 675.947 200.748 676.4C200.294 676.853 200.021 677.467 199.928 678.24H204.848C204.794 677.427 204.568 676.807 204.168 676.38C203.781 675.94 203.234 675.72 202.528 675.72ZM212.487 684.2C211.914 684.2 211.307 684.14 210.667 684.02C210.027 683.9 209.454 683.693 208.947 683.4C208.667 683.24 208.494 683.047 208.427 682.82C208.361 682.58 208.367 682.36 208.447 682.16C208.541 681.947 208.687 681.793 208.887 681.7C209.101 681.607 209.347 681.627 209.627 681.76C210.161 682.013 210.661 682.193 211.127 682.3C211.594 682.393 212.054 682.44 212.507 682.44C213.147 682.44 213.621 682.333 213.927 682.12C214.247 681.893 214.407 681.6 214.407 681.24C214.407 680.68 213.994 680.32 213.167 680.16L211.167 679.78C209.474 679.46 208.627 678.58 208.627 677.14C208.627 676.5 208.801 675.947 209.147 675.48C209.507 675.013 210.001 674.653 210.627 674.4C211.254 674.147 211.974 674.02 212.787 674.02C213.961 674.02 215.007 674.28 215.927 674.8C216.181 674.933 216.327 675.12 216.367 675.36C216.421 675.587 216.394 675.807 216.287 676.02C216.194 676.22 216.041 676.367 215.827 676.46C215.614 676.54 215.367 676.513 215.087 676.38C214.674 676.167 214.274 676.013 213.887 675.92C213.514 675.827 213.154 675.78 212.807 675.78C212.154 675.78 211.667 675.893 211.347 676.12C211.041 676.347 210.887 676.647 210.887 677.02C210.887 677.607 211.267 677.967 212.027 678.1L214.027 678.48C214.894 678.64 215.547 678.933 215.987 679.36C216.441 679.787 216.667 680.36 216.667 681.08C216.667 682.053 216.287 682.82 215.527 683.38C214.767 683.927 213.754 684.2 212.487 684.2ZM222.253 684.2C221.68 684.2 221.073 684.14 220.433 684.02C219.793 683.9 219.22 683.693 218.713 683.4C218.433 683.24 218.26 683.047 218.193 682.82C218.126 682.58 218.133 682.36 218.213 682.16C218.306 681.947 218.453 681.793 218.653 681.7C218.866 681.607 219.113 681.627 219.393 681.76C219.926 682.013 220.426 682.193 220.893 682.3C221.36 682.393 221.82 682.44 222.273 682.44C222.913 682.44 223.386 682.333 223.693 682.12C224.013 681.893 224.173 681.6 224.173 681.24C224.173 680.68 223.76 680.32 222.933 680.16L220.933 679.78C219.24 679.46 218.393 678.58 218.393 677.14C218.393 676.5 218.566 675.947 218.913 675.48C219.273 675.013 219.766 674.653 220.393 674.4C221.02 674.147 221.74 674.02 222.553 674.02C223.726 674.02 224.773 674.28 225.693 674.8C225.946 674.933 226.093 675.12 226.133 675.36C226.186 675.587 226.16 675.807 226.053 676.02C225.96 676.22 225.806 676.367 225.593 676.46C225.38 676.54 225.133 676.513 224.853 676.38C224.44 676.167 224.04 676.013 223.653 675.92C223.28 675.827 222.92 675.78 222.573 675.78C221.92 675.78 221.433 675.893 221.113 676.12C220.806 676.347 220.653 676.647 220.653 677.02C220.653 677.607 221.033 677.967 221.793 678.1L223.793 678.48C224.66 678.64 225.313 678.933 225.753 679.36C226.206 679.787 226.433 680.36 226.433 681.08C226.433 682.053 226.053 682.82 225.293 683.38C224.533 683.927 223.52 684.2 222.253 684.2ZM230.359 684.16C229.519 684.16 229.099 683.733 229.099 682.88V676.1H228.179C227.512 676.1 227.179 675.787 227.179 675.16C227.179 674.533 227.512 674.22 228.179 674.22H229.099V674.2C229.099 672.827 229.445 671.8 230.139 671.12C230.832 670.427 231.832 670.02 233.139 669.9L233.819 669.84C234.165 669.813 234.419 669.887 234.579 670.06C234.739 670.233 234.819 670.447 234.819 670.7C234.832 670.94 234.772 671.16 234.639 671.36C234.505 671.547 234.312 671.653 234.059 671.68L233.779 671.7C233.019 671.753 232.465 671.947 232.119 672.28C231.772 672.613 231.599 673.12 231.599 673.8V674.22H233.299C233.965 674.22 234.299 674.533 234.299 675.16C234.299 675.787 233.965 676.1 233.299 676.1H231.599V682.88C231.599 683.733 231.185 684.16 230.359 684.16ZM239.264 684.2C236.864 684.2 235.664 682.853 235.664 680.16V675.32C235.664 674.48 236.077 674.06 236.904 674.06C237.744 674.06 238.164 674.48 238.164 675.32V680.2C238.164 680.893 238.304 681.407 238.584 681.74C238.864 682.073 239.31 682.24 239.924 682.24C240.59 682.24 241.137 682.013 241.564 681.56C241.99 681.093 242.204 680.48 242.204 679.72V675.32C242.204 674.48 242.617 674.06 243.444 674.06C244.284 674.06 244.704 674.48 244.704 675.32V682.88C244.704 683.733 244.297 684.16 243.484 684.16C242.67 684.16 242.264 683.733 242.264 682.88V682.54C241.61 683.647 240.61 684.2 239.264 684.2ZM250.646 684.2C248.419 684.2 247.306 682.953 247.306 680.46V671C247.306 670.16 247.719 669.74 248.546 669.74C249.386 669.74 249.806 670.16 249.806 671V680.34C249.806 681.54 250.306 682.14 251.306 682.14C251.413 682.14 251.513 682.14 251.606 682.14C251.699 682.127 251.793 682.113 251.886 682.1C252.073 682.073 252.199 682.127 252.266 682.26C252.333 682.38 252.366 682.633 252.366 683.02C252.366 683.353 252.299 683.613 252.166 683.8C252.033 683.987 251.813 684.1 251.506 684.14C251.226 684.18 250.939 684.2 250.646 684.2ZM257.033 684.2C254.806 684.2 253.693 682.953 253.693 680.46V671C253.693 670.16 254.106 669.74 254.933 669.74C255.773 669.74 256.193 670.16 256.193 671V680.34C256.193 681.54 256.693 682.14 257.693 682.14C257.799 682.14 257.899 682.14 257.993 682.14C258.086 682.127 258.179 682.113 258.273 682.1C258.459 682.073 258.586 682.127 258.653 682.26C258.719 682.38 258.753 682.633 258.753 683.02C258.753 683.353 258.686 683.613 258.553 683.8C258.419 683.987 258.199 684.1 257.893 684.14C257.613 684.18 257.326 684.2 257.033 684.2ZM262.305 687.76C261.852 687.76 261.539 687.593 261.365 687.26C261.192 686.927 261.199 686.547 261.385 686.12L262.525 683.6L259.105 675.72C258.919 675.28 258.919 674.893 259.105 674.56C259.292 674.227 259.659 674.06 260.205 674.06C260.512 674.06 260.759 674.133 260.945 674.28C261.132 674.413 261.299 674.673 261.445 675.06L263.845 681.06L266.305 675.04C266.452 674.667 266.625 674.413 266.825 674.28C267.025 674.133 267.292 674.06 267.625 674.06C268.052 674.06 268.352 674.227 268.525 674.56C268.699 674.893 268.692 675.273 268.505 675.7L263.645 686.8C263.472 687.173 263.285 687.427 263.085 687.56C262.885 687.693 262.625 687.76 262.305 687.76ZM270.596 684.1C270.142 684.1 269.776 683.96 269.496 683.68C269.229 683.4 269.096 683.04 269.096 682.6C269.096 682.173 269.229 681.827 269.496 681.56C269.776 681.28 270.142 681.14 270.596 681.14C271.062 681.14 271.422 681.28 271.676 681.56C271.942 681.827 272.076 682.173 272.076 682.6C272.076 683.04 271.942 683.4 271.676 683.68C271.422 683.96 271.062 684.1 270.596 684.1Z" fill="#616161"/>
<mask id="path-27-inside-2_2032_28449" fill="white">
<path d="M0 814H430V932H0V814Z"/>
</mask>
<path d="M0 814H430V932H0V814Z" fill="white"/>
<path d="M0 815H430V813H0V815Z" fill="#F5F5F5" mask="url(#path-27-inside-2_2032_28449)"/>
<g filter="url(#filter0_d_2032_28449)">
<rect x="24" y="838" width="382" height="58" rx="29" fill="#6949FF" shape-rendering="crispEdges"/>
<path d="M139.136 872.16C137.963 872.16 136.955 871.925 136.112 871.456C135.28 870.976 134.64 870.304 134.192 869.44C133.744 868.565 133.52 867.536 133.52 866.352C133.52 865.168 133.744 864.144 134.192 863.28C134.64 862.416 135.28 861.749 136.112 861.28C136.955 860.8 137.963 860.56 139.136 860.56C139.723 860.56 140.299 860.635 140.864 860.784C141.43 860.933 141.926 861.147 142.352 861.424C142.63 861.605 142.795 861.824 142.848 862.08C142.902 862.325 142.87 862.555 142.752 862.768C142.635 862.971 142.459 863.109 142.224 863.184C141.99 863.248 141.728 863.184 141.44 862.992C141.11 862.779 140.752 862.624 140.368 862.528C139.984 862.432 139.595 862.384 139.2 862.384C138.059 862.384 137.19 862.731 136.592 863.424C135.995 864.107 135.696 865.083 135.696 866.352C135.696 867.621 135.995 868.603 136.592 869.296C137.19 869.989 138.059 870.336 139.2 870.336C139.606 870.336 140.006 870.288 140.4 870.192C140.795 870.085 141.168 869.925 141.52 869.712C141.808 869.531 142.064 869.472 142.288 869.536C142.512 869.6 142.678 869.733 142.784 869.936C142.902 870.128 142.939 870.341 142.896 870.576C142.854 870.811 142.71 871.019 142.464 871.2C142.038 871.509 141.526 871.749 140.928 871.92C140.342 872.08 139.744 872.16 139.136 872.16ZM149.644 872.16C148.556 872.16 147.602 871.92 146.78 871.44C145.97 870.96 145.34 870.288 144.892 869.424C144.444 868.549 144.22 867.525 144.22 866.352C144.22 865.168 144.444 864.144 144.892 863.28C145.34 862.416 145.97 861.749 146.78 861.28C147.591 860.8 148.546 860.56 149.644 860.56C150.743 860.56 151.698 860.8 152.508 861.28C153.319 861.749 153.948 862.416 154.396 863.28C154.844 864.144 155.068 865.163 155.068 866.336C155.068 867.52 154.844 868.549 154.396 869.424C153.948 870.288 153.319 870.96 152.508 871.44C151.698 871.92 150.743 872.16 149.644 872.16ZM149.644 870.4C150.679 870.4 151.484 870.043 152.06 869.328C152.636 868.613 152.924 867.621 152.924 866.352C152.924 865.072 152.636 864.08 152.06 863.376C151.495 862.672 150.69 862.32 149.644 862.32C148.61 862.32 147.804 862.672 147.228 863.376C146.652 864.08 146.364 865.072 146.364 866.352C146.364 867.621 146.652 868.613 147.228 869.328C147.804 870.043 148.61 870.4 149.644 870.4ZM158.311 872.128C157.671 872.128 157.351 871.797 157.351 871.136V861.616C157.351 861.285 157.431 861.035 157.591 860.864C157.761 860.683 157.98 860.592 158.247 860.592C158.492 860.592 158.673 860.64 158.791 860.736C158.919 860.821 159.068 860.971 159.239 861.184L164.951 868.592V861.568C164.951 860.917 165.271 860.592 165.911 860.592C166.54 860.592 166.855 860.917 166.855 861.568V871.168C166.855 871.467 166.78 871.701 166.631 871.872C166.481 872.043 166.279 872.128 166.023 872.128C165.777 872.128 165.58 872.08 165.431 871.984C165.292 871.888 165.137 871.733 164.967 871.52L159.255 864.096V871.136C159.255 871.797 158.94 872.128 158.311 872.128ZM173.264 872.128C172.581 872.128 172.24 871.776 172.24 871.072V862.432H169.12C168.533 862.432 168.24 862.144 168.24 861.568C168.24 861.003 168.533 860.72 169.12 860.72H177.408C177.994 860.72 178.288 861.003 178.288 861.568C178.288 862.144 177.994 862.432 177.408 862.432H174.288V871.072C174.288 871.776 173.946 872.128 173.264 872.128ZM180.681 872.128C179.998 872.128 179.657 871.776 179.657 871.072V861.648C179.657 860.944 179.998 860.592 180.681 860.592C181.364 860.592 181.705 860.944 181.705 861.648V871.072C181.705 871.776 181.364 872.128 180.681 872.128ZM185.333 872.128C184.693 872.128 184.373 871.797 184.373 871.136V861.616C184.373 861.285 184.453 861.035 184.613 860.864C184.783 860.683 185.002 860.592 185.269 860.592C185.514 860.592 185.695 860.64 185.813 860.736C185.941 860.821 186.09 860.971 186.261 861.184L191.973 868.592V861.568C191.973 860.917 192.293 860.592 192.933 860.592C193.562 860.592 193.877 860.917 193.877 861.568V871.168C193.877 871.467 193.802 871.701 193.653 871.872C193.503 872.043 193.301 872.128 193.045 872.128C192.799 872.128 192.602 872.08 192.453 871.984C192.314 871.888 192.159 871.733 191.989 871.52L186.277 864.096V871.136C186.277 871.797 185.962 872.128 185.333 872.128ZM201.229 872.16C199.683 872.16 198.499 871.76 197.677 870.96C196.867 870.149 196.461 868.955 196.461 867.376V861.632C196.461 860.939 196.803 860.592 197.485 860.592C198.168 860.592 198.509 860.939 198.509 861.632V867.36C198.509 868.373 198.739 869.136 199.197 869.648C199.667 870.149 200.344 870.4 201.229 870.4C203.032 870.4 203.933 869.387 203.933 867.36V861.632C203.933 860.939 204.275 860.592 204.957 860.592C205.629 860.592 205.965 860.939 205.965 861.632V867.376C205.965 868.955 205.565 870.149 204.765 870.96C203.965 871.76 202.787 872.16 201.229 872.16ZM209.642 872C208.917 872 208.554 871.637 208.554 870.912V861.808C208.554 861.083 208.917 860.72 209.642 860.72H215.354C215.909 860.72 216.186 860.987 216.186 861.52C216.186 862.075 215.909 862.352 215.354 862.352H210.522V865.456H215.002C215.557 865.456 215.834 865.728 215.834 866.272C215.834 866.816 215.557 867.088 215.002 867.088H210.522V870.368H215.354C215.909 870.368 216.186 870.64 216.186 871.184C216.186 871.728 215.909 872 215.354 872H209.642ZM226.589 872.128C225.906 872.128 225.565 871.776 225.565 871.072V862.432H222.445C221.858 862.432 221.565 862.144 221.565 861.568C221.565 861.003 221.858 860.72 222.445 860.72H230.733C231.319 860.72 231.613 861.003 231.613 861.568C231.613 862.144 231.319 862.432 230.733 862.432H227.613V871.072C227.613 871.776 227.271 872.128 226.589 872.128ZM237.351 872.16C236.263 872.16 235.308 871.92 234.487 871.44C233.676 870.96 233.047 870.288 232.599 869.424C232.151 868.549 231.927 867.525 231.927 866.352C231.927 865.168 232.151 864.144 232.599 863.28C233.047 862.416 233.676 861.749 234.487 861.28C235.297 860.8 236.252 860.56 237.351 860.56C238.449 860.56 239.404 860.8 240.215 861.28C241.025 861.749 241.655 862.416 242.103 863.28C242.551 864.144 242.775 865.163 242.775 866.336C242.775 867.52 242.551 868.549 242.103 869.424C241.655 870.288 241.025 870.96 240.215 871.44C239.404 871.92 238.449 872.16 237.351 872.16ZM237.351 870.4C238.385 870.4 239.191 870.043 239.767 869.328C240.343 868.613 240.631 867.621 240.631 866.352C240.631 865.072 240.343 864.08 239.767 863.376C239.201 862.672 238.396 862.32 237.351 862.32C236.316 862.32 235.511 862.672 234.935 863.376C234.359 864.08 234.071 865.072 234.071 866.352C234.071 867.621 234.359 868.613 234.935 869.328C235.511 870.043 236.316 870.4 237.351 870.4ZM250.625 872.128C249.942 872.128 249.601 871.776 249.601 871.072V861.648C249.601 860.944 249.942 860.592 250.625 860.592C251.307 860.592 251.649 860.944 251.649 861.648V865.424H257.457V861.648C257.457 860.944 257.798 860.592 258.481 860.592C259.163 860.592 259.505 860.944 259.505 861.648V871.072C259.505 871.776 259.163 872.128 258.481 872.128C257.798 872.128 257.457 871.776 257.457 871.072V867.136H251.649V871.072C251.649 871.776 251.307 872.128 250.625 872.128ZM267.232 872.16C266.144 872.16 265.189 871.92 264.368 871.44C263.557 870.96 262.928 870.288 262.48 869.424C262.032 868.549 261.808 867.525 261.808 866.352C261.808 865.168 262.032 864.144 262.48 863.28C262.928 862.416 263.557 861.749 264.368 861.28C265.178 860.8 266.133 860.56 267.232 860.56C268.33 860.56 269.285 860.8 270.096 861.28C270.906 861.749 271.536 862.416 271.984 863.28C272.432 864.144 272.656 865.163 272.656 866.336C272.656 867.52 272.432 868.549 271.984 869.424C271.536 870.288 270.906 870.96 270.096 871.44C269.285 871.92 268.33 872.16 267.232 872.16ZM267.232 870.4C268.266 870.4 269.072 870.043 269.648 869.328C270.224 868.613 270.512 867.621 270.512 866.352C270.512 865.072 270.224 864.08 269.648 863.376C269.082 862.672 268.277 862.32 267.232 862.32C266.197 862.32 265.392 862.672 264.816 863.376C264.24 864.08 263.952 865.072 263.952 866.352C263.952 867.621 264.24 868.613 264.816 869.328C265.392 870.043 266.197 870.4 267.232 870.4ZM275.898 872.128C275.28 872.128 274.97 871.808 274.97 871.168V861.552C274.97 860.912 275.29 860.592 275.93 860.592C276.197 860.592 276.405 860.645 276.554 860.752C276.714 860.848 276.858 861.019 276.986 861.264L280.682 868.096L284.378 861.264C284.506 861.019 284.645 860.848 284.794 860.752C284.944 860.645 285.152 860.592 285.418 860.592C286.037 860.592 286.346 860.912 286.346 861.552V871.168C286.346 871.808 286.037 872.128 285.418 872.128C284.8 872.128 284.49 871.808 284.49 871.168V864.4L281.482 869.888C281.376 870.069 281.264 870.203 281.146 870.288C281.029 870.373 280.869 870.416 280.666 870.416C280.464 870.416 280.298 870.373 280.17 870.288C280.042 870.192 279.93 870.059 279.834 869.888L276.826 864.432V871.168C276.826 871.808 276.517 872.128 275.898 872.128ZM290.117 872C289.392 872 289.029 871.637 289.029 870.912V861.808C289.029 861.083 289.392 860.72 290.117 860.72H295.829C296.384 860.72 296.661 860.987 296.661 861.52C296.661 862.075 296.384 862.352 295.829 862.352H290.997V865.456H295.477C296.032 865.456 296.309 865.728 296.309 866.272C296.309 866.816 296.032 867.088 295.477 867.088H290.997V870.368H295.829C296.384 870.368 296.661 870.64 296.661 871.184C296.661 871.728 296.384 872 295.829 872H290.117Z" fill="white"/>
</g>
<path d="M26.968 27.144C26.4987 27.144 26.008 27.0587 25.496 26.888C24.9947 26.7173 24.536 26.472 24.12 26.152C23.9493 26.024 23.8533 25.8693 23.832 25.688C23.8107 25.5067 23.8427 25.3413 23.928 25.192C24.0133 25.032 24.136 24.9253 24.296 24.872C24.4667 24.8187 24.6533 24.856 24.856 24.984C25.2187 25.2507 25.576 25.4427 25.928 25.56C26.2907 25.6773 26.648 25.736 27 25.736C27.992 25.736 28.7493 25.3787 29.272 24.664C29.8053 23.9387 30.072 22.8613 30.072 21.432V20.792C29.8587 21.4427 29.4853 21.9547 28.952 22.328C28.4293 22.6907 27.8213 22.872 27.128 22.872C26.4667 22.872 25.88 22.7173 25.368 22.408C24.8667 22.0987 24.472 21.6773 24.184 21.144C23.896 20.6 23.752 19.9813 23.752 19.288C23.752 18.5627 23.9067 17.9227 24.216 17.368C24.5253 16.8027 24.952 16.3653 25.496 16.056C26.0507 15.736 26.6853 15.576 27.4 15.576C28.7653 15.576 29.816 16.0613 30.552 17.032C31.2987 18.0027 31.672 19.3627 31.672 21.112C31.672 23.0427 31.256 24.5307 30.424 25.576C29.592 26.6213 28.44 27.144 26.968 27.144ZM27.512 21.512C28.1627 21.512 28.6907 21.2987 29.096 20.872C29.5013 20.4453 29.704 19.8907 29.704 19.208C29.704 18.5253 29.5013 17.9707 29.096 17.544C28.6907 17.1173 28.1627 16.904 27.512 16.904C26.8613 16.904 26.3333 17.1173 25.928 17.544C25.5227 17.9707 25.32 18.5253 25.32 19.208C25.32 19.8907 25.5227 20.4453 25.928 20.872C26.3333 21.2987 26.8613 21.512 27.512 21.512ZM34.7137 21.16C34.3937 21.16 34.1377 21.064 33.9457 20.872C33.7644 20.68 33.6737 20.44 33.6737 20.152C33.6737 19.8427 33.7644 19.5973 33.9457 19.416C34.1377 19.224 34.3937 19.128 34.7137 19.128C35.0231 19.128 35.2684 19.224 35.4497 19.416C35.6311 19.5973 35.7218 19.8427 35.7218 20.152C35.7218 20.44 35.6311 20.68 35.4497 20.872C35.2684 21.064 35.0231 21.16 34.7137 21.16ZM34.7137 27.064C34.3937 27.064 34.1377 26.968 33.9457 26.776C33.7644 26.584 33.6737 26.3387 33.6737 26.04C33.6737 25.7413 33.7644 25.5013 33.9457 25.32C34.1377 25.128 34.3937 25.032 34.7137 25.032C35.0231 25.032 35.2684 25.128 35.4497 25.32C35.6311 25.5013 35.7218 25.7413 35.7218 26.04C35.7218 26.3387 35.6311 26.584 35.4497 26.776C35.2684 26.968 35.0231 27.064 34.7137 27.064ZM43.4466 27.112C43.1906 27.112 42.988 27.0427 42.8386 26.904C42.6893 26.7547 42.6146 26.552 42.6146 26.296V24.712H38.3266C38.06 24.712 37.8466 24.6533 37.6866 24.536C37.5266 24.4187 37.4466 24.2427 37.4466 24.008C37.4466 23.8587 37.484 23.704 37.5586 23.544C37.6333 23.384 37.756 23.176 37.9266 22.92L42.5826 16.152C42.7 15.9707 42.8333 15.8373 42.9826 15.752C43.132 15.656 43.3026 15.608 43.4946 15.608C43.7186 15.608 43.9 15.6773 44.0386 15.816C44.188 15.944 44.2626 16.1467 44.2626 16.424V23.32H45.2706C45.772 23.32 46.0226 23.5493 46.0226 24.008C46.0226 24.4773 45.772 24.712 45.2706 24.712H44.2626V26.296C44.2626 26.84 43.9906 27.112 43.4466 27.112ZM42.6146 23.32V18.296L39.1746 23.32H42.6146ZM49.0644 27C48.5844 27 48.3444 26.7653 48.3444 26.296C48.3444 25.8373 48.5844 25.608 49.0644 25.608H51.0164V17.624L49.5124 18.584C49.3097 18.712 49.1177 18.7493 48.9364 18.696C48.7657 18.632 48.6324 18.52 48.5364 18.36C48.451 18.2 48.4244 18.0293 48.4564 17.848C48.499 17.656 48.6217 17.496 48.8244 17.368L51.0324 15.976C51.2137 15.8693 51.3844 15.784 51.5444 15.72C51.715 15.6453 51.875 15.608 52.0244 15.608C52.2057 15.608 52.355 15.6613 52.4724 15.768C52.6004 15.8747 52.6644 16.04 52.6644 16.264V25.608H54.4564C54.947 25.608 55.1924 25.8373 55.1924 26.296C55.1924 26.7653 54.947 27 54.4564 27H49.0644Z" fill="black"/>
<path fill-rule="evenodd" clip-rule="evenodd" d="M353 18H352C351.448 18 351 18.4197 351 18.9375V27.0625C351 27.5803 351.448 28 352 28H353C353.552 28 354 27.5803 354 27.0625V18.9375C354 18.4197 353.552 18 353 18ZM347 20H348C348.552 20 349 20.4298 349 20.96V27.04C349 27.5702 348.552 28 348 28H347C346.448 28 346 27.5702 346 27.04V20.96C346 20.4298 346.448 20 347 20ZM343 22H342C341.448 22 341 22.4477 341 23V27C341 27.5523 341.448 28 342 28H343C343.552 28 344 27.5523 344 27V23C344 22.4477 343.552 22 343 22ZM338 24H337C336.448 24 336 24.4477 336 25V27C336 27.5523 336.448 28 337 28H338C338.552 28 339 27.5523 339 27V25C339 24.4477 338.552 24 338 24Z" fill="black"/>
<path fill-rule="evenodd" clip-rule="evenodd" d="M366.637 19.2773C368.852 19.2774 370.984 20.1289 372.59 21.6557C372.711 21.7735 372.904 21.772 373.023 21.6523L374.179 20.4857C374.239 20.4249 374.273 20.3427 374.272 20.2571C374.272 20.1715 374.237 20.0897 374.176 20.0297C369.961 15.9901 363.311 15.9901 359.096 20.0297C359.035 20.0896 359.001 20.1715 359 20.257C358.999 20.3426 359.033 20.4249 359.093 20.4857L360.25 21.6523C360.369 21.7722 360.562 21.7737 360.683 21.6557C362.289 20.1288 364.42 19.2773 366.637 19.2773ZM366.637 23.0729C367.854 23.0728 369.028 23.5254 369.931 24.3426C370.053 24.4585 370.245 24.456 370.364 24.3369L371.519 23.1702C371.579 23.109 371.613 23.026 371.612 22.9398C371.611 22.8535 371.576 22.7712 371.514 22.7112C368.766 20.1548 364.51 20.1548 361.762 22.7112C361.699 22.7712 361.664 22.8535 361.663 22.9398C361.662 23.0261 361.696 23.1091 361.757 23.1702L362.912 24.3369C363.031 24.456 363.223 24.4585 363.345 24.3426C364.247 23.5259 365.42 23.0734 366.637 23.0729ZM368.95 25.6267C368.951 25.7132 368.917 25.7966 368.856 25.8572L366.858 27.8729C366.8 27.9321 366.72 27.9655 366.637 27.9655C366.553 27.9655 366.473 27.9321 366.415 27.8729L364.417 25.8572C364.356 25.7966 364.322 25.7131 364.323 25.6266C364.325 25.5401 364.363 25.4582 364.427 25.4002C365.703 24.3213 367.571 24.3213 368.846 25.4002C368.91 25.4583 368.948 25.5402 368.95 25.6267Z" fill="black"/>
<path opacity="0.35" d="M382.667 16.5H402.333C403.53 16.5 404.5 17.4704 404.5 18.667V26.333C404.5 27.5296 403.53 28.5 402.333 28.5H382.667C381.47 28.5 380.5 27.5296 380.5 26.333V18.667L380.511 18.4453C380.622 17.3527 381.545 16.5 382.667 16.5Z" stroke="black"/>
<path opacity="0.4" d="M405.65 21V25C406.455 24.6612 406.978 23.8731 406.978 23C406.978 22.1269 406.455 21.3388 405.65 21Z" fill="black"/>
<path d="M382.301 19.6663C382.301 18.93 382.898 18.333 383.634 18.333H401.167C401.904 18.333 402.501 18.93 402.501 19.6663V25.3297C402.501 26.0661 401.904 26.663 401.167 26.663H383.634C382.898 26.663 382.301 26.0661 382.301 25.3297V19.6663Z" fill="black"/>
</g>
<defs>
<filter id="filter0_d_2032_28449" x="4" y="822" width="430" height="106" filterUnits="userSpaceOnUse" color-interpolation-filters="sRGB">
<feFlood flood-opacity="0" result="BackgroundImageFix"/>
<feColorMatrix in="SourceAlpha" type="matrix" values="0 0 0 0 0 0 0 0 0 0 0 0 0 0 0 0 0 0 127 0" result="hardAlpha"/>
<feOffset dx="4" dy="8"/>
<feGaussianBlur stdDeviation="12"/>
<feComposite in2="hardAlpha" operator="out"/>
<feColorMatrix type="matrix" values="0 0 0 0 0.411765 0 0 0 0 0.286275 0 0 0 0 1 0 0 0 0.25 0"/>
<feBlend mode="normal" in2="BackgroundImageFix" result="effect1_dropShadow_2032_28449"/>
<feBlend mode="normal" in="SourceGraphic" in2="effect1_dropShadow_2032_28449" result="shape"/>
</filter>
<clipPath id="clip0_2032_28449">
<rect width="430" height="932" fill="white"/>
</clipPath>
</defs>
</svg>
