<svg width="120" height="105" viewBox="0 0 120 105" fill="none" xmlns="http://www.w3.org/2000/svg">
<ellipse cx="60" cy="52.5" rx="60" ry="52.5" fill="#FF981F"/>
<ellipse cx="60" cy="45.1316" rx="60" ry="45.1316" fill="#FFC107"/>
<path d="M55.1268 14.0308C55.1268 11.0295 52.6893 8.57187 49.6992 8.83068C43.5383 9.36396 37.555 10.8018 32.0907 13.0777C25.0327 16.0175 19.0691 20.2604 14.7534 25.4127C10.4377 30.5649 7.90966 36.4597 7.40393 42.5499C7.04198 46.9085 7.72424 51.2661 9.39856 55.4157C10.5846 58.3552 13.9909 59.4903 16.9765 58.4259C21.0204 56.9841 22.5733 52.108 21.8967 47.8684C21.6522 46.3359 21.5919 44.7842 21.7208 43.2323C22.0748 38.9692 23.8444 34.8428 26.8654 31.2362C29.8864 27.6297 34.0609 24.6596 39.0015 22.6018C42.3454 21.209 45.9668 20.2647 49.7063 19.7997C52.6846 19.4294 55.1268 17.032 55.1268 14.0308Z" fill="#FFDA6A"/>
<path fill-rule="evenodd" clip-rule="evenodd" d="M52.3183 26.6666H67.6835C73.3467 26.6666 76.5 29.93 76.5 35.5216V54.46C76.5 60.1433 73.3467 63.3333 67.6835 63.3333H52.3183C46.745 63.3333 43.5 60.1433 43.5 54.46V35.5216C43.5 29.93 46.745 26.6666 52.3183 26.6666ZM52.8133 35.21V35.1916H58.2932C59.0833 35.1916 59.725 35.8333 59.725 36.6198C59.725 37.4283 59.0833 38.07 58.2932 38.07H52.8133C52.0232 38.07 51.3833 37.4283 51.3833 36.64C51.3833 35.8516 52.0232 35.21 52.8133 35.21ZM52.8133 46.3566H67.1867C67.975 46.3566 68.6167 45.715 68.6167 44.9266C68.6167 44.1383 67.975 43.4948 67.1867 43.4948H52.8133C52.0232 43.4948 51.3833 44.1383 51.3833 44.9266C51.3833 45.715 52.0232 46.3566 52.8133 46.3566ZM52.8133 54.735H67.1867C67.9182 54.6616 68.47 54.0365 68.47 53.305C68.47 52.5533 67.9182 51.93 67.1867 51.8566H52.8133C52.2633 51.8016 51.7317 52.0583 51.4383 52.535C51.145 52.9933 51.145 53.5983 51.4383 54.075C51.7317 54.5333 52.2633 54.8083 52.8133 54.735Z" fill="white"/>
</svg>
