<svg width="120" height="105" viewBox="0 0 120 105" fill="none" xmlns="http://www.w3.org/2000/svg">
<ellipse cx="60" cy="52.5" rx="60" ry="52.5" fill="#FF981F"/>
<ellipse cx="60" cy="45.1316" rx="60" ry="45.1316" fill="#FFC107"/>
<path d="M55.1268 14.0308C55.1268 11.0295 52.6893 8.57187 49.6992 8.83068C43.5383 9.36396 37.555 10.8018 32.0907 13.0777C25.0327 16.0175 19.0691 20.2604 14.7534 25.4127C10.4377 30.5649 7.90966 36.4597 7.40393 42.5499C7.04198 46.9085 7.72424 51.2661 9.39856 55.4157C10.5846 58.3552 13.9909 59.4903 16.9765 58.4259C21.0204 56.9841 22.5733 52.108 21.8967 47.8684C21.6522 46.3359 21.5919 44.7842 21.7208 43.2323C22.0748 38.9692 23.8444 34.8428 26.8654 31.2362C29.8864 27.6297 34.0609 24.6596 39.0015 22.6018C42.3454 21.209 45.9668 20.2647 49.7063 19.7997C52.6846 19.4294 55.1268 17.032 55.1268 14.0308Z" fill="#FFDA6A"/>
<path fill-rule="evenodd" clip-rule="evenodd" d="M52.3183 26.6667H67.6835C73.3467 26.6667 76.5 29.93 76.5 35.5217V54.46C76.5 60.1434 73.3467 63.3334 67.6835 63.3334H52.3183C46.745 63.3334 43.5 60.1434 43.5 54.46V35.5217C43.5 29.93 46.745 26.6667 52.3183 26.6667ZM52.8133 35.21V35.1917H58.2932C59.0833 35.1917 59.725 35.8334 59.725 36.6199C59.725 37.4284 59.0833 38.07 58.2932 38.07H52.8133C52.0232 38.07 51.3833 37.4284 51.3833 36.64C51.3833 35.8517 52.0232 35.21 52.8133 35.21ZM52.8133 46.3567H67.1867C67.975 46.3567 68.6167 45.715 68.6167 44.9267C68.6167 44.1384 67.975 43.4949 67.1867 43.4949H52.8133C52.0232 43.4949 51.3833 44.1384 51.3833 44.9267C51.3833 45.715 52.0232 46.3567 52.8133 46.3567ZM52.8133 54.735H67.1867C67.9182 54.6617 68.47 54.0365 68.47 53.305C68.47 52.5534 67.9182 51.93 67.1867 51.8567H52.8133C52.2633 51.8017 51.7317 52.0584 51.4383 52.535C51.145 52.9934 51.145 53.5984 51.4383 54.075C51.7317 54.5334 52.2633 54.8084 52.8133 54.735Z" fill="white"/>
</svg>
