<svg width="28" height="28" viewBox="0 0 28 28" fill="none" xmlns="http://www.w3.org/2000/svg">
<g clip-path="url(#clip0_7555_9402)">
<path d="M21 2.8875C18.9437 1.61875 16.5812 0.875 14 0.875V2.8875H21Z" fill="#ED4C5C"/>
<path d="M14 4.89995H23.45C22.7062 4.1562 21.875 3.4562 21 2.88745H14V4.89995Z" fill="white"/>
<path d="M14 6.91252H25.0687C24.5875 6.16877 24.0625 5.51252 23.4938 4.90002H14V6.91252Z" fill="#ED4C5C"/>
<path d="M14 8.92498H26.1188C25.8125 8.22498 25.4625 7.52498 25.0687 6.91248H14V8.92498Z" fill="white"/>
<path d="M14 10.9375H26.775C26.6 10.2375 26.3813 9.5813 26.1188 8.92505H14V10.9375Z" fill="#ED4C5C"/>
<path d="M14 12.9937H27.0813C27.0375 12.2937 26.9063 11.6375 26.775 10.9812H14V12.9937Z" fill="white"/>
<path d="M27.0813 12.9938H14V14H0.875C0.875 14.35 0.875 14.6563 0.91875 15.0063H27.0813C27.125 14.6563 27.125 14.35 27.125 14C27.125 13.65 27.125 13.3 27.0813 12.9938Z" fill="#ED4C5C"/>
<path d="M1.2252 17.0187H26.7752C26.9502 16.3625 27.0377 15.7062 27.0814 15.0062H0.918945C0.962695 15.6625 1.0502 16.3625 1.2252 17.0187Z" fill="white"/>
<path d="M1.88086 19.0313H26.1184C26.3809 18.375 26.5996 17.7188 26.7746 17.0188H1.22461C1.39961 17.7188 1.61836 18.375 1.88086 19.0313Z" fill="#ED4C5C"/>
<path d="M2.93086 21.0437H25.0684C25.4621 20.3875 25.8121 19.7312 26.1184 19.0312H1.88086C2.18711 19.7312 2.53711 20.3875 2.93086 21.0437Z" fill="white"/>
<path d="M4.50664 23.0562H23.4941C24.0629 22.4437 24.6316 21.7437 25.0691 21.0437H2.93164C3.36914 21.7875 3.93789 22.4437 4.50664 23.0562Z" fill="#ED4C5C"/>
<path d="M6.95586 25.0688H21.0434C21.9621 24.5 22.7496 23.8 23.4934 23.0563H4.50586C5.24961 23.8438 6.08086 24.5 6.95586 25.0688Z" fill="white"/>
<path d="M13.9998 27.125C16.5811 27.125 18.9873 26.3812 21.0436 25.0687H6.95605C9.0123 26.3812 11.4186 27.125 13.9998 27.125Z" fill="#ED4C5C"/>
<path d="M7 2.8875C6.08125 3.45625 5.25 4.15625 4.50625 4.9C3.89375 5.5125 3.36875 6.2125 2.93125 6.9125C2.5375 7.56875 2.14375 8.225 1.88125 8.925C1.61875 9.58125 1.4 10.2375 1.225 10.9375C1.05 11.5938 0.9625 12.25 0.91875 12.95C0.875 13.3 0.875 13.65 0.875 14H14V0.875C11.4187 0.875 9.05625 1.61875 7 2.8875Z" fill="#428BC1"/>
<path d="M10.9373 1.3125L11.1561 1.96875H11.8123L11.2873 2.40625L11.4623 3.0625L10.9373 2.66875L10.4123 3.0625L10.5873 2.40625L10.0623 1.96875H10.7186L10.9373 1.3125ZM12.6873 3.9375L12.9061 4.59375H13.5623L13.0373 5.03125L13.2123 5.6875L12.6873 5.29375L12.1623 5.6875L12.3373 5.03125L11.8123 4.59375H12.4686L12.6873 3.9375ZM9.1873 3.9375L9.40605 4.59375H10.0623L9.5373 5.03125L9.71231 5.6875L9.1873 5.29375L8.6623 5.6875L8.83731 5.03125L8.3123 4.59375H8.96855L9.1873 3.9375ZM10.9373 6.5625L11.1561 7.21875H11.8123L11.2873 7.65625L11.4623 8.3125L10.9373 7.91875L10.4123 8.3125L10.5873 7.65625L10.0623 7.21875H10.7186L10.9373 6.5625ZM7.4373 6.5625L7.65605 7.21875H8.3123L7.7873 7.65625L7.96231 8.3125L7.4373 7.91875L6.9123 8.3125L7.08731 7.65625L6.5623 7.21875H7.21855L7.4373 6.5625ZM3.9373 6.5625L4.15605 7.21875H4.8123L4.2873 7.65625L4.4623 8.3125L3.9373 7.91875L3.4123 8.3125L3.5873 7.65625L3.0623 7.21875H3.71855L3.9373 6.5625ZM12.6873 9.1875L12.9061 9.84375H13.5623L13.0373 10.2812L13.2123 10.9375L12.6873 10.5437L12.1623 10.9375L12.3373 10.2812L11.8123 9.84375H12.4686L12.6873 9.1875ZM9.1873 9.1875L9.40605 9.84375H10.0623L9.5373 10.2812L9.71231 10.9375L9.1873 10.5437L8.6623 10.9375L8.83731 10.2812L8.3123 9.84375H8.96855L9.1873 9.1875ZM5.6873 9.1875L5.90605 9.84375H6.5623L6.0373 10.2812L6.2123 10.9375L5.6873 10.5437L5.1623 10.9375L5.3373 10.2812L4.8123 9.84375H5.46855L5.6873 9.1875ZM10.9373 11.8125L11.1561 12.4688H11.8123L11.2873 12.9062L11.4623 13.5625L10.9373 13.1687L10.4123 13.5625L10.5873 12.9062L10.0623 12.4688H10.7186L10.9373 11.8125ZM7.4373 11.8125L7.65605 12.4688H8.3123L7.7873 12.9062L7.96231 13.5625L7.4373 13.1687L6.9123 13.5625L7.08731 12.9062L6.5623 12.4688H7.21855L7.4373 11.8125ZM3.9373 11.8125L4.15605 12.4688H4.8123L4.2873 12.9062L4.4623 13.5625L3.9373 13.1687L3.4123 13.5625L3.5873 12.9062L3.0623 12.4688H3.71855L3.9373 11.8125ZM5.1623 5.6875L5.6873 5.29375L6.2123 5.6875L5.99355 5.03125L6.51855 4.59375H5.8623L5.6873 3.9375L5.46855 4.59375H4.85605L5.38105 4.9875L5.1623 5.6875ZM1.6623 10.9375L2.1873 10.5437L2.7123 10.9375L2.49355 10.2812L3.01855 9.84375H2.40605L2.1873 9.1875L1.96855 9.84375H1.53105C1.53105 9.8875 1.4873 9.93125 1.4873 9.975L1.8373 10.2375L1.6623 10.9375Z" fill="white"/>
</g>
<defs>
<clipPath id="clip0_7555_9402">
<rect width="28" height="28" fill="white"/>
</clipPath>
</defs>
</svg>
