<svg width="21" height="27" viewBox="0 0 21 27" fill="none" xmlns="http://www.w3.org/2000/svg">
<path d="M4.07333 8.03509C3.94864 9.36509 3.86114 11.7188 4.64645 12.7207C4.64645 12.7207 4.27676 10.1351 7.59083 6.89103C8.9252 5.58509 9.23364 3.80884 8.7677 2.47666C8.50301 1.72197 8.01958 1.09853 7.59958 0.663218C7.35458 0.40728 7.5427 -0.0149073 7.89926 0.000405249C10.0561 0.0966553 13.5518 0.69603 15.0371 4.42353C15.6889 6.05978 15.7371 7.75072 15.4264 9.47009C15.2296 10.5682 14.5296 13.0095 16.1264 13.3092C17.2661 13.5235 17.8174 12.6179 18.0646 11.966C18.1674 11.6948 18.524 11.627 18.7164 11.8435C20.6414 14.0332 20.8055 16.6123 20.4074 18.8326C19.6374 23.1245 15.2908 26.2482 10.9727 26.2482C5.57833 26.2482 1.28426 23.1617 0.170825 17.5748C-0.277612 15.3195 -0.0501117 10.857 3.42801 7.70697C3.68614 7.47072 4.10833 7.68072 4.07333 8.03509Z" fill="url(#paint0_radial_7555_9421)"/>
<path d="M12.9441 16.0615C10.9557 13.5021 11.846 10.5818 12.3338 9.41804C12.3994 9.26491 12.2244 9.12054 12.0866 9.2146C11.2313 9.79647 9.47913 11.1658 8.6632 13.093C7.55851 15.6983 7.63726 16.9737 8.29132 18.5312C8.68507 19.4696 8.22788 19.6687 7.9982 19.7037C7.77507 19.7387 7.56945 19.5899 7.40538 19.4346C6.9334 18.9815 6.59707 18.4058 6.43413 17.7721C6.39913 17.6365 6.22195 17.5993 6.14101 17.7108C5.52851 18.5574 5.21132 19.9158 5.19601 20.8762C5.14788 23.8446 7.60007 26.2508 10.5663 26.2508C14.3048 26.2508 17.0282 22.1165 14.8801 18.6602C14.2566 17.654 13.6704 16.9955 12.9441 16.0615Z" fill="url(#paint1_radial_7555_9421)"/>
<defs>
<radialGradient id="paint0_radial_7555_9421" cx="0" cy="0" r="1" gradientTransform="matrix(-15.4409 -0.0670135 -0.110094 25.3354 9.90427 26.3162)" gradientUnits="userSpaceOnUse">
<stop offset="0.314" stop-color="#FF9800"/>
<stop offset="0.662" stop-color="#FF6D00"/>
<stop offset="0.972" stop-color="#F44336"/>
</radialGradient>
<radialGradient id="paint1_radial_7555_9421" cx="0" cy="0" r="1" gradientTransform="matrix(-0.163184 16.1553 12.158 0.122792 10.7719 10.9511)" gradientUnits="userSpaceOnUse">
<stop offset="0.214" stop-color="#FFF176"/>
<stop offset="0.328" stop-color="#FFF27D"/>
<stop offset="0.487" stop-color="#FFF48F"/>
<stop offset="0.672" stop-color="#FFF7AD"/>
<stop offset="0.793" stop-color="#FFF9C4"/>
<stop offset="0.822" stop-color="#FFF8BD" stop-opacity="0.804"/>
<stop offset="0.863" stop-color="#FFF6AB" stop-opacity="0.529"/>
<stop offset="0.91" stop-color="#FFF38D" stop-opacity="0.209"/>
<stop offset="0.941" stop-color="#FFF176" stop-opacity="0"/>
</radialGradient>
</defs>
</svg>
