<svg width="27" height="27" viewBox="0 0 27 27" fill="none" xmlns="http://www.w3.org/2000/svg">
<path d="M7.09967 7.02023L4.00655 5.03836C3.94419 5.00014 3.89131 4.94829 3.85186 4.8867C3.81242 4.8251 3.78744 4.75538 3.77881 4.68275C3.77018 4.61012 3.77812 4.53648 3.80203 4.46736C3.82594 4.39824 3.8652 4.33544 3.91686 4.28367L5.07842 3.12211C5.30155 2.89898 5.6778 2.94711 5.83749 3.22055L7.77124 6.36398C8.02499 6.79711 7.52842 7.28273 7.09967 7.02023ZM4.39592 16.5534L0.80405 16.6255C0.731014 16.6271 0.659286 16.6452 0.594254 16.6785C0.529223 16.7118 0.472579 16.7594 0.42858 16.8177C0.38458 16.876 0.354368 16.9435 0.340215 17.0152C0.326061 17.0869 0.328334 17.1608 0.346862 17.2315L0.764675 18.8196C0.845612 19.1259 1.19342 19.2724 1.46905 19.1193L4.64311 17.459C5.08061 17.2118 4.89905 16.5424 4.39592 16.5534ZM12.739 22.6543L11.9515 26.1521C11.8794 26.4562 12.109 26.7493 12.4219 26.7493H14.0647C14.3819 26.7493 14.6116 26.4496 14.5328 26.1434L13.6775 22.6455C13.5506 22.1577 12.8572 22.1643 12.739 22.6543ZM19.1484 7.02023L22.2416 5.03836C22.5084 4.8743 22.5522 4.50461 22.3312 4.28367L21.1697 3.12211C21.1173 3.06996 21.0537 3.0305 20.9837 3.00675C20.9138 2.983 20.8393 2.9756 20.766 2.9851C20.6927 2.9946 20.6226 3.02077 20.561 3.06158C20.4994 3.10239 20.4479 3.15677 20.4106 3.22055L18.4769 6.36398C18.2231 6.79711 18.7197 7.28273 19.1484 7.02023ZM21.8522 16.5534L25.444 16.6255C25.5171 16.6271 25.5888 16.6452 25.6538 16.6785C25.7189 16.7118 25.7755 16.7594 25.8195 16.8177C25.8635 16.876 25.8937 16.9435 25.9079 17.0152C25.922 17.0869 25.9198 17.1608 25.9012 17.2315L25.4834 18.8196C25.4645 18.891 25.4296 18.9571 25.3812 19.0129C25.3329 19.0687 25.2724 19.1127 25.2045 19.1416C25.1366 19.1706 25.0629 19.1836 24.9892 19.1797C24.9155 19.1758 24.8436 19.1552 24.779 19.1193L21.605 17.459C21.1675 17.2118 21.3491 16.5424 21.8522 16.5534Z" fill="#FFC107"/>
<path d="M14.0106 0.549336L16.955 7.26496C17.0657 7.5177 17.2423 7.73608 17.4662 7.8973C17.6902 8.05852 17.9533 8.15668 18.2281 8.18152L25.4009 8.82465C26.2125 8.94277 26.5362 9.93809 25.9478 10.5112L20.5446 15.0503C20.1071 15.4178 19.9081 15.9953 20.0284 16.5531L21.599 23.9053C21.7368 24.7125 20.8903 25.3293 20.164 24.9465L13.9034 21.2803C13.6673 21.1417 13.3984 21.0686 13.1246 21.0686C12.8509 21.0686 12.582 21.1417 12.3459 21.2803L6.08527 24.9443C5.36121 25.325 4.51246 24.7103 4.65027 23.9031L6.2209 16.5509C6.33902 15.9931 6.14215 15.4156 5.70465 15.0481L0.299334 10.5134C-0.286916 9.94246 0.0368341 8.94496 0.846209 8.82684L8.01902 8.18371C8.29384 8.15887 8.55695 8.06071 8.78089 7.89949C9.00484 7.73827 9.1814 7.51989 9.29215 7.26715L12.2365 0.551524C12.6018 -0.183476 13.6475 -0.183476 14.0106 0.549336Z" fill="#FDD835"/>
<path d="M13.7965 7.66732L13.2977 2.71919C13.278 2.44357 13.2212 1.97107 13.663 1.97107C14.013 1.97107 14.2033 2.69951 14.2033 2.69951L15.6996 6.67201C16.264 8.18357 16.0321 8.70201 15.4874 9.00826C14.8618 9.35826 13.9387 9.08482 13.7965 7.66732Z" fill="#FFFF8D"/>
<path d="M19.9676 14.6103L24.2594 11.2612C24.4716 11.0841 24.8544 10.8019 24.5482 10.4803C24.3054 10.2266 23.6491 10.5919 23.6491 10.5919L19.8932 12.0597C18.7732 12.4469 18.0294 13.02 17.9638 13.7419C17.8785 14.7044 18.7426 15.4459 19.9676 14.6103Z" fill="#F4B400"/>
</svg>
