<svg width="120" height="105" viewBox="0 0 120 105" fill="none" xmlns="http://www.w3.org/2000/svg">
<ellipse cx="60" cy="52.5" rx="60" ry="52.5" fill="#FF981F"/>
<ellipse cx="60" cy="45.1316" rx="60" ry="45.1316" fill="#FFC107"/>
<path d="M55.1268 14.0307C55.1268 11.0295 52.6893 8.57184 49.6992 8.83065C43.5383 9.36393 37.555 10.8017 32.0907 13.0777C25.0327 16.0175 19.0691 20.2603 14.7534 25.4126C10.4377 30.5649 7.90966 36.4596 7.40393 42.5498C7.04198 46.9084 7.72424 51.2661 9.39856 55.4157C10.5846 58.3551 13.9909 59.4902 16.9765 58.4258C21.0204 56.9841 22.5733 52.108 21.8967 47.8684C21.6522 46.3359 21.5919 44.7842 21.7208 43.2323C22.0748 38.9691 23.8444 34.8428 26.8654 31.2362C29.8864 27.6296 34.0609 24.6596 39.0015 22.6018C42.3454 21.209 45.9668 20.2646 49.7063 19.7997C52.6846 19.4294 55.1268 17.032 55.1268 14.0307Z" fill="#FFDA6A"/>
<path fill-rule="evenodd" clip-rule="evenodd" d="M55.1901 59.7178L71.2984 38.8866C72.1739 37.7633 72.4852 36.4645 72.1933 35.1421C71.9404 33.94 71.2012 32.7969 70.0923 31.9298L67.3881 29.7816C65.0341 27.9094 62.1159 28.1065 60.4428 30.2546L58.6335 32.6018C58.4001 32.8955 58.4584 33.329 58.7502 33.5655C58.7502 33.5655 63.3221 37.2312 63.4193 37.31C63.7306 37.6056 63.9641 37.9998 64.0224 38.4728C64.1197 39.399 63.4777 40.2662 62.5244 40.3844C62.077 40.4436 61.649 40.3056 61.3377 40.0494L56.5324 36.2261C56.299 36.0507 55.9488 36.0881 55.7542 36.3246L44.3344 51.1055C43.5951 52.0318 43.3422 53.2339 43.5951 54.3967L45.0542 60.7229C45.1321 61.058 45.4239 61.2944 45.7741 61.2944L52.1941 61.2156C53.3613 61.1959 54.4508 60.6638 55.1901 59.7178ZM64.1794 57.7476H74.6479C75.6693 57.7476 76.5 58.5892 76.5 59.6238C76.5 60.6604 75.6693 61.5 74.6479 61.5H64.1794C63.1581 61.5 62.3274 60.6604 62.3274 59.6238C62.3274 58.5892 63.1581 57.7476 64.1794 57.7476Z" fill="white"/>
</svg>
