<svg width="120" height="105" viewBox="0 0 120 105" fill="none" xmlns="http://www.w3.org/2000/svg">
<ellipse cx="60" cy="52.5" rx="60" ry="52.5" fill="#BDBDBD"/>
<ellipse cx="60" cy="45.1316" rx="60" ry="45.1316" fill="#E0E0E0"/>
<path d="M55.1268 14.0308C55.1268 11.0295 52.6893 8.57187 49.6992 8.83068C43.5383 9.36396 37.555 10.8018 32.0907 13.0777C25.0327 16.0175 19.0691 20.2604 14.7534 25.4127C10.4377 30.5649 7.90966 36.4597 7.40393 42.5499C7.04198 46.9085 7.72424 51.2661 9.39856 55.4157C10.5846 58.3552 13.9909 59.4903 16.9765 58.4259C21.0204 56.9841 22.5733 52.108 21.8967 47.8684C21.6522 46.3359 21.5919 44.7842 21.7208 43.2323C22.0748 38.9692 23.8444 34.8428 26.8654 31.2362C29.8864 27.6297 34.0609 24.6596 39.0015 22.6018C42.3454 21.209 45.9668 20.2647 49.7063 19.7997C52.6846 19.4294 55.1268 17.032 55.1268 14.0308Z" fill="#EEEEEE"/>
<path fill-rule="evenodd" clip-rule="evenodd" d="M70.1253 36.5593V39.3704C73.2829 40.356 75.5837 43.2145 75.5837 46.6287V55.6797C75.5837 59.9064 72.0795 63.3333 67.7594 63.3333H52.2431C47.9211 63.3333 44.417 59.9064 44.417 55.6797V46.6287C44.417 43.2145 46.7196 40.356 49.8754 39.3704V36.5593C49.894 31.0937 54.4209 26.6666 59.9724 26.6666C65.5984 26.6666 70.1253 31.0937 70.1253 36.5593ZM60.0096 29.8549C63.7914 29.8549 66.8652 32.8609 66.8652 36.5593V38.9751H53.1355V36.5229C53.1541 32.8427 56.2279 29.8549 60.0096 29.8549ZM61.6304 53.1673C61.6304 54.06 60.9038 54.7706 59.991 54.7706C59.0968 54.7706 58.3703 54.06 58.3703 53.1673V49.1228C58.3703 48.2483 59.0968 47.5378 59.991 47.5378C60.9038 47.5378 61.6304 48.2483 61.6304 49.1228V53.1673Z" fill="#9E9E9E"/>
</svg>
