<svg width="128" height="128" viewBox="0 0 128 128" fill="none" xmlns="http://www.w3.org/2000/svg">
<path d="M97.1202 59.35C99.3402 57.52 112.16 49.59 119.18 42.91C124.66 37.69 126.78 24.06 118.35 17.43C107.39 8.81998 96.8702 17.86 96.8702 17.86C96.8702 17.86 95.9502 12.75 89.5502 9.74998C81.4902 5.96998 71.2802 4.55998 61.8902 4.67998C52.7902 4.78998 44.4102 5.88998 36.9702 9.53998C30.3102 12.81 29.9102 17.47 29.9102 17.47C29.9102 17.47 21.1702 9.11998 10.4602 15.9C-0.239786 22.69 2.83021 36.29 7.98021 42C14.6902 49.44 22.7502 53.23 26.4102 55.97C30.0602 58.71 33.5602 61.32 33.5602 63.67C33.5602 66.02 32.5202 66.54 32.1202 66.41C31.7302 66.28 31.0402 63.99 29.2502 64.97C26.8102 66.32 27.5502 71.76 32.6402 72.28C37.5702 72.79 38.5102 67.58 38.5102 67.58L39.2902 62.49L47.3802 68.1L56.2502 75.41L55.9902 81.67C55.9902 81.67 55.6002 86.5 53.2502 90.68C50.9002 94.86 47.1202 99.03 47.1202 99.03L47.0002 102.81L79.8902 102.03L78.8502 98.38C78.8502 98.38 74.6102 93.72 72.0602 88.72C70.2402 85.14 69.9502 81.53 69.9502 81.53L69.8702 72.55L86.9402 62.09C86.9402 62.09 88.7702 63.53 88.5102 64.05C88.2502 64.57 88.1902 69.9 92.2902 71.88C96.3402 73.84 99.6002 71.36 99.2102 67.96C98.8202 64.57 96.7302 65.74 96.0802 66.26C95.4302 66.78 93.9902 66.91 93.6002 64.95C93.2002 63.01 94.9002 61.18 97.1202 59.35ZM13.0902 40.89L9.18021 28.99L13.9102 22.8L19.2102 21.25C19.2102 21.25 25.9802 26.3 26.2202 26.71C26.4602 27.12 30.5402 35.51 30.5402 35.51L35.9202 54.99L13.0902 40.89ZM89.9502 56.54C90.0302 56.13 95.0002 35.67 95.0002 35.67C95.0002 35.43 98.5002 33.8 98.5002 33.47C98.5002 33.14 104.86 22.79 104.86 22.79L115.46 23.2L117.66 33.71L112.36 42.43C112.37 42.44 89.8702 56.94 89.9502 56.54Z" fill="#FEC417"/>
<path d="M119.92 30.64C119.14 21.32 109.92 19.09 106.13 20.44C102.34 21.79 99.8804 24.32 99.0404 27.92C98.3604 30.83 97.6804 32.77 96.9004 33.07C96.0404 33.39 95.2504 33.26 95.2504 33.26C95.2504 33.26 95.1104 26.96 95.1504 24.42C95.2504 19.18 96.8504 17.84 96.8504 17.84C96.8504 17.84 96.5104 16.07 95.8304 15.09C95.1504 14.12 93.8904 12.86 93.8904 12.86C93.8904 12.86 94.1804 15.38 92.9204 15.97C91.6604 16.56 90.3004 15.68 90.3004 15.68L91.5604 20.92C91.5604 20.92 89.5204 47.04 89.3304 47.62C89.1404 48.2 81.4704 61.5 81.4704 61.5C81.4704 61.5 77.0004 65.68 74.8704 66.65C72.7304 67.62 70.8904 70.15 62.6404 70.24C54.3904 70.34 47.3004 63.83 47.3004 63.83L40.2104 57.03L34.9704 41.59L34.1904 25.86L34.5204 20.14L34.7504 17.75L34.3804 16.54C34.3804 16.54 33.7004 17.22 32.4404 16.93C31.1804 16.64 30.6904 14.99 30.6904 14.99C30.6904 14.99 30.2004 15.77 30.1104 16.16C30.0104 16.55 29.9104 17.45 29.9104 17.45C29.9104 17.45 31.2704 18.88 31.5604 20.92C31.8504 22.96 31.4604 31.41 30.0104 31.21C28.5504 31.02 29.0304 23.93 23.5004 21.21C18.7104 18.85 11.5604 19.56 8.64038 25.48C5.73038 31.4 7.86038 38.39 16.9904 44.9C26.1204 51.41 35.8404 56.88 37.3804 62.1C39.2204 68.31 35.0504 72 35.0504 72C35.0504 72 38.0804 71.58 39.5704 68.33C40.0504 67.28 40.2304 65.75 40.3004 64.84C43.7504 69.34 48.3404 73.15 54.4204 74.99C56.7204 75.78 59.3104 76.18 62.9104 76.18C63.4304 76.18 63.9404 76.16 64.4504 76.14C68.6604 75.99 72.2604 75.2 75.7504 73.47C80.4604 71.29 84.1104 67.96 86.9304 64.18C86.8504 65.08 87.4004 67.32 88.4504 69.09C90.2904 72.2 93.4004 72.39 93.4004 72.39C93.4004 72.39 89.1304 69.87 90.0004 63.85C90.8704 57.83 94.8504 55.69 100.87 51.81C106.91 47.92 120.69 39.96 119.92 30.64ZM21.2704 43.85C18.5604 41.94 13.8104 39.39 11.8504 35.5C9.24038 30.31 11.3604 24.04 16.3204 23.27C26.6204 21.65 26.8104 34.44 27.4904 35.99C28.1704 37.54 30.1104 37.64 30.1104 37.64C30.1104 37.64 30.1804 38.5 30.4604 40.16C30.4704 40.21 30.4804 40.25 30.4804 40.3L30.5104 40.45C30.7004 41.58 30.9704 42.99 31.3504 44.6L31.3804 44.72C31.5904 45.63 31.8104 46.49 32.0404 47.28C32.5004 48.94 33.0604 50.73 33.7504 52.57C32.7504 51.89 27.0204 47.92 21.2704 43.85ZM114.58 36.66C112.43 40.14 108.08 42.73 104.87 44.91C100.73 47.72 94.5704 51.94 92.8304 53.12C93.2304 52.06 93.5804 51.01 93.9004 49.98C94.4204 48.62 94.9704 46.96 95.3504 45.17C96.3504 40.47 96.5204 36.36 96.5204 36.36C96.5204 36.36 98.5604 36.94 99.8204 35.58C101.08 34.22 101.55 30 102.73 28.01C104.57 24.9 108.26 21.7 113.8 25.58C117 27.83 117.12 32.54 114.58 36.66ZM60.5204 79.31L66.1704 79.24C66.1704 79.24 66.3204 85.41 67.2104 90.01C68.1004 94.62 69.2904 99.74 69.2904 99.74C69.2904 99.74 57.7804 103.6 57.8504 99.44C57.9204 95.28 59.6304 87.18 59.6304 87.18C59.6304 87.18 60.6704 77.53 60.5204 79.31Z" fill="#FFA828"/>
<path d="M51.0396 15.19C51.0396 15.19 57.3296 14.48 63.1796 14.57C69.0296 14.66 75.0496 15.81 75.0496 15.81C75.0496 15.81 74.6996 35.39 73.6296 46.38C72.5696 57.37 68.4096 65.6 67.2996 67.93C66.2296 70.19 65.4496 71.4 65.4496 71.4L59.8096 70.74L50.0596 51.16L51.0396 15.19Z" fill="#FFA828"/>
<path d="M43.51 18.12C43.51 18.12 45.28 17.23 47.85 16.26C50.18 15.38 52.28 15.11 52.28 15.11C52.28 15.11 52.34 28.09 52.55 37.35C52.73 45.24 55.65 58.17 57.07 61.63C58.49 65.09 61.05 70.37 61.05 70.37C61.05 70.37 55.9 69.63 52.73 65.61C51.06 63.49 43.25 47.09 42.98 36.28C42.71 25.47 43.77 17.85 43.51 18.12Z" fill="#FFEFAB"/>
<path d="M40.5802 19.62C40.4002 20.15 38.9902 31.32 41.2002 41.68C43.4102 52.04 46.6802 59.13 48.8402 61.94C50.7602 64.43 52.0102 65.61 52.7202 65.61C53.4302 65.61 49.8002 57.02 48.1102 50.28C46.4302 43.55 45.5402 35.48 45.3602 31.5C45.1802 27.51 45.0102 17.23 45.0102 17.23C45.0102 17.23 43.0602 18.12 42.6202 18.38C42.1802 18.65 40.5802 19.62 40.5802 19.62Z" fill="#FFFCFD"/>
<path d="M53.3398 99.01C53.3398 99.01 57.1498 92.81 57.9498 88.11C58.7498 83.41 59.1898 79.25 59.1898 79.25L61.5498 79.35C61.5498 79.35 61.3198 86.16 61.0498 90.77C60.7798 95.38 59.9898 99.9 59.9898 99.9L53.3398 99.01Z" fill="#FFEFAB"/>
<path d="M56.27 75.41C56.27 75.41 58.04 73.68 62.91 73.68C67.78 73.68 69.87 75.55 69.87 75.55L70 81.56C70 81.56 66.76 80.55 62.82 80.5C59.54 80.46 56.01 81.68 56.01 81.68L56.27 75.41ZM35 15.72C35.82 14.96 43.68 9.05998 62.29 8.89998C82.31 8.71998 89.82 14.52 90.29 14.84C90.82 15.19 91.44 16.79 91.18 17.5C90.91 18.21 90.38 18.47 88.88 17.85C87.37 17.23 79.93 11.8 62.03 12.36C44.84 12.89 37.55 18.12 36.78 18.56C36.16 18.91 35.01 19 34.48 18.29C33.94 17.59 34.47 16.22 35 15.72ZM91.18 19.89C88.88 20.07 90.47 38.59 85.6 50.19C80.38 62.6 73.72 66.14 73.99 66.85C74.26 67.56 80.78 65.59 84.89 59.76C88.7 54.36 91 49.57 92.07 43.19C93.12 36.81 93.74 19.69 91.18 19.89ZM34.51 22.01C33.93 21.98 34.52 31.22 33.58 35.28C33.22 36.84 32.34 37.16 32.25 37.51C32.16 37.86 34.18 49.75 37.57 54.97C40.85 60.02 47.32 66.31 48.38 65.25C49.44 64.19 43.68 60.64 39.79 52.93C37.55 48.51 35.27 41.85 35.18 34.23C35.12 29.19 35.75 22.08 34.51 22.01Z" fill="#D1701C"/>
<path d="M86.7699 112.71L86.7599 98.42H40.8899C41.0299 98.42 40.9199 110.04 40.8999 112.76H34.3799V123.11H92.6299V112.76L86.7699 112.71Z" fill="#865C50"/>
<path d="M55.5896 105.93C54.4596 105.88 53.1596 106.11 53.1096 107.51C53.0596 108.91 53.0596 112.96 53.0596 113.73C53.0596 114.5 53.6896 115.17 55.2696 115.22C56.8496 115.27 71.6796 115.22 72.7196 115.22C73.7596 115.22 74.2996 114.32 74.3396 113.42C74.3896 112.52 74.2896 108.73 74.2896 107.7C74.2896 105.99 72.7596 105.99 71.7196 105.99C70.5996 105.97 55.5896 105.93 55.5896 105.93Z" fill="#FCC219"/>
<path d="M53.3014 48C52.7894 48 52.4134 47.888 52.1734 47.664C51.9494 47.424 51.8374 47.08 51.8374 46.632C51.8374 46.36 51.9094 46.096 52.0534 45.84C52.1974 45.584 52.4054 45.312 52.6774 45.024L57.5014 39.888C58.2374 39.12 58.7654 38.424 59.0854 37.8C59.4054 37.16 59.5654 36.52 59.5654 35.88C59.5654 34.248 58.5814 33.432 56.6134 33.432C56.0694 33.432 55.5254 33.512 54.9814 33.672C54.4374 33.816 53.8854 34.072 53.3254 34.44C52.9734 34.68 52.6454 34.752 52.3414 34.656C52.0374 34.56 51.8054 34.368 51.6454 34.08C51.4854 33.776 51.4294 33.456 51.4774 33.12C51.5414 32.784 51.7494 32.496 52.1014 32.256C52.7894 31.792 53.5574 31.44 54.4054 31.2C55.2694 30.96 56.1334 30.84 56.9974 30.84C58.8054 30.84 60.1894 31.248 61.1494 32.064C62.1254 32.88 62.6134 34.048 62.6134 35.568C62.6134 36.592 62.3654 37.576 61.8694 38.52C61.3894 39.464 60.6294 40.48 59.5894 41.568L55.8694 45.456H62.1334C63.0134 45.456 63.4534 45.872 63.4534 46.704C63.4534 47.568 63.0134 48 62.1334 48H53.3014ZM71.844 48.24C70.996 48.24 70.132 48.128 69.252 47.904C68.372 47.68 67.564 47.336 66.828 46.872C66.444 46.632 66.212 46.344 66.132 46.008C66.068 45.656 66.116 45.336 66.276 45.048C66.436 44.744 66.668 44.544 66.972 44.448C67.292 44.336 67.652 44.392 68.052 44.616C68.644 44.952 69.244 45.208 69.852 45.384C70.46 45.56 71.108 45.648 71.796 45.648C72.804 45.648 73.588 45.392 74.148 44.88C74.724 44.352 75.012 43.648 75.012 42.768C75.012 41.872 74.74 41.152 74.196 40.608C73.652 40.048 72.908 39.768 71.964 39.768C71.452 39.768 70.956 39.856 70.476 40.032C69.996 40.192 69.524 40.48 69.06 40.896C68.916 41.024 68.732 41.152 68.508 41.28C68.284 41.392 68.044 41.448 67.788 41.448C66.972 41.448 66.564 41.056 66.564 40.272V32.424C66.564 31.528 67.012 31.08 67.908 31.08H75.804C76.7 31.08 77.148 31.504 77.148 32.352C77.148 33.2 76.7 33.624 75.804 33.624H69.564V38.208C70.412 37.568 71.452 37.248 72.684 37.248C73.756 37.248 74.684 37.48 75.468 37.944C76.268 38.392 76.884 39.024 77.316 39.84C77.764 40.64 77.988 41.576 77.988 42.648C77.988 43.752 77.74 44.728 77.244 45.576C76.748 46.408 76.036 47.064 75.108 47.544C74.196 48.008 73.108 48.24 71.844 48.24Z" fill="#424242"/>
</svg>
