<svg width="200" height="297" viewBox="0 0 200 297" fill="none" xmlns="http://www.w3.org/2000/svg">
<path d="M13.333 96.5335C13.333 57.3126 13.333 37.7022 25.5174 25.5179C37.7017 13.3335 57.3122 13.3335 96.533 13.3335H103.466C142.687 13.3335 162.298 13.3335 174.482 25.5179C186.666 37.7022 186.666 57.3126 186.666 96.5335V103.467C186.666 142.688 186.666 162.298 174.482 174.482C162.298 186.667 142.687 186.667 103.466 186.667H96.533C57.3122 186.667 37.7017 186.667 25.5174 174.482C13.333 162.298 13.333 142.688 13.333 103.467V96.5335Z" fill="#6949FF"/>
<path d="M46.6201 110.589C46.6201 134.447 65.9607 153.787 89.8185 153.787H109.954C133.812 153.787 153.153 134.447 153.153 110.589C153.153 86.731 133.812 67.3904 109.954 67.3904H89.8185C65.9607 67.3904 46.6201 86.731 46.6201 110.589Z" fill="#673AB3"/>
<path d="M88.2285 106.385C89.5276 111.552 95.3808 113.909 100.271 114.172C104.263 114.391 114.269 112.187 113.553 106.516C113.437 105.553 112.583 104.494 111.459 104.918C109.539 105.64 108.802 107.487 107.065 108.559C105.168 109.742 102.869 110.172 100.657 110.15C96.6579 110.099 92.4104 108.654 89.8414 105.443C89.2065 104.648 88.0096 105.523 88.2285 106.385Z" fill="#133441"/>
<path d="M34.0893 93.3352C34.6002 105.027 44.4966 114.091 56.203 113.58C67.9021 113.077 76.9812 103.195 76.4704 91.5033C75.9668 79.8188 66.0703 70.7544 54.3639 71.2579C42.6575 71.7688 33.5857 81.6507 34.0893 93.3352Z" fill="white"/>
<path d="M64.7272 100.626C63.4136 102.115 61.3555 102.436 60.1221 101.356C58.8887 100.268 58.947 98.1882 60.2534 96.7067C61.567 95.2178 63.6251 94.8967 64.8585 95.9768C66.0919 97.0643 66.0336 99.1443 64.7272 100.626ZM53.4807 90.9264C51.2182 93.4881 47.6567 94.0501 45.5256 92.1744C43.3945 90.3061 43.4966 86.7081 45.7591 84.1391C48.0142 81.5774 51.5758 81.0154 53.7142 82.8838C55.8453 84.7594 55.7431 88.3575 53.4807 90.9264ZM69.8652 91.7876C69.5149 83.7377 62.6983 77.4977 54.6337 77.848C46.5691 78.191 40.3219 85.0003 40.6722 93.0502C41.0226 101.1 47.8391 107.348 55.9036 106.997C63.9609 106.647 70.2156 99.8376 69.8652 91.7876Z" fill="#133441"/>
<path d="M125.332 93.3352C125.843 105.027 135.74 114.091 147.446 113.58C159.145 113.077 168.224 103.195 167.713 91.5033C167.21 79.8188 157.313 70.7544 145.607 71.2579C133.901 71.7688 124.829 81.6507 125.332 93.3352Z" fill="white"/>
<path d="M156.948 100.1C155.642 101.582 153.577 101.91 152.343 100.83C151.11 99.7427 151.176 97.6627 152.482 96.1739C153.788 94.6923 155.846 94.3639 157.08 95.4514C158.313 96.5315 158.255 98.6188 156.948 100.1ZM144.921 90.0726C142.359 92.3277 138.754 92.4445 136.871 90.3134C134.995 88.1896 135.55 84.6354 138.112 82.3729C140.681 80.1104 144.279 80.001 146.162 82.1247C148.044 84.2485 147.49 87.8101 144.921 90.0726ZM161.108 91.7876C160.758 83.7377 153.942 77.4977 145.877 77.848C137.82 78.191 131.565 85.0003 131.915 93.0502C132.258 101.1 139.082 107.348 147.147 106.997C155.204 106.647 161.459 99.8376 161.108 91.7876Z" fill="#133441"/>
<path d="M131.098 52.5234C130.609 56.2455 137.141 58.4204 144.461 59.2305C151.022 59.9603 157.35 61.2521 158.853 56.4937C161.955 46.714 132.587 41.3279 131.098 52.5234Z" fill="#133441"/>
<path d="M42.9277 56.4057C44.402 61.1642 50.7369 59.9162 57.298 59.2375C64.6327 58.4784 71.1793 56.34 70.7122 52.6179C69.3037 41.4151 39.8989 46.6042 42.9277 56.4057Z" fill="#133441"/>
<path d="M169.332 119.193C169.332 121.915 165.209 124.119 160.115 124.119C155.028 124.119 150.904 121.915 150.904 119.193C150.904 116.471 155.028 114.267 160.115 114.267C165.209 114.267 169.332 116.471 169.332 119.193Z" fill="#A592FF"/>
<path d="M49.0941 119.193C49.0941 121.915 44.9707 124.119 39.8765 124.119C34.7896 124.119 30.666 121.915 30.666 119.193C30.666 116.471 34.7896 114.267 39.8765 114.267C44.9707 114.267 49.0941 116.471 49.0941 119.193Z" fill="#A592FF"/>
<path d="M36.5069 274C35.4509 274 34.6349 273.728 34.0589 273.184C33.5149 272.608 33.2429 271.792 33.2429 270.736V243.424C33.2429 242.368 33.5149 241.568 34.0589 241.024C34.6349 240.448 35.4509 240.16 36.5069 240.16H53.6429C54.4429 240.16 55.0509 240.368 55.4669 240.784C55.9149 241.2 56.1389 241.792 56.1389 242.56C56.1389 243.36 55.9149 243.984 55.4669 244.432C55.0509 244.848 54.4429 245.056 53.6429 245.056H39.1469V254.368H52.5869C53.4189 254.368 54.0429 254.576 54.4589 254.992C54.8749 255.408 55.0829 256.016 55.0829 256.816C55.0829 257.616 54.8749 258.224 54.4589 258.64C54.0429 259.056 53.4189 259.264 52.5869 259.264H39.1469V269.104H53.6429C54.4429 269.104 55.0509 269.312 55.4669 269.728C55.9149 270.144 56.1389 270.752 56.1389 271.552C56.1389 272.352 55.9149 272.96 55.4669 273.376C55.0509 273.792 54.4429 274 53.6429 274H36.5069ZM69.3235 274.48C66.6675 274.48 64.6675 273.728 63.3235 272.224C61.9795 270.688 61.3075 268.448 61.3075 265.504V242.8C61.3075 241.808 61.5635 241.056 62.0755 240.544C62.5875 240.032 63.3235 239.776 64.2835 239.776C65.2435 239.776 65.9795 240.032 66.4915 240.544C67.0355 241.056 67.3075 241.808 67.3075 242.8V265.216C67.3075 266.688 67.6115 267.776 68.2195 268.48C68.8595 269.184 69.7555 269.536 70.9075 269.536C71.1635 269.536 71.4035 269.536 71.6275 269.536C71.8515 269.504 72.0755 269.472 72.2995 269.44C72.7475 269.376 73.0515 269.504 73.2115 269.824C73.3715 270.112 73.4515 270.72 73.4515 271.648C73.4515 272.448 73.2915 273.072 72.9715 273.52C72.6515 273.968 72.1235 274.24 71.3875 274.336C71.0675 274.368 70.7315 274.4 70.3795 274.432C70.0275 274.464 69.6755 274.48 69.3235 274.48ZM79.6116 274.336C78.6516 274.336 77.9156 274.048 77.4036 273.472C76.8916 272.896 76.6356 272.096 76.6356 271.072V253.456C76.6356 252.4 76.8916 251.6 77.4036 251.056C77.9156 250.48 78.6516 250.192 79.6116 250.192C80.5716 250.192 81.3076 250.48 81.8196 251.056C82.3636 251.6 82.6356 252.4 82.6356 253.456V271.072C82.6356 272.096 82.3796 272.896 81.8676 273.472C81.3556 274.048 80.6036 274.336 79.6116 274.336ZM79.6116 245.728C78.4916 245.728 77.6116 245.456 76.9716 244.912C76.3636 244.336 76.0596 243.552 76.0596 242.56C76.0596 241.536 76.3636 240.752 76.9716 240.208C77.6116 239.664 78.4916 239.392 79.6116 239.392C80.7636 239.392 81.6436 239.664 82.2516 240.208C82.8596 240.752 83.1636 241.536 83.1636 242.56C83.1636 243.552 82.8596 244.336 82.2516 244.912C81.6436 245.456 80.7636 245.728 79.6116 245.728ZM91.846 274.384C90.886 274.384 90.15 274.128 89.638 273.616C89.126 273.072 88.87 272.304 88.87 271.312V253.168C88.87 252.176 89.126 251.424 89.638 250.912C90.15 250.4 90.87 250.144 91.798 250.144C92.726 250.144 93.446 250.4 93.958 250.912C94.47 251.424 94.726 252.176 94.726 253.168V256.432L94.198 255.232C94.902 253.536 95.99 252.256 97.462 251.392C98.966 250.496 100.662 250.048 102.55 250.048C104.438 250.048 105.99 250.4 107.206 251.104C108.422 251.808 109.334 252.88 109.942 254.32C110.55 255.728 110.854 257.52 110.854 259.696V271.312C110.854 272.304 110.598 273.072 110.086 273.616C109.574 274.128 108.838 274.384 107.878 274.384C106.918 274.384 106.166 274.128 105.622 273.616C105.11 273.072 104.854 272.304 104.854 271.312V259.984C104.854 258.16 104.502 256.832 103.798 256C103.126 255.168 102.07 254.752 100.63 254.752C98.87 254.752 97.462 255.312 96.406 256.432C95.382 257.52 94.87 258.976 94.87 260.8V271.312C94.87 273.36 93.862 274.384 91.846 274.384ZM127.892 283.12C126.164 283.12 124.484 282.96 122.852 282.64C121.252 282.32 119.796 281.824 118.484 281.152C117.876 280.832 117.46 280.448 117.236 280C117.044 279.552 116.98 279.088 117.044 278.608C117.14 278.16 117.332 277.76 117.62 277.408C117.94 277.056 118.324 276.816 118.772 276.688C119.22 276.56 119.684 276.624 120.164 276.88C121.572 277.584 122.9 278.032 124.148 278.224C125.428 278.448 126.516 278.56 127.412 278.56C129.556 278.56 131.156 278.032 132.212 276.976C133.3 275.952 133.844 274.416 133.844 272.368V268.048H134.276C133.796 269.68 132.788 270.992 131.252 271.984C129.748 272.944 128.036 273.424 126.116 273.424C124.004 273.424 122.164 272.944 120.596 271.984C119.028 270.992 117.812 269.616 116.948 267.856C116.084 266.096 115.652 264.048 115.652 261.712C115.652 259.952 115.892 258.368 116.372 256.96C116.884 255.52 117.588 254.288 118.484 253.264C119.412 252.24 120.516 251.456 121.796 250.912C123.108 250.336 124.548 250.048 126.116 250.048C128.1 250.048 129.828 250.544 131.3 251.536C132.804 252.496 133.78 253.776 134.228 255.376L133.748 256.576V253.168C133.748 252.176 134.004 251.424 134.516 250.912C135.06 250.4 135.796 250.144 136.724 250.144C137.684 250.144 138.42 250.4 138.932 250.912C139.444 251.424 139.7 252.176 139.7 253.168V271.648C139.7 275.456 138.692 278.32 136.676 280.24C134.66 282.16 131.732 283.12 127.892 283.12ZM127.748 268.864C128.996 268.864 130.068 268.576 130.964 268C131.86 267.424 132.548 266.608 133.028 265.552C133.54 264.464 133.796 263.184 133.796 261.712C133.796 259.504 133.252 257.776 132.164 256.528C131.076 255.248 129.604 254.608 127.748 254.608C126.5 254.608 125.428 254.896 124.532 255.472C123.636 256.048 122.932 256.864 122.42 257.92C121.94 258.976 121.7 260.24 121.7 261.712C121.7 263.92 122.244 265.664 123.332 266.944C124.42 268.224 125.892 268.864 127.748 268.864ZM156.621 274.48C154.189 274.48 152.077 273.984 150.285 272.992C148.493 272 147.101 270.592 146.109 268.768C145.117 266.912 144.621 264.736 144.621 262.24C144.621 260.352 144.893 258.672 145.437 257.2C146.013 255.696 146.829 254.416 147.885 253.36C148.941 252.272 150.205 251.456 151.677 250.912C153.149 250.336 154.797 250.048 156.621 250.048C159.053 250.048 161.165 250.544 162.957 251.536C164.749 252.528 166.141 253.936 167.133 255.76C168.125 257.584 168.621 259.744 168.621 262.24C168.621 264.128 168.333 265.824 167.757 267.328C167.213 268.832 166.413 270.128 165.357 271.216C164.301 272.272 163.037 273.088 161.565 273.664C160.093 274.208 158.445 274.48 156.621 274.48ZM156.621 269.92C157.805 269.92 158.845 269.632 159.741 269.056C160.637 268.48 161.325 267.632 161.805 266.512C162.317 265.36 162.573 263.936 162.573 262.24C162.573 259.68 162.029 257.776 160.941 256.528C159.853 255.248 158.413 254.608 156.621 254.608C155.437 254.608 154.397 254.896 153.501 255.472C152.605 256.016 151.901 256.864 151.389 258.016C150.909 259.136 150.669 260.544 150.669 262.24C150.669 264.768 151.213 266.688 152.301 268C153.389 269.28 154.829 269.92 156.621 269.92Z" fill="#212121"/>
</svg>
