<svg xmlns="http://www.w3.org/2000/svg" width="1024" height="1024" viewBox="0 0 1024 1024"><path fill="#4cd4be" d="M391.84 509.768c14.51-78.392 52.787-169.141 103.826-230.536 10.897-13.109 31.8-33.997 50.083-29.62 30.513 7.306 39.764 69.297 46.003 95.032 4.667 19.56 9.827 39 15.477 58.3 8.11 28.007 17.376 55.28 25.564 83.185 2.029 6.917 6.96 23.401 7.976 29.823 14.787 2.395 17.717 11.153 23.482 23.232 1.026 2.149 4.305 4.806 5.789 6.809 7.742 10.884 5.934 23.507-.54 34.234 17.847 20.493 56.422 80.488 54.564 107.548-.246 3.584-1.217 6.325-3.462 9.121l-2.247 2.046a22.87 22.87 0 0 1-10.846 3.578c-16.387 1.096-33.509-14.514-45.002-24.734-2.576-1.969-4.163-3.547-6.476-5.808l.436 8.309c.324 2.784.911 5.242 1.234 7.806l.21.677c1.929 6.008 7.446 10.784 7.611 16.587.015.505-1.863 1.996-2.454 2.498-.31 1.312-.326 1.374-.328 2.719 4.608 19.931 12.737 50.127 14.526 69.48l.05.341c.752 8.897-.008 19.212-5.646 26.514-3.138 4.063-8.581 6.219-13.579 6.588-37.498 2.765-77.622-39.021-102.149-63.78-8.197-8.275-14.989-18.614-24.093-26.028-5.776-4.705-11.449-4.513-18.237-3.811-10.355 2.936-24.816 25.258-35.395 31.034-6.614 6.421-13.738 13.238-19.876 20.085-10.608 16.94-46.175 40.656-66.132 42.065-16.94 1.213-30.207-1.469-33.633-20.887-.619-5.682-.505-9.227-.153-14.929.144-3.164.426-6.539.84-9.687 4.021-30.587 13.238-60.357 17.186-90.934.157-1.648.287-2.532.141-4.21-1.292-.131-1.53.432-2.937 1.381-11.782 10.712-30.07 28.48-47.314 27.442a23.1 23.1 0 0 1-11.023-3.539c-1.789-1.591-2.929-2.88-3.743-5.093-11.482-25.084 43.836-105.367 62.354-123.39-7.749-15.765-4.108-20.485 3.344-34.561-2.08-6.477 2.738-18.924 8.147-22.883 1.835-1.342 3.23-.9 5.271-.543l.465-.086z"/><path fill="#4cd4be" d="M391.84 509.768c14.51-78.392 52.787-169.141 103.826-230.536 10.897-13.109 31.8-33.997 50.083-29.62 30.513 7.306 39.764 69.297 46.003 95.032 4.667 19.56 9.827 39 15.477 58.3 8.11 28.007 17.376 55.28 25.564 83.185 2.029 6.917 6.96 23.401 7.976 29.823.706 4.482 2.35 7.742-.411 11.546-8.47 6.996-35.698 14.573-46.734 17.257-54.96 13.368-112.908 12.348-165.865-8.617-10.199-4.038-20.75-8.034-30.185-13.816l-6.463-4.199c.406-3.143.63-5.164.729-8.355"/><path fill="#74edda" d="M391.84 509.768c14.51-78.392 52.787-169.141 103.826-230.536 10.897-13.109 31.8-33.997 50.083-29.62 30.513 7.306 39.764 69.297 46.003 95.032 4.667 19.56 9.827 39 15.477 58.3 8.11 28.007 17.376 55.28 25.564 83.185 2.029 6.917 6.96 23.401 7.976 29.823.706 4.482 2.35 7.742-.411 11.546-2.466-4.139-9.823-34.168-12.043-41.395-11.139-36.278-22.674-71.714-33.273-108.246-10.221-35.675-14.45-74.073-33.532-106.598-6.608-11.264-19.201-17.089-31.446-11.522-1.618.735-4.147 2.032-5.541 3.16-39.366 31.863-63.474 78.164-84.178 123.405-6.921 15.122-13.64 30.254-19.182 45.936a576 576 0 0 0-23.589 90.084l-6.463-4.199c.406-3.143.63-5.164.729-8.355"/><path fill="#192636" d="M548.516 478.382c-4.975-2.698-10.571-7.213-12.802-12.571-6.92-16.397-3.519-43.502 14.453-51.508 19.782-8.813 36.597 9.576 36.817 28.355.064 5.452-.296 11.713-2.235 16.75l-.845.412c-2.059 7.401-3.643 15.23-10.897 19.528-5.571 3.301-19.933 4.338-24.491-.966"/><path fill="#fefefe" d="M547.866 419.89c3.862-1.417 8.57-3.18 12.685-2.804 20.593 1.883 24.134 26.993 23.353 42.734-2.059 7.401-3.643 15.23-10.897 19.528-5.571 3.301-19.933 4.338-24.491-.966 1.321.186 3.19.468 4.5.522a17.73 17.73 0 0 0 13.177-4.923c11.177-10.775 10.236-37.362-.555-48.333-5.479-5.569-10.543-5.605-17.772-5.758"/><path fill="#35b5a6" d="M561.474 456.503c1.628-3.907-.091-6.076 3.374-8.236 3.866 1.004 5.542 9.74 4.429 13.175l-.361.704c-6.529 15.978-21.447 18.264-29.88 2.481 1.54-.595 3.794.274 5.515.712 5.612 1.125 11.744 5.988 14.632-2.819.712-2.17 1.321-3.915 2.291-6.017"/><path fill="#26878a" d="M561.474 456.503c1.628-3.907-.091-6.076 3.374-8.236 3.866 1.004 5.542 9.74 4.429 13.175-1.683-3.396-1.885-3.686-5.603-4.498z"/><path fill="#fefefe" d="M563.674 456.944c3.718.812 3.92 1.102 5.603 4.498l-.361.704c-2.646 1.013-4.745 1.568-6.32-1.354-.124-1.965.119-2.169 1.078-3.848"/><path fill="#fefefe" d="M545.827 429.926c10.256-.02 10.978 8.881 3.917 15.11-9.917.128-10.881-8.828-3.917-15.11"/><path fill="#26878a" d="M539.036 464.627c-1.317-2.9-3.289-10.063-2.357-13.037l.626-.336c3.313 6.328-.405 5.397 7.246 14.085-1.721-.438-3.975-1.307-5.515-.712"/><path fill="#192636" d="M435.634 462.652c-3.572-4.138-4.117-14.675-3.735-20.144 1.738-24.9 27.693-43.599 46.963-19.98 7.002 8.583 7.853 22.081 6.708 32.678-1.402 9.779-4.722 15.991-12.901 21.613-.371.256-.878.603-1.17.956-4.351 6.065-17.122 4.367-23.4 2.032-10.053-3.737-8.687-9.075-12.465-17.155"/><path fill="#fefefe" d="M435.634 462.652c-.818-8.759-.816-17.471 1.856-25.913 5.165-16.312 17.259-23.836 33.593-16.973-7.258-.039-11.658.301-17.347 5.607-11.416 10.646-12.876 37.18-1.936 48.324a16.93 16.93 0 0 0 12.669 5.152c2.321-.081 4.777-.537 7.03-1.074-4.351 6.065-17.122 4.367-23.4 2.032-10.053-3.737-8.687-9.075-12.465-17.155"/><defs><linearGradient id="a" x1="478.425" x2="457.694" y1="450.983" y2="472.189" gradientUnits="userSpaceOnUse"><stop offset="0" stop-color="#1d8b88"/><stop offset="1" stop-color="#37a6aa"/></linearGradient></defs><path fill="url(#a)" d="M449.667 462.833c-.76-3.536-.333-16.133 4.732-15.209 4.242 3.095.525 5.26 3.159 9.48 2.787 3.409-.054 5.789 1.532 7.542 6.882 7.606 18.329-.72 20.709-8.443.414-1.343.574-4.526 1.595-4.466 3.083 8.151-4.181 19.905-12.203 22.518a14.07 14.07 0 0 1-11.052-.901c-4.461-2.396-6.366-6.241-8.472-10.521"/><path fill="#26878a" d="M449.667 462.833c-.76-3.536-.333-16.133 4.732-15.209 4.242 3.095.525 5.26 3.159 9.48l-2.674-.273c-2.474 1.154-2.885 1.279-4.683 3.266l-.175.191c-.098.74-.206 1.851-.359 2.545"/><path fill="#fefefe" d="M454.884 456.831c2.262 1.775 3.001 3.307 1.184 5.873-1.801.973-.859.734-2.949.687-1.853-.864-1.934-1.287-3.093-3.103l.175-.191c1.798-1.987 2.209-2.112 4.683-3.266"/><path fill="#fefefe" d="M468.855 429.88c10.712-.212 11.534 8.149 4.969 15.031-2.357.062-4.913-.263-6.793-1.797a6 6 0 0 1-2.198-4.167c-.353-3.838 1.714-6.392 4.022-9.067"/><path fill="#f8a1a0" d="M582.532 477.621c6.111-.388 16.625.582 19.088 7.471a6.22 6.22 0 0 1-.274 4.863c-2.146 4.396-7.385 5.949-11.65 7.344-7.212.689-24.986-.158-19.196-13.845 1.485-3.51 8.278-5.115 12.032-5.833"/><path fill="#f8a1a0" d="M429.442 477.094c16.091-1.016 31.467 12.508 9.394 19.739-17.976 1.566-31.424-14.161-9.394-19.739"/><path fill="#11434b" d="M485.646 493.585c5.617 1.107 7.706 27.165 31.002 19.251 13.427-4.562 10.239-16.319 15.925-18.124l.903.61c.784 1.539.573 2.556.517 4.289-1.48 6.65-5.795 12.513-11.716 15.89a25.78 25.78 0 0 1-19.946 2.303c-10.217-2.955-20.223-12.798-16.685-24.219"/><path fill="#11434b" d="M552.304 381.117c7.039.284 15.552 2.923 17.808 11.118.318 1.157-.5 1.777-1.233 2.411-1.827.402-3.054-.325-4.856-1.002-5.138-1.14-16.697-1.167-19.437-5.685-.733-4.421 4.413-6.043 7.718-6.842"/><path fill="#11434b" d="M464.298 382.539c4.766-.225 11.932.762 14.483 5.382-.17 5.746-11.509 5.292-15.746 5.506-4.918.441-7.387 3.199-11.635 1.179-2.197-4.327 9.7-10.601 12.898-12.067"/><path fill="#35b5a6" d="M570.133 359.406c2.68.175 5.14.695 6.955 2.894a6.65 6.65 0 0 1 1.446 5.314c-.503 3.12-2.452 4.814-4.842 6.541-9.88-1.734-12.328-8.957-3.559-14.749"/><path fill="#74edda" d="M489.824 307.528c10.473 2.081-1.851 15.184-6.034 18.07-9.132-3.485.96-15.782 6.034-18.07"/><path fill="#35b5a6" d="M516.048 319.239a6.712 6.712 0 1 1 1.854 13.295 6.712 6.712 0 0 1-1.854-13.295"/><path fill="#35b5a6" d="M476.792 355.243a5.86 5.86 0 1 1 3.94 11.038 5.86 5.86 0 0 1-3.94-11.038"/><path fill="#35b5a6" d="M623.672 521.395c8.09.046 9.508 6.14 3.086 11.468-2.587.565-3.333.621-5.494-.554-3.046-3.642-.064-7.958 2.408-10.914"/><path fill="#35b5a6" d="M533.715 302.275a5.543 5.543 0 1 1 3.465 10.531 5.543 5.543 0 0 1-3.465-10.531"/><path fill="#35b5a6" d="M552.664 332.753a5.469 5.469 0 1 1 .122 10.937 5.469 5.469 0 0 1-.122-10.937"/><path fill="#35b5a6" d="M544.672 278.058c8.691 2.177 5.106 8.211-.912 11.045-5.86-.501-8.306-8.492.912-11.045"/><path fill="#35b5a6" d="M611.786 501.761a5.328 5.328 0 0 1 6.148 6.973 5.327 5.327 0 1 1-6.148-6.973"/><path fill="#74edda" d="M540.359 265.429c8.566 1.153 7.259 5.998 2.166 10.688-8.271-.743-7.773-6.288-2.166-10.688"/><path fill="#35b5a6" d="M429.31 506.25a5.07 5.07 0 1 1 2.6 9.802 5.07 5.07 0 0 1-2.6-9.802"/><path fill="#35b5a6" d="M589.894 509.707a4.806 4.806 0 1 1 3.716 8.864 4.806 4.806 0 0 1-3.716-8.864"/><path fill="#74edda" d="M553.523 313.424c7.245.332 8.447 2.729 5.061 9.11-7.297-.293-8.656-2.64-5.061-9.11"/><path fill="#74edda" d="M509.497 295.437a4.45 4.45 0 1 1 .205-8.897 4.45 4.45 0 0 1-.205 8.897"/><path fill="#35b5a6" d="M488.013 327.738a4.299 4.299 0 1 1 2.835 8.117 4.299 4.299 0 0 1-2.835-8.117"/><path fill="#35b5a6" d="M493.672 359.719a4.158 4.158 0 0 1 5.168 5.107 4.159 4.159 0 0 1-8.022-.049 4.157 4.157 0 0 1 2.854-5.058"/><path fill="#74edda" d="M473.863 332.958c6.805-.272 5.724 4.109 2.974 8.241-6.788.077-6.42-3.908-2.974-8.241"/><path fill="#35b5a6" d="M511.892 294.803c2.546.297 2.886.191 4.821 1.689.712 1.487.626.717.135 2.399-2.102 2.173-4.926 3.23-7.819 2.008-1.634-2.067-1.126-3.417.468-5.462.843.02 1.673-.2 2.395-.634"/><path fill="#74edda" d="M553.551 354.425c6.245-.058 6.857 2.247 4.596 7.583-6.216.222-6.571-2.488-4.596-7.583"/><path fill="#056093" d="m390.689 511.229.465-.086.686-1.375c-.099 3.191-.323 5.212-.729 8.355l6.463 4.199c9.435 5.782 19.986 9.778 30.185 13.816 52.957 20.965 110.905 21.985 165.865 8.617 11.036-2.684 38.264-10.261 46.734-17.257 2.761-3.804 1.117-7.064.411-11.546 14.787 2.395 17.717 11.153 23.482 23.232 1.026 2.149 4.305 4.806 5.789 6.809 7.742 10.884 5.934 23.507-.54 34.234 17.847 20.493 56.422 80.488 54.564 107.548-.246 3.584-1.217 6.325-3.462 9.121l-2.247 2.046a22.87 22.87 0 0 1-10.846 3.578c-16.387 1.096-33.509-14.514-45.002-24.734-2.576-1.969-4.163-3.547-6.476-5.808l.436 8.309c.324 2.784.911 5.242 1.234 7.806l.21.677c1.929 6.008 7.446 10.784 7.611 16.587.015.505-1.863 1.996-2.454 2.498-.31 1.312-.326 1.374-.328 2.719-.334-1.31-.249-1.026-.843-2.234-1.541-.88-3.101-.414-4.962-.2-19.886 5.419-26.386 23.499-47.412 24.304-12.953.496-15.392-9.182-20.277-18.59-13.397-25.799-14.679-53.176-14.829-81.544-24.461 6.325-56.759 8.998-81.465 3.978-37.211-7.562-77.797-26.741-106.196-52.095-5.235-4.814-7.928-8.417-12.146-14.049l-.683-.928c-7.749-15.765-4.108-20.485 3.344-34.561-2.08-6.477 2.738-18.924 8.147-22.883 1.835-1.342 3.23-.9 5.271-.543"/><path fill="#0d9cdd" d="M377.271 534.655c-2.08-6.477 2.738-18.924 8.147-22.883 1.835-1.342 3.23-.9 5.271-.543l-1.019 1.251c-.557 3.217-.746 5.13 1.216 7.876 11.052 15.466 72.789 30.826 92.677 33.596 42.123 5.866 83.624 1.538 124.428-9.791 8.701-4.05 34.803-9.539 36.249-19.803 1.398 4.037 4.609 2.446 7.913 4.632 3.074 2.034 4.784 6.659 7.616 8.481l1.038 2.647.321 1.718c1.239.687 2.377 1.097 3.025 2.294 8.507 11.031 9.901 17.954 4.194 30.852-7.448 2.998-15.135 11.131-22.655 15.43-64.8 37.04-143.309 44.178-212.013 13.179-16.197-7.309-31.08-14.67-44.869-25.875-3.833-3.115-7.848-8.795-12.216-10.762-5.875-10.002-4.802-16.902.834-26.716 6.184 15.226 20.915 23.075 34.896 30.418l.413-.95c-9.335-6.047-27.161-20.397-32.124-29.935-1.124-1.826-2.102-3.368-3.342-5.116"/><path fill="#36c1f0" d="M377.271 534.655c-2.08-6.477 2.738-18.924 8.147-22.883 1.835-1.342 3.23-.9 5.271-.543l-1.019 1.251c-.557 3.217-.746 5.13 1.216 7.876 11.052 15.466 72.789 30.826 92.677 33.596 42.123 5.866 83.624 1.538 124.428-9.791l.222.8c-3.348 3.909-29.569 8.265-34.964 9.754-57.257 15.809-117.941 7.217-170.602-19.408-4.947-2.501-10.393-6.257-15.765-7.307-1.45-.283-5.834 4.915-7.064 6.077.265 1.828.615 3.878.795 5.694-1.124-1.826-2.102-3.368-3.342-5.116"/><path fill="#0c81c3" d="M377.271 534.655c-2.08-6.477 2.738-18.924 8.147-22.883 1.835-1.342 3.23-.9 5.271-.543l-1.019 1.251c-6.1 4.62-11.294 13.792-9.852 21.597.265 1.828.615 3.878.795 5.694-1.124-1.826-2.102-3.368-3.342-5.116"/><path fill="#0c81c3" d="m660.807 540.118.321 1.718c2.097 10.886-10.772 25.332-19.655 30.288-.655-.29-1.114-.488-1.914-.143-7.418 3.201-14.738 6.68-22.427 9.191-27.014 8.823-60.507 9.718-88.428 5.228 40.824-2.142 86.78-11.636 123.213-31.062 4.875-2.599 7.975-9.912 8.89-15.22"/><defs><linearGradient id="b" x1="654.787" x2="624.642" y1="571.478" y2="561.334" gradientUnits="userSpaceOnUse"><stop offset="0" stop-color="#0f67a8"/><stop offset="1" stop-color="#0782c9"/></linearGradient></defs><path fill="url(#b)" d="M661.128 541.836c1.239.687 2.377 1.097 3.025 2.294l-.269.883c-.842 2.838-1.279 7.444-2.427 10-5.273 11.74-18.928 21.4-29.684 27.559-6.067 3.474-13.523 6.685-20.064 8.463 11.135-6.535 19.275-11.25 29.764-18.911 8.883-4.956 21.752-19.402 19.655-30.288"/><path fill="#0c81c3" d="M412.737 569.706c2.93 1.711 6.569 3.648 9.031 5.878-3.282-1.187-6.492-3.076-9.444-4.928z"/><path fill="#4cd4be" d="M669.5 580.227c17.847 20.493 56.422 80.488 54.564 107.548-.246 3.584-1.217 6.325-3.462 9.121l-2.247 2.046a22.87 22.87 0 0 1-10.846 3.578c-16.387 1.096-33.509-14.514-45.002-24.734-2.576-1.969-4.163-3.547-6.476-5.808l.436 8.309c.324 2.784.911 5.242 1.234 7.806l-.894-.249c-1.715-1.518-4.43-7.163-5.677-9.456-10.19-18.724-14.406-36.186-18.397-56.87l-1.526-10.449c8.102-4.574 14.78-9 22.462-14.227 4.96-4.313 8.579-7.64 12.855-12.606 1.029-1.62 1.756-2.512 2.976-4.009"/><path fill="#35b5a6" d="M653.669 596.842c1.135 7.248.34 15.267 1.393 22.561 3.818 26.437 17.698 51.568 38.988 67.889 9.918 7.758 15.814 7.116 24.305 11.65a22.87 22.87 0 0 1-10.846 3.578c-16.387 1.096-33.509-14.514-45.002-24.734-2.576-1.969-4.163-3.547-6.476-5.808l.436 8.309c.324 2.784.911 5.242 1.234 7.806l-.894-.249c-1.715-1.518-4.43-7.163-5.677-9.456-10.19-18.724-14.406-36.186-18.397-56.87l-1.526-10.449c8.102-4.574 14.78-9 22.462-14.227"/><path fill="#4cd4be" d="M648.763 612.556c.242 1.685.408 3.96 1.175 5.405 1.384 2.526 1.575 6.364 1.828 9.295 2.205 13.963 3.258 29.31 4.861 43.441 1.461 1.698 4.721 5.324 5.88 7.089-2.576-1.969-4.163-3.547-6.476-5.808l.436 8.309c.324 2.784.911 5.242 1.234 7.806l-.894-.249c-1.715-1.518-4.43-7.163-5.677-9.456-10.19-18.724-14.406-36.186-18.397-56.87 5.442-2.48 9.894-6.336 16.03-8.962"/><path fill="#135c66" d="M651.766 627.256c2.205 13.963 3.258 29.31 4.861 43.441 1.461 1.698 4.721 5.324 5.88 7.089-2.576-1.969-4.163-3.547-6.476-5.808l.436 8.309c-3.409-12.372-5.088-38.121-5.971-50.992z"/><path fill="#11434b" d="M649.938 617.961c1.384 2.526 1.575 6.364 1.828 9.295l-1.27 2.039c-.05-3.549-.368-7.749-.558-11.334"/><path fill="#74edda" d="M669.5 580.227c17.847 20.493 56.422 80.488 54.564 107.548-.246 3.584-1.217 6.325-3.462 9.121l-.797-.774c-.673-2.033.616-4.235.677-6.547.165-6.21-2.995-13.99-5.213-19.708-10.661-27.485-29.312-63.638-48.745-85.631 1.029-1.62 1.756-2.512 2.976-4.009"/><path fill="#0c81c3" d="M376.594 566.954c4.368 1.967 8.383 7.647 12.216 10.762 13.789 11.205 28.672 18.566 44.869 25.875 68.704 30.999 147.213 23.861 212.013-13.179 7.52-4.299 15.207-12.432 22.655-15.43-8.839 22.847-55.372 42.024-77.367 49.584-49.701 17.083-105.396 15.037-152.127-9.869-16.771-8.939-56.005-29.121-62.259-47.743"/><path fill="#36c1f0" d="M644.24 524.358c-.546-2.203-.834-1.818-.093-3.436 6.335-1.251 14.316 11.146 15.622 16.549-2.832-1.822-4.542-6.447-7.616-8.481-3.304-2.186-6.515-.595-7.913-4.632"/><path fill="#0d9cdd" d="M576.978 631.446c15.697-3.236 36.939-12.668 51.573-18.99.956 4.887 1.589 11.471 2.218 16.524 4.664 20.803 9.277 36.265 20.107 55.158 3.899 6.802 9.214 13.893 12.327 20.868-11.634.471-16.274 2.272-25.728 9.156l-6.849 7.052a59 59 0 0 1-2.053 1.575c-7.15 5.269-17.294 7.44-26.03 6.109-18.144-18.874-22.975-53.349-25.286-78.587-.63-3.21-.329-15.115-.279-18.865"/><path fill="#0c81c3" d="M576.978 631.446c15.697-3.236 36.939-12.668 51.573-18.99.956 4.887 1.589 11.471 2.218 16.524-3.913 1.863-7.292 3.932-10.998 6.142 3.077 17.359 7.859 29.135 11.152 44.816-8.246-10.046-16.91-28.197-21.126-40.211l-7.764 2.017c-.948 13.55-.525 24.063 1.012 37.695-6.116-9.034-8.587-23.603-10.791-34.228-4.45.398-10.713.476-14.351 2.818-.499 1.116-.505 1.074-.646 2.282-.63-3.21-.329-15.115-.279-18.865"/><path fill="#0c81c3" d="M614.057 680.468c3.146 5.147 5.581 10.491 9.044 15.778 4.638 7.083 8.79 11.711 14.374 17.916l-6.849 7.052c-9.821-13.271-12.902-25.214-16.569-40.746"/><path fill="#35b5a6" d="M358.576 792.175c13.224 3.599 20.83.062 32.263-6.68 23.584-13.906 40.612-35.519 58.988-55.259 16.586-18.598 44.949-47.694 73.208-37.504 36.315 13.094 64.088 56.611 96.263 78.424 16.164 10.958 34.291 23.545 54.393 13.474 2.125-1.065 3.054-2.407 3.575-4.576l.05.341c.752 8.897-.008 19.212-5.646 26.514-3.138 4.063-8.581 6.219-13.579 6.588-37.498 2.765-77.622-39.021-102.149-63.78-8.197-8.275-14.989-18.614-24.093-26.028-5.776-4.705-11.449-4.513-18.237-3.811-10.355 2.936-24.816 25.258-35.395 31.034-6.614 6.421-13.738 13.238-19.876 20.085-10.608 16.94-46.175 40.656-66.132 42.065-16.94 1.213-30.207-1.469-33.633-20.887"/><path fill="#11434b" d="M392.209 813.062c21.033-7.258 33.93-15.555 51.081-29.539 4.521-3.686 10.092-8.952 14.605-12.21l.446-.316c-10.608 16.94-46.175 40.656-66.132 42.065"/><path fill="#11434b" d="M478.217 750.912c4.579-7.197 13.823-16.845 19.776-23.276 3.909-4.223 9.632-7.771 15.619-7.758-10.355 2.936-24.816 25.258-35.395 31.034"/><path fill="#4cd4be" d="m373.927 569.216.683.928c4.218 5.632 6.911 9.235 12.146 14.049-1.852 2.835-1.841 4.365-.037 7.284-1.575 5.338-1.179 14.365-2.438 20.879-1.642 8.59-2.969 26.285-3.441 35.501l-1.516-.34c-2.251 8.769-1.43 17.209-5.671 26.279-11.782 10.712-30.07 28.48-47.314 27.442a23.1 23.1 0 0 1-11.023-3.539c-1.789-1.591-2.929-2.88-3.743-5.093-11.482-25.084 43.836-105.367 62.354-123.39"/><path fill="#35b5a6" d="M382.629 611.051c1.207.653.89.294 1.652 1.305-1.642 8.59-2.969 26.285-3.441 35.501l-1.516-.34c-2.251 8.769-1.43 17.209-5.671 26.279-11.782 10.712-30.07 28.48-47.314 27.442a23.1 23.1 0 0 1-11.023-3.539c3.123-1.385 11.649-3.926 13.832-5.238 21.558-12.95 38.795-35.427 45.597-59.645 2.072-7.376 2.782-16.422 7.884-21.765"/><path fill="#11434b" d="M382.629 611.051c1.207.653.89.294 1.652 1.305-1.642 8.59-2.969 26.285-3.441 35.501l-1.516-.34c.869-11.056 1.95-25.701 3.305-36.466"/><path fill="#74edda" d="m373.927 569.216.683.928c-1.94 7.463-15.836 24.278-21.004 32.225a638 638 0 0 0-18.589 30.839c-7.974 14.421-15.486 30.097-19.974 45.952-.505 1.785-3.129 12.906-3.47 13.446-11.482-25.084 43.836-105.367 62.354-123.39"/><path fill="#35b5a6" d="M386.756 584.193c28.399 25.354 68.985 44.533 106.196 52.095 24.706 5.02 57.004 2.347 81.465-3.978.15 28.368 1.432 55.745 14.829 81.544 4.885 9.408 7.324 19.086 20.277 18.59 21.026-.805 27.526-18.885 47.412-24.304.707 3.581 2.15 7.977 3.22 11.552-14.113 3.569-20.499 5.857-32.185 14.641-7.762 5.835-20.137 8.648-29.935 7.501-4.57-2.785-8.239-8.415-10.655-13.138-13.016-25.446-14.189-55.865-15.423-83.848-59.145 9.192-111.972 5.925-161.759-30.839-6.857-5.063-13.151-11.872-19.733-17.433-1.388-2.468-1.832-2.99-3.746-5.099-1.804-2.919-1.815-4.449.037-7.284"/><path fill="#74edda" d="M386.719 591.477c1.914 2.109 2.358 2.631 3.746 5.099-1.733 50.999-7.318 97.26-21.375 146.182-2.457 8.551-4.302 26.216-8.81 33.537-.73.41-1.081.636-1.857.951.144-3.164.426-6.539.84-9.687 4.021-30.587 13.238-60.357 17.186-90.934.157-1.648.287-2.532.141-4.21-1.292-.131-1.53.432-2.937 1.381 4.241-9.07 3.42-17.51 5.671-26.279l1.516.34c.472-9.216 1.799-26.911 3.441-35.501 1.259-6.514.863-15.541 2.438-20.879"/><path fill="#135c66" d="m379.324 647.517 1.516.34c-.886 9.396-1.679 19.729-4.391 28.768.157-1.648.287-2.532.141-4.21-1.292-.131-1.53.432-2.937 1.381 4.241-9.07 3.42-17.51 5.671-26.279"/><path fill="#35b5a6" d="M440.926 645.749c6.425-1.316 12.722 2.75 14.166 9.147s-2.495 12.775-8.862 14.347a12.044 12.044 0 0 1-14.365-15.348 12.05 12.05 0 0 1 9.061-8.146"/><path fill="#35b5a6" d="M396.231 648.558c2.09-.129 4.38-.061 6.489-.045 8.148 5.058 7.288 10.852.755 16.713-11.493 1.93-14.694-8.398-7.244-16.668"/><path fill="#35b5a6" d="M637.375 730.701a6.84 6.84 0 0 1 8.737 4.256 6.838 6.838 0 1 1-12.951 4.396 6.84 6.84 0 0 1 4.214-8.652"/><path fill="#35b5a6" d="M420.823 681.996c10.926-.362 10.985 5.697 5.465 13.134-8.894-.736-12.731-6.402-5.465-13.134"/><path fill="#74edda" d="M398.617 720.939c9.459.23 9.172 7 4.43 13.06-8.449-1.264-11.638-7.018-4.43-13.06"/><path fill="#35b5a6" d="M387.855 752.274a5.397 5.397 0 0 1 6.919 3.131 5.398 5.398 0 1 1-6.919-3.131"/><path fill="#35b5a6" d="M653.845 760.753a4.863 4.863 0 1 1 2.395 9.426 4.863 4.863 0 0 1-2.395-9.426"/><path fill="#74edda" d="M650.9 746.224c6.611.621 10.561 2.122 6.13 9.133q-.703.078-1.408.135c-2.333.183-3.227.211-5.045-1.347-1.575-3.028-.69-4.703.323-7.921"/><path fill="#35b5a6" d="M378.506 729.722a4.252 4.252 0 1 1 3.194 7.882 4.252 4.252 0 0 1-3.194-7.882"/><path fill="#35b5a6" d="M371.742 764.761a4.228 4.228 0 1 1 2.018 8.212 4.228 4.228 0 0 1-2.018-8.212"/><path fill="#878c94" d="M977.499 954.355c3.248 4.5 5.719 12.511 9.659 16.512 3.922 3.983 11.884 7.188 17.112 9.619q-3.707 1.431-7.389 2.931c-12.455 5.137-14.158 10.733-18.956 22.233-1.158-1.33-3.753-7.503-4.864-9.503-5.097-9.183-13.103-11.721-21.716-16.485 17.536-7.24 17.923-8.694 26.154-25.307"/><path fill="#11434b" d="M732.858 590.07c2.357-.147 3.703-.035 6.15.539 7.509 1.761 12.968 12.321 10.862 19.386-.85 2.851-7.903 6.327-10.841 7.717-20.024 3.984-23.418-23.528-6.171-27.642"/><path fill="#135c66" d="M735.612 592.084c6.008-.438 11.268 3.996 11.854 9.991.587 5.995-3.715 11.363-9.693 12.098a11.1 11.1 0 1 1-2.161-22.089"/><path fill="#4cd4be" d="M734.544 597.24a6.045 6.045 0 1 1-3.82 7.582 6.045 6.045 0 0 1 3.82-7.582"/><path fill="#135c66" d="M723.001 742.692c-5.188-12.692 1.733-23.105 15.698-18.182 14.889 5.248 11.804 21.017-1.682 25.266-2.525.901-7.656.18-9.674-2.304-1.334-1.119-3.149-3.387-4.342-4.78"/><path fill="#192636" d="M736.497 743.595c10.186-6.327 5.74-8.128 2.03-16.762 2.78 2.637 5.818 4.981 5.845 9.115.112 16.921-14.873 6.602-18.145 7.343.217 2.04.985 1.519 1.116 4.181-1.334-1.119-3.149-3.387-4.342-4.78 9.302-.989 5.048-.472 13.496.903"/><path fill="#4cd4be" d="M733.987 730.244a6.071 6.071 0 1 1 2.03 11.971 6.071 6.071 0 0 1-2.03-11.971"/><path fill="#11434b" d="M665.751 412.067c20.575-.973 21.359 20.989 7.128 26.353-15.287.455-19.389-7.866-15.118-21.882 2.729-2.37 4.566-3.418 7.99-4.471"/><path fill="#4cd4be" d="M667.121 418.75a6.203 6.203 0 1 1 4.667 11.495 6.203 6.203 0 0 1-4.667-11.495"/><path fill="#135c66" d="M305.953 562.682c1.902-17.945 19.058-13.93 25.002-2.352-.914 2.695-1.811 5.302-2.599 8.039-1.837 3.166-2.285 4.134-5.302 6.053-2.702 1.106-5.422 2.68-8.008 4.076-5.612-.854-9.206-2.008-9.875-8.209 1.685-3.022.979-4.252.782-7.607"/><path fill="#11434b" d="M305.953 562.682c1.902-17.945 19.058-13.93 25.002-2.352-.914 2.695-1.811 5.302-2.599 8.039-2.382-5.888-.276-6.306-5.307-12.139-2.036-.476-3.939-.668-5.991-.908-5.741-.669-7.385 4.441-11.105 7.36"/><path fill="#11434b" d="M305.171 570.289c2.129 1.849 2.25 2.368 3.639 4.924 4.208-.865 10.027-1.518 14.244-.791-2.702 1.106-5.422 2.68-8.008 4.076-5.612-.854-9.206-2.008-9.875-8.209"/><path fill="#4cd4be" d="M314.782 558.756a6.185 6.185 0 1 1 3.958 11.718 6.185 6.185 0 0 1-3.958-11.718"/><path fill="#135c66" d="M403.952 296.786c-.056-10.644 18.869-8.75 23.188-2.405-.274-.402 1.09 1.269.865 1.008.017 10.045 1.652 15.739-12.549 17.145-3.614.358-7.152-.42-9.428-3.42-1.975-3.355.058-7.086-2.076-12.328"/><path fill="#192636" d="m403.952 296.786 2.27.61c.429.823.52.628.377 1.381-1.112 5.85 4.521 9.288 9.657 9.692 3.4.268 4.077.019 6.995-1.716l.278.608c-3.334 6.444-13.452.14-17.501 1.753-1.975-3.355.058-7.086-2.076-12.328"/><path fill="#4cd4be" d="M414.766 295.239a5.765 5.765 0 1 1 2.366 11.285 5.765 5.765 0 0 1-2.366-11.285"/><path fill="#135c66" d="M370.287 375.084c6.796-.288 16.208.309 17.359 10.169.379 3.251-2.259 6.652-4.52 8.924-4.081 1.286-8.711.444-12.01-2.323a11.55 11.55 0 0 1-4.156-8.104c-.292-3.903.991-5.808 3.327-8.666"/><path fill="#4cd4be" d="M374.26 381.236a5.194 5.194 0 0 1 7.278 5.455 5.196 5.196 0 1 1-7.278-5.455"/><path fill="#4cd4be" d="M297.653 736.28a6.415 6.415 0 1 1 4.447 12.035 6.415 6.415 0 0 1-4.447-12.035"/><path fill="#4cd4be" d="M667.159 346.296a5.52 5.52 0 0 1 6.082 7.512 5.52 5.52 0 1 1-6.082-7.512"/><path fill="#4cd4be" d="M344.042 486.751a4.57 4.57 0 1 1 1.9 8.939 4.57 4.57 0 0 1-1.9-8.939"/><path fill="#4cd4be" d="M692.125 500.214a4.48 4.48 0 1 1 2.818 8.506 4.48 4.48 0 0 1-2.818-8.506"/><path fill="#4cd4be" d="M268.477 651.233a4.383 4.383 0 1 1-2.422 5.701 4.383 4.383 0 0 1 2.422-5.701"/><path fill="#4cd4be" d="M629.572 280.16a4.34 4.34 0 1 1 1.724 8.508 4.34 4.34 0 0 1-1.724-8.508"/></svg>