<svg width="120" height="105" viewBox="0 0 120 105" fill="none" xmlns="http://www.w3.org/2000/svg">
<ellipse cx="60" cy="52.5" rx="60" ry="52.5" fill="#543ACC"/>
<ellipse cx="60" cy="45.1316" rx="60" ry="45.1316" fill="#6949FF"/>
<path d="M55.1263 14.0306C55.1263 11.0294 52.6888 8.57175 49.6987 8.83056C43.5378 9.36383 37.5545 10.8016 32.0902 13.0776C25.0322 16.0174 19.0686 20.2603 14.7529 25.4125C10.4372 30.5648 7.90917 36.4595 7.40344 42.5497C7.04149 46.9084 7.72375 51.266 9.39807 55.4156C10.5841 58.355 13.9904 59.4901 16.976 58.4257C21.0199 56.984 22.5728 52.1079 21.8962 47.8683C21.6517 46.3358 21.5914 44.7841 21.7203 43.2322C22.0743 38.969 23.8439 34.8427 26.8649 31.2361C29.8859 27.6295 34.0604 24.6595 39.001 22.6017C42.3449 21.2089 45.9663 20.2645 49.7058 19.7996C52.6841 19.4293 55.1263 17.0319 55.1263 14.0306Z" fill="#A592FF"/>
<path d="M70.8506 49.2535C70.3758 49.7137 70.1576 50.3792 70.2658 51.0318L71.8956 60.0518C72.0331 60.8163 71.7105 61.59 71.0706 62.0318C70.4436 62.4902 69.6095 62.5452 68.9256 62.1785L60.8058 57.9435C60.5235 57.7932 60.21 57.7125 59.8891 57.7033H59.3923C59.22 57.729 59.0513 57.784 58.8973 57.8683L50.7756 62.1235C50.3741 62.3252 49.9195 62.3967 49.474 62.3252C48.3886 62.1198 47.6645 61.0858 47.8423 59.995L49.474 50.975C49.5821 50.3168 49.364 49.6477 48.8891 49.1802L42.269 42.7635C41.7153 42.2263 41.5228 41.4197 41.7758 40.6918C42.0215 39.9658 42.6485 39.436 43.4056 39.3168L52.5173 37.995C53.2103 37.9235 53.819 37.5018 54.1306 36.8785L58.1456 28.6468C58.241 28.4635 58.3638 28.2948 58.5123 28.1518L58.6773 28.0235C58.7635 27.9282 58.8625 27.8493 58.9725 27.7852L59.1723 27.7118L59.484 27.5835H60.2558C60.9451 27.655 61.552 28.0675 61.8691 28.6835L65.9373 36.8785C66.2306 37.478 66.8008 37.8942 67.459 37.995L76.5706 39.3168C77.3406 39.4268 77.9841 39.9585 78.239 40.6918C78.4791 41.427 78.272 42.2337 77.7073 42.7635L70.8506 49.2535Z" fill="white"/>
</svg>
