<svg width="120" height="105" viewBox="0 0 120 105" fill="none" xmlns="http://www.w3.org/2000/svg">
<ellipse cx="60" cy="52.5" rx="60" ry="52.5" fill="#FF981F"/>
<ellipse cx="60" cy="45.1316" rx="60" ry="45.1316" fill="#FFC107"/>
<path d="M55.1268 14.0308C55.1268 11.0295 52.6893 8.57187 49.6992 8.83068C43.5383 9.36396 37.555 10.8018 32.0907 13.0777C25.0327 16.0175 19.0691 20.2604 14.7534 25.4127C10.4377 30.5649 7.90966 36.4597 7.40393 42.5499C7.04198 46.9085 7.72424 51.2661 9.39856 55.4157C10.5846 58.3552 13.9909 59.4903 16.9765 58.4259C21.0204 56.9841 22.5733 52.108 21.8967 47.8684C21.6522 46.3359 21.5919 44.7842 21.7208 43.2323C22.0748 38.9692 23.8444 34.8428 26.8654 31.2362C29.8864 27.6297 34.0609 24.6596 39.0015 22.6018C42.3454 21.209 45.9668 20.2647 49.7063 19.7997C52.6846 19.4294 55.1268 17.032 55.1268 14.0308Z" fill="#FFDA6A"/>
<path fill-rule="evenodd" clip-rule="evenodd" d="M60.3207 50.8985H59.6796C55.2734 50.8985 51.7019 47.37 51.7019 43.0206V34.5446C51.7019 30.1935 55.2734 26.6667 59.6796 26.6667H60.3207C64.7269 26.6667 68.3002 30.1935 68.3002 34.5446V43.0206C68.3002 47.37 64.7269 50.8985 60.3207 50.8985ZM72.0317 42.7686C72.0317 41.7987 72.8273 41.0148 73.8077 41.0148C74.788 41.0148 75.5837 41.7987 75.5837 42.7686C75.5837 50.6588 69.5347 57.1741 61.7772 58.0492V61.5795C61.7772 62.5476 60.9816 63.3333 60.0012 63.3333C59.0191 63.3333 58.2252 62.5476 58.2252 61.5795V58.0492C50.466 57.1741 44.417 50.6588 44.417 42.7686C44.417 41.7987 45.2126 41.0148 46.193 41.0148C47.1733 41.0148 47.969 41.7987 47.969 42.7686C47.969 49.3189 53.3662 54.6486 60.0012 54.6486C66.6345 54.6486 72.0317 49.3189 72.0317 42.7686Z" fill="white"/>
</svg>
