<svg width="430" height="932" viewBox="0 0 430 932" fill="none" xmlns="http://www.w3.org/2000/svg">
<g clip-path="url(#clip0_2032_28123)">
<rect width="430" height="932" fill="white"/>
<path d="M47.333 84.3203C47.333 84.7633 47.0038 85.1294 46.5767 85.1873L46.458 85.1953H28.958C28.4748 85.1953 28.083 84.8036 28.083 84.3203C28.083 83.8773 28.4122 83.5112 28.8393 83.4533L28.958 83.4453H46.458C46.9413 83.4453 47.333 83.8371 47.333 84.3203Z" fill="#212121"/>
<path d="M36.634 90.7286C36.9764 91.0696 36.9776 91.6236 36.6367 91.9661C36.3267 92.2774 35.8406 92.3067 35.4975 92.0532L35.3992 91.9687L28.3409 84.9407C28.0286 84.6298 28.0002 84.142 28.2557 83.7989L28.3408 83.7007L35.3992 76.6715C35.7416 76.3305 36.2956 76.3317 36.6366 76.6741C36.9466 76.9854 36.9738 77.4715 36.719 77.8135L36.634 77.9115L30.1987 84.321L36.634 90.7286Z" fill="#212121"/>
<rect x="107" y="78" width="216" height="12" rx="6" fill="#EEEEEE"/>
<rect x="107" y="78" width="60" height="12" rx="6" fill="#6949FF"/>
<path d="M34.4 168.256C33.312 168.256 32.5653 167.68 32.16 166.528L25.472 147.616C25.2373 146.933 25.28 146.357 25.6 145.888C25.9413 145.419 26.5067 145.184 27.296 145.184C27.872 145.184 28.32 145.323 28.64 145.6C28.96 145.856 29.216 146.272 29.408 146.848L34.528 162.08L39.904 146.88C40.3093 145.749 40.992 145.184 41.952 145.184C42.464 145.184 42.8693 145.323 43.168 145.6C43.4667 145.877 43.7227 146.315 43.936 146.912L49.216 162.304L54.496 146.848C54.688 146.293 54.944 145.877 55.264 145.6C55.584 145.323 56.0213 145.184 56.576 145.184C57.2587 145.184 57.76 145.419 58.08 145.888C58.4 146.357 58.4427 146.933 58.208 147.616L51.456 166.56C51.2427 167.136 50.9653 167.563 50.624 167.84C50.2827 168.117 49.824 168.256 49.248 168.256C48.672 168.256 48.2133 168.117 47.872 167.84C47.5307 167.563 47.2533 167.125 47.04 166.528L41.824 151.712L36.576 166.56C36.3627 167.136 36.0853 167.563 35.744 167.84C35.424 168.117 34.976 168.256 34.4 168.256ZM65.2828 168.256C63.9601 168.256 63.2988 167.573 63.2988 166.208V147.2C63.2988 145.856 63.9601 145.184 65.2828 145.184C66.6268 145.184 67.2988 145.856 67.2988 147.2V154.624C67.8321 153.771 68.5468 153.131 69.4427 152.704C70.3388 152.256 71.3308 152.032 72.4188 152.032C76.1094 152.032 77.9548 154.176 77.9548 158.464V166.208C77.9548 167.573 77.2934 168.256 75.9708 168.256C74.6268 168.256 73.9548 167.573 73.9548 166.208V158.656C73.9548 157.44 73.7201 156.555 73.2508 156C72.8028 155.445 72.0988 155.168 71.1388 155.168C69.9654 155.168 69.0268 155.541 68.3228 156.288C67.6401 157.013 67.2988 157.984 67.2988 159.2V166.208C67.2988 167.573 66.6268 168.256 65.2828 168.256ZM87.1695 168.32C86.0388 168.32 85.0255 168.107 84.1295 167.68C83.2548 167.232 82.5615 166.635 82.0495 165.888C81.5588 165.141 81.3135 164.299 81.3135 163.36C81.3135 162.208 81.6122 161.301 82.2095 160.64C82.8068 159.957 83.7775 159.467 85.1215 159.168C86.4655 158.869 88.2682 158.72 90.5295 158.72H91.6495V158.048C91.6495 156.981 91.4148 156.213 90.9455 155.744C90.4762 155.275 89.6868 155.04 88.5775 155.04C87.9588 155.04 87.2868 155.115 86.5615 155.264C85.8575 155.413 85.1108 155.669 84.3215 156.032C83.8095 156.267 83.3828 156.299 83.0415 156.128C82.7002 155.936 82.4655 155.648 82.3375 155.264C82.2308 154.859 82.2522 154.453 82.4015 154.048C82.5722 153.643 82.9028 153.344 83.3935 153.152C84.3748 152.747 85.3135 152.459 86.2095 152.288C87.1268 152.117 87.9588 152.032 88.7055 152.032C90.9882 152.032 92.6842 152.565 93.7935 153.632C94.9028 154.677 95.4575 156.309 95.4575 158.528V166.208C95.4575 167.573 94.8388 168.256 93.6015 168.256C92.3428 168.256 91.7135 167.573 91.7135 166.208V165.504C91.3508 166.379 90.7748 167.072 89.9855 167.584C89.1962 168.075 88.2575 168.32 87.1695 168.32ZM88.0015 165.568C89.0468 165.568 89.9108 165.205 90.5935 164.48C91.2975 163.755 91.6495 162.837 91.6495 161.728V161.024H90.5615C88.5562 161.024 87.1588 161.184 86.3695 161.504C85.6015 161.803 85.2175 162.357 85.2175 163.168C85.2175 163.872 85.4628 164.448 85.9535 164.896C86.4442 165.344 87.1268 165.568 88.0015 165.568ZM106.686 168.32C102.547 168.32 100.478 166.272 100.478 162.176V155.36H98.8135C97.7468 155.36 97.2135 154.859 97.2135 153.856C97.2135 152.853 97.7468 152.352 98.8135 152.352H100.478V149.44C100.478 148.096 101.15 147.424 102.494 147.424C103.816 147.424 104.478 148.096 104.478 149.44V152.352H107.87C108.936 152.352 109.47 152.853 109.47 153.856C109.47 154.859 108.936 155.36 107.87 155.36H104.478V161.952C104.478 162.976 104.702 163.744 105.15 164.256C105.598 164.768 106.323 165.024 107.326 165.024C107.688 165.024 108.008 164.992 108.286 164.928C108.563 164.864 108.808 164.821 109.022 164.8C109.278 164.779 109.491 164.864 109.662 165.056C109.832 165.227 109.918 165.589 109.918 166.144C109.918 166.571 109.843 166.955 109.694 167.296C109.566 167.616 109.32 167.84 108.958 167.968C108.68 168.053 108.318 168.128 107.87 168.192C107.422 168.277 107.027 168.32 106.686 168.32ZM122.47 149.152C121.724 149.152 121.137 148.971 120.71 148.608C120.305 148.224 120.102 147.701 120.102 147.04C120.102 146.357 120.305 145.835 120.71 145.472C121.137 145.109 121.724 144.928 122.47 144.928C124.049 144.928 124.838 145.632 124.838 147.04C124.838 148.448 124.049 149.152 122.47 149.152ZM122.47 168.224C121.83 168.224 121.34 168.032 120.998 167.648C120.657 167.264 120.486 166.731 120.486 166.048V154.304C120.486 152.853 121.148 152.128 122.47 152.128C123.814 152.128 124.486 152.853 124.486 154.304V166.048C124.486 166.731 124.316 167.264 123.974 167.648C123.633 168.032 123.132 168.224 122.47 168.224ZM134.371 168.32C133.453 168.32 132.483 168.224 131.459 168.032C130.435 167.84 129.517 167.509 128.707 167.04C128.259 166.784 127.981 166.475 127.875 166.112C127.768 165.728 127.779 165.376 127.907 165.056C128.056 164.715 128.291 164.469 128.611 164.32C128.952 164.171 129.347 164.203 129.795 164.416C130.648 164.821 131.448 165.109 132.195 165.28C132.941 165.429 133.677 165.504 134.403 165.504C135.427 165.504 136.184 165.333 136.675 164.992C137.187 164.629 137.443 164.16 137.443 163.584C137.443 162.688 136.781 162.112 135.459 161.856L132.259 161.248C129.549 160.736 128.195 159.328 128.195 157.024C128.195 156 128.472 155.115 129.027 154.368C129.603 153.621 130.392 153.045 131.395 152.64C132.397 152.235 133.549 152.032 134.851 152.032C136.728 152.032 138.403 152.448 139.875 153.28C140.28 153.493 140.515 153.792 140.579 154.176C140.664 154.539 140.621 154.891 140.451 155.232C140.301 155.552 140.056 155.787 139.715 155.936C139.373 156.064 138.979 156.021 138.531 155.808C137.869 155.467 137.229 155.221 136.611 155.072C136.013 154.923 135.437 154.848 134.883 154.848C133.837 154.848 133.059 155.029 132.547 155.392C132.056 155.755 131.811 156.235 131.811 156.832C131.811 157.771 132.419 158.347 133.635 158.56L136.835 159.168C138.221 159.424 139.267 159.893 139.971 160.576C140.696 161.259 141.059 162.176 141.059 163.328C141.059 164.885 140.451 166.112 139.235 167.008C138.019 167.883 136.397 168.32 134.371 168.32ZM156.923 174.016C156.198 174.016 155.696 173.749 155.419 173.216C155.142 172.683 155.152 172.075 155.451 171.392L157.275 167.36L151.803 154.752C151.504 154.048 151.504 153.429 151.803 152.896C152.102 152.363 152.688 152.096 153.563 152.096C154.054 152.096 154.448 152.213 154.747 152.448C155.046 152.661 155.312 153.077 155.547 153.696L159.387 163.296L163.323 153.664C163.558 153.067 163.835 152.661 164.155 152.448C164.475 152.213 164.902 152.096 165.435 152.096C166.118 152.096 166.598 152.363 166.875 152.896C167.152 153.429 167.142 154.037 166.843 154.72L159.067 172.48C158.79 173.077 158.491 173.483 158.171 173.696C157.851 173.909 157.435 174.016 156.923 174.016ZM176.622 168.32C175.001 168.32 173.593 167.989 172.398 167.328C171.204 166.667 170.276 165.728 169.614 164.512C168.953 163.275 168.622 161.824 168.622 160.16C168.622 158.496 168.953 157.056 169.614 155.84C170.276 154.624 171.204 153.685 172.398 153.024C173.593 152.363 175.001 152.032 176.622 152.032C178.244 152.032 179.652 152.363 180.846 153.024C182.041 153.685 182.969 154.624 183.63 155.84C184.292 157.056 184.622 158.496 184.622 160.16C184.622 161.824 184.292 163.275 183.63 164.512C182.969 165.728 182.041 166.667 180.846 167.328C179.652 167.989 178.244 168.32 176.622 168.32ZM176.622 165.28C177.817 165.28 178.777 164.853 179.502 164C180.228 163.125 180.59 161.845 180.59 160.16C180.59 158.453 180.228 157.184 179.502 156.352C178.777 155.499 177.817 155.072 176.622 155.072C175.428 155.072 174.468 155.499 173.742 156.352C173.017 157.184 172.654 158.453 172.654 160.16C172.654 161.845 173.017 163.125 173.742 164C174.468 164.853 175.428 165.28 176.622 165.28ZM193.588 168.32C189.748 168.32 187.828 166.165 187.828 161.856V154.112C187.828 152.768 188.489 152.096 189.812 152.096C191.156 152.096 191.828 152.768 191.828 154.112V161.92C191.828 163.029 192.052 163.851 192.5 164.384C192.948 164.917 193.662 165.184 194.644 165.184C195.71 165.184 196.585 164.821 197.268 164.096C197.95 163.349 198.292 162.368 198.292 161.152V154.112C198.292 152.768 198.953 152.096 200.276 152.096C201.62 152.096 202.292 152.768 202.292 154.112V166.208C202.292 167.573 201.641 168.256 200.34 168.256C199.038 168.256 198.388 167.573 198.388 166.208V165.664C197.342 167.435 195.742 168.32 193.588 168.32ZM208.503 168.256C207.138 168.256 206.455 167.573 206.455 166.208V154.112C206.455 152.768 207.106 152.096 208.407 152.096C209.708 152.096 210.359 152.768 210.359 154.112V155.104C211.127 153.269 212.77 152.245 215.287 152.032C216.204 151.925 216.716 152.448 216.823 153.6C216.93 154.731 216.375 155.36 215.159 155.488L214.455 155.552C211.831 155.808 210.519 157.152 210.519 159.584V166.208C210.519 167.573 209.847 168.256 208.503 168.256ZM229.658 168.256C228.335 168.256 227.674 167.573 227.674 166.208V154.112C227.674 152.768 228.324 152.096 229.626 152.096C230.927 152.096 231.578 152.768 231.578 154.112V154.784C232.111 153.888 232.826 153.205 233.722 152.736C234.639 152.267 235.663 152.032 236.794 152.032C240.484 152.032 242.33 154.176 242.33 158.464V166.208C242.33 167.573 241.668 168.256 240.346 168.256C239.002 168.256 238.33 167.573 238.33 166.208V158.656C238.33 157.44 238.095 156.555 237.626 156C237.178 155.445 236.474 155.168 235.514 155.168C234.34 155.168 233.402 155.541 232.698 156.288C232.015 157.013 231.674 157.984 231.674 159.2V166.208C231.674 167.573 231.002 168.256 229.658 168.256ZM251.545 168.32C250.414 168.32 249.401 168.107 248.505 167.68C247.63 167.232 246.937 166.635 246.424 165.888C245.934 165.141 245.689 164.299 245.689 163.36C245.689 162.208 245.987 161.301 246.585 160.64C247.182 159.957 248.153 159.467 249.497 159.168C250.841 158.869 252.643 158.72 254.905 158.72H256.025V158.048C256.025 156.981 255.79 156.213 255.321 155.744C254.851 155.275 254.062 155.04 252.953 155.04C252.334 155.04 251.662 155.115 250.937 155.264C250.233 155.413 249.486 155.669 248.697 156.032C248.185 156.267 247.758 156.299 247.417 156.128C247.075 155.936 246.841 155.648 246.713 155.264C246.606 154.859 246.627 154.453 246.777 154.048C246.947 153.643 247.278 153.344 247.769 153.152C248.75 152.747 249.689 152.459 250.585 152.288C251.502 152.117 252.334 152.032 253.081 152.032C255.363 152.032 257.059 152.565 258.169 153.632C259.278 154.677 259.833 156.309 259.833 158.528V166.208C259.833 167.573 259.214 168.256 257.977 168.256C256.718 168.256 256.089 167.573 256.089 166.208V165.504C255.726 166.379 255.15 167.072 254.361 167.584C253.571 168.075 252.633 168.32 251.545 168.32ZM252.377 165.568C253.422 165.568 254.286 165.205 254.969 164.48C255.673 163.755 256.025 162.837 256.025 161.728V161.024H254.937C252.931 161.024 251.534 161.184 250.745 161.504C249.977 161.803 249.593 162.357 249.593 163.168C249.593 163.872 249.838 164.448 250.329 164.896C250.819 165.344 251.502 165.568 252.377 165.568ZM265.941 168.256C264.618 168.256 263.957 167.573 263.957 166.208V154.112C263.957 152.768 264.607 152.096 265.909 152.096C267.21 152.096 267.861 152.768 267.861 154.112V154.752C268.33 153.899 268.981 153.237 269.812 152.768C270.645 152.277 271.605 152.032 272.693 152.032C275.039 152.032 276.575 153.056 277.301 155.104C277.791 154.144 278.495 153.397 279.413 152.864C280.33 152.309 281.375 152.032 282.549 152.032C286.069 152.032 287.829 154.176 287.829 158.464V166.208C287.829 167.573 287.157 168.256 285.813 168.256C284.49 168.256 283.829 167.573 283.829 166.208V158.624C283.829 157.429 283.626 156.555 283.221 156C282.837 155.445 282.175 155.168 281.237 155.168C280.191 155.168 279.37 155.541 278.773 156.288C278.175 157.013 277.877 158.027 277.877 159.328V166.208C277.877 167.573 277.215 168.256 275.893 168.256C274.549 168.256 273.877 167.573 273.877 166.208V158.624C273.877 157.429 273.674 156.555 273.269 156C272.885 155.445 272.234 155.168 271.317 155.168C270.271 155.168 269.45 155.541 268.853 156.288C268.255 157.013 267.957 158.027 267.957 159.328V166.208C267.957 167.573 267.285 168.256 265.941 168.256ZM299.667 168.32C297.896 168.32 296.371 167.989 295.091 167.328C293.811 166.667 292.819 165.728 292.115 164.512C291.432 163.296 291.091 161.856 291.091 160.192C291.091 158.571 291.422 157.152 292.083 155.936C292.766 154.72 293.694 153.771 294.867 153.088C296.062 152.384 297.416 152.032 298.931 152.032C301.15 152.032 302.899 152.736 304.179 154.144C305.48 155.552 306.131 157.472 306.131 159.904C306.131 160.693 305.619 161.088 304.595 161.088H294.931C295.23 163.883 296.83 165.28 299.731 165.28C300.286 165.28 300.904 165.216 301.587 165.088C302.291 164.939 302.952 164.693 303.571 164.352C304.126 164.032 304.595 163.936 304.979 164.064C305.363 164.171 305.63 164.395 305.779 164.736C305.95 165.077 305.971 165.461 305.843 165.888C305.736 166.293 305.438 166.645 304.947 166.944C304.2 167.413 303.336 167.765 302.355 168C301.395 168.213 300.499 168.32 299.667 168.32ZM299.091 154.752C297.918 154.752 296.968 155.115 296.243 155.84C295.518 156.565 295.08 157.547 294.931 158.784H302.803C302.718 157.483 302.355 156.491 301.715 155.808C301.096 155.104 300.222 154.752 299.091 154.752ZM314.042 161.472C313.637 161.472 313.317 161.344 313.082 161.088C312.869 160.811 312.762 160.448 312.762 160C312.762 159.019 312.944 158.101 313.306 157.248C313.69 156.395 314.33 155.467 315.226 154.464C315.909 153.717 316.378 153.077 316.634 152.544C316.912 152.011 317.05 151.445 317.05 150.848C317.05 150.144 316.794 149.589 316.282 149.184C315.77 148.779 315.045 148.576 314.106 148.576C313.253 148.576 312.474 148.693 311.77 148.928C311.088 149.141 310.394 149.451 309.69 149.856C309.114 150.197 308.602 150.315 308.154 150.208C307.728 150.08 307.418 149.824 307.226 149.44C307.034 149.056 307.002 148.629 307.13 148.16C307.258 147.691 307.6 147.275 308.154 146.912C309.029 146.336 310.032 145.899 311.162 145.6C312.293 145.28 313.36 145.12 314.362 145.12C315.706 145.12 316.88 145.344 317.882 145.792C318.906 146.24 319.696 146.859 320.25 147.648C320.826 148.437 321.114 149.365 321.114 150.432C321.114 151.413 320.89 152.331 320.442 153.184C320.016 154.037 319.248 154.965 318.138 155.968C317.136 156.885 316.442 157.675 316.058 158.336C315.674 158.997 315.429 159.701 315.322 160.448C315.301 160.747 315.173 160.992 314.938 161.184C314.725 161.376 314.426 161.472 314.042 161.472ZM313.978 168.16C313.253 168.16 312.666 167.936 312.218 167.488C311.792 167.04 311.578 166.464 311.578 165.76C311.578 165.077 311.792 164.523 312.218 164.096C312.666 163.648 313.253 163.424 313.978 163.424C314.725 163.424 315.301 163.648 315.706 164.096C316.133 164.523 316.346 165.077 316.346 165.76C316.346 166.464 316.133 167.04 315.706 167.488C315.301 167.936 314.725 168.16 313.978 168.16ZM330.281 170.24H362.281V138.24H330.281V170.24ZM370.969 170.24H402.969V138.24H370.969V170.24Z" fill="#212121"/>
<path d="M26.288 231.128C25.584 231.128 25.232 230.765 25.232 230.04V220.808C25.232 220.083 25.5947 219.72 26.32 219.72H31.904C32.4587 219.72 32.736 219.987 32.736 220.52C32.736 221.075 32.4587 221.352 31.904 221.352H27.28V224.536H31.568C32.1227 224.536 32.4 224.803 32.4 225.336C32.4 225.891 32.1227 226.168 31.568 226.168H27.28V230.04C27.28 230.765 26.9493 231.128 26.288 231.128ZM36.8533 231.16C34.9332 231.16 33.9732 230.083 33.9732 227.928V224.056C33.9732 223.384 34.3039 223.048 34.9652 223.048C35.6372 223.048 35.9732 223.384 35.9732 224.056V227.96C35.9732 228.515 36.0852 228.925 36.3092 229.192C36.5333 229.459 36.8906 229.592 37.3812 229.592C37.9146 229.592 38.3519 229.411 38.6933 229.048C39.0346 228.675 39.2053 228.184 39.2053 227.576V224.056C39.2053 223.384 39.5359 223.048 40.1973 223.048C40.8692 223.048 41.2052 223.384 41.2052 224.056V230.104C41.2052 230.787 40.8799 231.128 40.2292 231.128C39.5786 231.128 39.2533 230.787 39.2533 230.104V229.832C38.7306 230.717 37.9306 231.16 36.8533 231.16ZM46.1589 231.16C44.3775 231.16 43.4869 230.163 43.4869 228.168V220.6C43.4869 219.928 43.8175 219.592 44.4789 219.592C45.1509 219.592 45.4869 219.928 45.4869 220.6V228.072C45.4869 229.032 45.8869 229.512 46.6869 229.512C46.7722 229.512 46.8522 229.512 46.9269 229.512C47.0015 229.501 47.0762 229.491 47.1509 229.48C47.3002 229.459 47.4015 229.501 47.4549 229.608C47.5082 229.704 47.5349 229.907 47.5349 230.216C47.5349 230.483 47.4815 230.691 47.3749 230.84C47.2682 230.989 47.0922 231.08 46.8469 231.112C46.6229 231.144 46.3935 231.16 46.1589 231.16ZM51.4683 231.16C49.6869 231.16 48.7963 230.163 48.7963 228.168V220.6C48.7963 219.928 49.1269 219.592 49.7883 219.592C50.4603 219.592 50.7963 219.928 50.7963 220.6V228.072C50.7963 229.032 51.1963 229.512 51.9963 229.512C52.0816 229.512 52.1616 229.512 52.2363 229.512C52.3109 229.501 52.3856 229.491 52.4603 229.48C52.6096 229.459 52.7109 229.501 52.7643 229.608C52.8176 229.704 52.8443 229.907 52.8443 230.216C52.8443 230.483 52.7909 230.691 52.6843 230.84C52.5776 230.989 52.4016 231.08 52.1563 231.112C51.9323 231.144 51.7029 231.16 51.4683 231.16ZM59.8014 231.128C59.1614 231.128 58.8414 230.797 58.8414 230.136V220.616C58.8414 220.285 58.9214 220.035 59.0814 219.864C59.252 219.683 59.4707 219.592 59.7374 219.592C59.9827 219.592 60.164 219.64 60.2814 219.736C60.4094 219.821 60.5587 219.971 60.7294 220.184L66.4414 227.592V220.568C66.4414 219.917 66.7614 219.592 67.4014 219.592C68.0307 219.592 68.3454 219.917 68.3454 220.568V230.168C68.3454 230.467 68.2707 230.701 68.1214 230.872C67.972 231.043 67.7694 231.128 67.5134 231.128C67.268 231.128 67.0707 231.08 66.9214 230.984C66.7827 230.888 66.628 230.733 66.4574 230.52L60.7454 223.096V230.136C60.7454 230.797 60.4307 231.128 59.8014 231.128ZM73.3941 231.16C72.8288 231.16 72.3221 231.053 71.8741 230.84C71.4368 230.616 71.0901 230.317 70.8341 229.944C70.5888 229.571 70.4661 229.149 70.4661 228.68C70.4661 228.104 70.6155 227.651 70.9141 227.32C71.2128 226.979 71.6981 226.733 72.3701 226.584C73.0421 226.435 73.9435 226.36 75.0741 226.36H75.6341V226.024C75.6341 225.491 75.5168 225.107 75.2821 224.872C75.0475 224.637 74.6528 224.52 74.0981 224.52C73.7888 224.52 73.4528 224.557 73.0901 224.632C72.7381 224.707 72.3648 224.835 71.9701 225.016C71.7141 225.133 71.5008 225.149 71.3301 225.064C71.1595 224.968 71.0421 224.824 70.9781 224.632C70.9248 224.429 70.9355 224.227 71.0101 224.024C71.0955 223.821 71.2608 223.672 71.5061 223.576C71.9968 223.373 72.4661 223.229 72.9141 223.144C73.3728 223.059 73.7888 223.016 74.1621 223.016C75.3035 223.016 76.1515 223.283 76.7061 223.816C77.2608 224.339 77.5381 225.155 77.5381 226.264V230.104C77.5381 230.787 77.2288 231.128 76.6101 231.128C75.9808 231.128 75.6661 230.787 75.6661 230.104V229.752C75.4848 230.189 75.1968 230.536 74.8021 230.792C74.4075 231.037 73.9381 231.16 73.3941 231.16ZM73.8101 229.784C74.3328 229.784 74.7648 229.603 75.1061 229.24C75.4581 228.877 75.6341 228.419 75.6341 227.864V227.512H75.0901C74.0875 227.512 73.3888 227.592 72.9941 227.752C72.6101 227.901 72.4181 228.179 72.4181 228.584C72.4181 228.936 72.5408 229.224 72.7861 229.448C73.0315 229.672 73.3728 229.784 73.8101 229.784ZM80.7921 231.128C80.1308 231.128 79.8001 230.787 79.8001 230.104V224.056C79.8001 223.384 80.1255 223.048 80.7761 223.048C81.4268 223.048 81.7521 223.384 81.7521 224.056V224.376C81.9868 223.949 82.3121 223.619 82.7281 223.384C83.1441 223.139 83.6241 223.016 84.1681 223.016C85.3415 223.016 86.1095 223.528 86.4721 224.552C86.7175 224.072 87.0695 223.699 87.5281 223.432C87.9868 223.155 88.5095 223.016 89.0961 223.016C90.8561 223.016 91.7361 224.088 91.7361 226.232V230.104C91.7361 230.787 91.4001 231.128 90.7281 231.128C90.0668 231.128 89.7361 230.787 89.7361 230.104V226.312C89.7361 225.715 89.6348 225.277 89.4321 225C89.2401 224.723 88.9095 224.584 88.4401 224.584C87.9175 224.584 87.5068 224.771 87.2081 225.144C86.9095 225.507 86.7601 226.013 86.7601 226.664V230.104C86.7601 230.787 86.4295 231.128 85.7681 231.128C85.0961 231.128 84.7601 230.787 84.7601 230.104V226.312C84.7601 225.715 84.6588 225.277 84.4561 225C84.2641 224.723 83.9388 224.584 83.4801 224.584C82.9575 224.584 82.5468 224.771 82.2481 225.144C81.9495 225.507 81.8001 226.013 81.8001 226.664V230.104C81.8001 230.787 81.4641 231.128 80.7921 231.128ZM97.8554 231.16C96.97 231.16 96.2074 230.995 95.5674 230.664C94.9274 230.333 94.4314 229.864 94.0794 229.256C93.738 228.648 93.5674 227.928 93.5674 227.096C93.5674 226.285 93.7327 225.576 94.0634 224.968C94.4047 224.36 94.8687 223.885 95.4554 223.544C96.0527 223.192 96.73 223.016 97.4874 223.016C98.5967 223.016 99.4714 223.368 100.111 224.072C100.762 224.776 101.087 225.736 101.087 226.952C101.087 227.347 100.831 227.544 100.319 227.544H95.4874C95.6367 228.941 96.4367 229.64 97.8874 229.64C98.1647 229.64 98.474 229.608 98.8154 229.544C99.1674 229.469 99.498 229.347 99.8074 229.176C100.085 229.016 100.319 228.968 100.511 229.032C100.703 229.085 100.837 229.197 100.911 229.368C100.997 229.539 101.007 229.731 100.943 229.944C100.89 230.147 100.741 230.323 100.495 230.472C100.122 230.707 99.69 230.883 99.1994 231C98.7194 231.107 98.2714 231.16 97.8554 231.16ZM97.5674 224.376C96.9807 224.376 96.506 224.557 96.1434 224.92C95.7807 225.283 95.562 225.773 95.4874 226.392H99.4234C99.3807 225.741 99.1994 225.245 98.8794 224.904C98.57 224.552 98.1327 224.376 97.5674 224.376Z" fill="#212121"/>
<path d="M26.016 280.192C25.456 280.192 25.056 280 24.816 279.616C24.576 279.232 24.584 278.768 24.84 278.224L31.176 264.184C31.384 263.72 31.632 263.392 31.92 263.2C32.224 262.992 32.568 262.888 32.952 262.888C33.32 262.888 33.648 262.992 33.936 263.2C34.24 263.392 34.496 263.72 34.704 264.184L41.064 278.224C41.32 278.784 41.336 279.256 41.112 279.64C40.888 280.008 40.504 280.192 39.96 280.192C39.512 280.192 39.16 280.088 38.904 279.88C38.664 279.656 38.448 279.32 38.256 278.872L37.056 276.088H28.8L27.624 278.872C27.416 279.336 27.2 279.672 26.976 279.88C26.752 280.088 26.432 280.192 26.016 280.192ZM32.904 266.416L29.856 273.64H36L32.952 266.416H32.904ZM44.9074 280.192C43.9154 280.192 43.4194 279.68 43.4194 278.656V269.584C43.4194 268.576 43.9074 268.072 44.8834 268.072C45.8594 268.072 46.3474 268.576 46.3474 269.584V270.088C46.7474 269.416 47.2834 268.904 47.9554 268.552C48.6434 268.2 49.4114 268.024 50.2594 268.024C53.0274 268.024 54.4114 269.632 54.4114 272.848V278.656C54.4114 279.68 53.9154 280.192 52.9234 280.192C51.9154 280.192 51.4114 279.68 51.4114 278.656V272.992C51.4114 272.08 51.2354 271.416 50.8834 271C50.5474 270.584 50.0194 270.376 49.2994 270.376C48.4194 270.376 47.7154 270.656 47.1874 271.216C46.6754 271.76 46.4194 272.488 46.4194 273.4V278.656C46.4194 279.68 45.9154 280.192 44.9074 280.192ZM61.9704 280.24C60.9464 280.24 60.0424 279.992 59.2584 279.496C58.4904 279 57.8904 278.296 57.4584 277.384C57.0264 276.456 56.8104 275.368 56.8104 274.12C56.8104 272.856 57.0264 271.776 57.4584 270.88C57.8904 269.968 58.4904 269.264 59.2584 268.768C60.0424 268.272 60.9464 268.024 61.9704 268.024C62.8024 268.024 63.5544 268.208 64.2264 268.576C64.8984 268.944 65.4024 269.432 65.7384 270.04V264.4C65.7384 263.392 66.2344 262.888 67.2264 262.888C68.2344 262.888 68.7384 263.392 68.7384 264.4V278.656C68.7384 279.68 68.2424 280.192 67.2504 280.192C66.2584 280.192 65.7624 279.68 65.7624 278.656V278.152C65.4264 278.792 64.9224 279.304 64.2504 279.688C63.5784 280.056 62.8184 280.24 61.9704 280.24ZM62.8104 277.96C63.7064 277.96 64.4264 277.64 64.9704 277C65.5144 276.344 65.7864 275.384 65.7864 274.12C65.7864 272.84 65.5144 271.888 64.9704 271.264C64.4264 270.624 63.7064 270.304 62.8104 270.304C61.9144 270.304 61.1944 270.624 60.6504 271.264C60.1064 271.888 59.8344 272.84 59.8344 274.12C59.8344 275.384 60.1064 276.344 60.6504 277C61.1944 277.64 61.9144 277.96 62.8104 277.96ZM73.3851 280.192C72.3611 280.192 71.8491 279.68 71.8491 278.656V269.584C71.8491 268.576 72.3371 268.072 73.3131 268.072C74.2891 268.072 74.7771 268.576 74.7771 269.584V270.328C75.3531 268.952 76.5851 268.184 78.4731 268.024C79.1611 267.944 79.5451 268.336 79.6251 269.2C79.7051 270.048 79.2891 270.52 78.3771 270.616L77.8491 270.664C75.8811 270.856 74.8971 271.864 74.8971 273.688V278.656C74.8971 279.68 74.3931 280.192 73.3851 280.192ZM86.844 280.24C85.516 280.24 84.372 279.992 83.412 279.496C82.452 279 81.708 278.296 81.18 277.384C80.668 276.472 80.412 275.392 80.412 274.144C80.412 272.928 80.66 271.864 81.156 270.952C81.668 270.04 82.364 269.328 83.244 268.816C84.14 268.288 85.156 268.024 86.292 268.024C87.956 268.024 89.268 268.552 90.228 269.608C91.204 270.664 91.692 272.104 91.692 273.928C91.692 274.52 91.308 274.816 90.54 274.816H83.292C83.516 276.912 84.716 277.96 86.892 277.96C87.308 277.96 87.772 277.912 88.284 277.816C88.812 277.704 89.308 277.52 89.772 277.264C90.188 277.024 90.54 276.952 90.828 277.048C91.116 277.128 91.316 277.296 91.428 277.552C91.556 277.808 91.572 278.096 91.476 278.416C91.396 278.72 91.172 278.984 90.804 279.208C90.244 279.56 89.596 279.824 88.86 280C88.14 280.16 87.468 280.24 86.844 280.24ZM86.412 270.064C85.532 270.064 84.82 270.336 84.276 270.88C83.732 271.424 83.404 272.16 83.292 273.088H89.196C89.132 272.112 88.86 271.368 88.38 270.856C87.916 270.328 87.26 270.064 86.412 270.064ZM98.4163 280.192C97.5843 280.192 97.0083 279.776 96.6883 278.944L93.2083 270.064C93.0003 269.504 93.0083 269.032 93.2323 268.648C93.4723 268.264 93.8883 268.072 94.4803 268.072C94.8323 268.072 95.1203 268.16 95.3443 268.336C95.5683 268.496 95.7603 268.808 95.9203 269.272L98.5603 276.496L101.272 269.08C101.528 268.408 101.984 268.072 102.64 268.072C103.312 268.072 103.768 268.408 104.008 269.08L106.72 276.568L109.384 269.2C109.544 268.768 109.744 268.472 109.984 268.312C110.24 268.152 110.52 268.072 110.824 268.072C111.4 268.072 111.776 268.28 111.952 268.696C112.128 269.096 112.112 269.552 111.904 270.064L108.448 278.944C108.112 279.776 107.536 280.192 106.72 280.192C105.872 280.192 105.296 279.776 104.992 278.944L102.544 272.44L100.144 278.92C99.8403 279.768 99.2643 280.192 98.4163 280.192ZM121.313 280.192C120.753 280.192 120.353 280 120.113 279.616C119.873 279.232 119.881 278.768 120.137 278.224L126.473 264.184C126.681 263.72 126.929 263.392 127.217 263.2C127.521 262.992 127.865 262.888 128.249 262.888C128.617 262.888 128.945 262.992 129.233 263.2C129.537 263.392 129.793 263.72 130.001 264.184L136.361 278.224C136.617 278.784 136.633 279.256 136.409 279.64C136.185 280.008 135.801 280.192 135.257 280.192C134.809 280.192 134.457 280.088 134.201 279.88C133.961 279.656 133.745 279.32 133.553 278.872L132.353 276.088H124.097L122.921 278.872C122.713 279.336 122.497 279.672 122.273 279.88C122.049 280.088 121.729 280.192 121.313 280.192ZM128.201 266.416L125.153 273.64H131.297L128.249 266.416H128.201ZM140.204 265.864C139.644 265.864 139.204 265.728 138.884 265.456C138.58 265.168 138.428 264.776 138.428 264.28C138.428 263.768 138.58 263.376 138.884 263.104C139.204 262.832 139.644 262.696 140.204 262.696C141.388 262.696 141.98 263.224 141.98 264.28C141.98 265.336 141.388 265.864 140.204 265.864ZM140.204 280.168C139.724 280.168 139.356 280.024 139.1 279.736C138.844 279.448 138.716 279.048 138.716 278.536V269.728C138.716 268.64 139.212 268.096 140.204 268.096C141.212 268.096 141.716 268.64 141.716 269.728V278.536C141.716 279.048 141.588 279.448 141.332 279.736C141.076 280.024 140.7 280.168 140.204 280.168ZM146.321 280.192C145.329 280.192 144.833 279.68 144.833 278.656V269.584C144.833 268.576 145.321 268.072 146.297 268.072C147.273 268.072 147.761 268.576 147.761 269.584V270.088C148.161 269.416 148.697 268.904 149.369 268.552C150.057 268.2 150.825 268.024 151.673 268.024C154.441 268.024 155.825 269.632 155.825 272.848V278.656C155.825 279.68 155.329 280.192 154.337 280.192C153.329 280.192 152.825 279.68 152.825 278.656V272.992C152.825 272.08 152.649 271.416 152.297 271C151.961 270.584 151.433 270.376 150.713 270.376C149.833 270.376 149.129 270.656 148.601 271.216C148.089 271.76 147.833 272.488 147.833 273.4V278.656C147.833 279.68 147.329 280.192 146.321 280.192ZM163.169 280.24C162.481 280.24 161.753 280.168 160.985 280.024C160.217 279.88 159.529 279.632 158.921 279.28C158.585 279.088 158.377 278.856 158.297 278.584C158.217 278.296 158.225 278.032 158.321 277.792C158.433 277.536 158.609 277.352 158.849 277.24C159.105 277.128 159.401 277.152 159.737 277.312C160.377 277.616 160.977 277.832 161.537 277.96C162.097 278.072 162.649 278.128 163.193 278.128C163.961 278.128 164.529 278 164.897 277.744C165.281 277.472 165.473 277.12 165.473 276.688C165.473 276.016 164.977 275.584 163.985 275.392L161.585 274.936C159.553 274.552 158.537 273.496 158.537 271.768C158.537 271 158.745 270.336 159.161 269.776C159.593 269.216 160.185 268.784 160.937 268.48C161.689 268.176 162.553 268.024 163.529 268.024C164.937 268.024 166.193 268.336 167.297 268.96C167.601 269.12 167.777 269.344 167.825 269.632C167.889 269.904 167.857 270.168 167.729 270.424C167.617 270.664 167.433 270.84 167.177 270.952C166.921 271.048 166.625 271.016 166.289 270.856C165.793 270.6 165.313 270.416 164.849 270.304C164.401 270.192 163.969 270.136 163.553 270.136C162.769 270.136 162.185 270.272 161.801 270.544C161.433 270.816 161.249 271.176 161.249 271.624C161.249 272.328 161.705 272.76 162.617 272.92L165.017 273.376C166.057 273.568 166.841 273.92 167.369 274.432C167.913 274.944 168.185 275.632 168.185 276.496C168.185 277.664 167.729 278.584 166.817 279.256C165.905 279.912 164.689 280.24 163.169 280.24ZM174.599 280.24C171.927 280.24 170.591 278.744 170.591 275.752V264.4C170.591 263.392 171.087 262.888 172.079 262.888C173.087 262.888 173.591 263.392 173.591 264.4V275.608C173.591 277.048 174.191 277.768 175.391 277.768C175.519 277.768 175.639 277.768 175.751 277.768C175.863 277.752 175.975 277.736 176.087 277.72C176.311 277.688 176.463 277.752 176.543 277.912C176.623 278.056 176.663 278.36 176.663 278.824C176.663 279.224 176.583 279.536 176.423 279.76C176.263 279.984 175.999 280.12 175.631 280.168C175.295 280.216 174.951 280.24 174.599 280.24ZM183.922 280.24C182.594 280.24 181.45 279.992 180.49 279.496C179.53 279 178.786 278.296 178.258 277.384C177.746 276.472 177.49 275.392 177.49 274.144C177.49 272.928 177.738 271.864 178.234 270.952C178.746 270.04 179.442 269.328 180.322 268.816C181.218 268.288 182.234 268.024 183.37 268.024C185.034 268.024 186.346 268.552 187.306 269.608C188.282 270.664 188.77 272.104 188.77 273.928C188.77 274.52 188.386 274.816 187.618 274.816H180.37C180.594 276.912 181.794 277.96 183.97 277.96C184.386 277.96 184.85 277.912 185.362 277.816C185.89 277.704 186.386 277.52 186.85 277.264C187.266 277.024 187.618 276.952 187.906 277.048C188.194 277.128 188.394 277.296 188.506 277.552C188.634 277.808 188.65 278.096 188.554 278.416C188.474 278.72 188.25 278.984 187.882 279.208C187.322 279.56 186.674 279.824 185.938 280C185.218 280.16 184.546 280.24 183.922 280.24ZM183.49 270.064C182.61 270.064 181.898 270.336 181.354 270.88C180.81 271.424 180.482 272.16 180.37 273.088H186.274C186.21 272.112 185.938 271.368 185.458 270.856C184.994 270.328 184.338 270.064 183.49 270.064ZM193.934 284.512C193.39 284.512 193.014 284.312 192.806 283.912C192.598 283.512 192.606 283.056 192.83 282.544L194.198 279.52L190.094 270.064C189.87 269.536 189.87 269.072 190.094 268.672C190.318 268.272 190.758 268.072 191.414 268.072C191.782 268.072 192.078 268.16 192.302 268.336C192.526 268.496 192.726 268.808 192.902 269.272L195.782 276.472L198.734 269.248C198.91 268.8 199.118 268.496 199.358 268.336C199.598 268.16 199.918 268.072 200.318 268.072C200.83 268.072 201.19 268.272 201.398 268.672C201.606 269.072 201.598 269.528 201.374 270.04L195.542 283.36C195.334 283.808 195.11 284.112 194.87 284.272C194.63 284.432 194.318 284.512 193.934 284.512Z" fill="#212121"/>
<rect x="24" y="299" width="382" height="1" rx="0.5" fill="#6949FF"/>
<mask id="path-9-inside-1_2032_28123" fill="white">
<path d="M0 814H430V932H0V814Z"/>
</mask>
<path d="M0 814H430V932H0V814Z" fill="white"/>
<path d="M0 815H430V813H0V815Z" fill="#F5F5F5" mask="url(#path-9-inside-1_2032_28123)"/>
<g filter="url(#filter0_d_2032_28123)">
<rect x="24" y="838" width="382" height="58" rx="29" fill="#6949FF" shape-rendering="crispEdges"/>
<path d="M187.475 872.16C186.302 872.16 185.294 871.925 184.451 871.456C183.619 870.976 182.979 870.304 182.531 869.44C182.083 868.565 181.859 867.536 181.859 866.352C181.859 865.168 182.083 864.144 182.531 863.28C182.979 862.416 183.619 861.749 184.451 861.28C185.294 860.8 186.302 860.56 187.475 860.56C188.062 860.56 188.638 860.635 189.203 860.784C189.769 860.933 190.265 861.147 190.691 861.424C190.969 861.605 191.134 861.824 191.187 862.08C191.241 862.325 191.209 862.555 191.091 862.768C190.974 862.971 190.798 863.109 190.563 863.184C190.329 863.248 190.067 863.184 189.779 862.992C189.449 862.779 189.091 862.624 188.707 862.528C188.323 862.432 187.934 862.384 187.539 862.384C186.398 862.384 185.529 862.731 184.931 863.424C184.334 864.107 184.035 865.083 184.035 866.352C184.035 867.621 184.334 868.603 184.931 869.296C185.529 869.989 186.398 870.336 187.539 870.336C187.945 870.336 188.345 870.288 188.739 870.192C189.134 870.085 189.507 869.925 189.859 869.712C190.147 869.531 190.403 869.472 190.627 869.536C190.851 869.6 191.017 869.733 191.123 869.936C191.241 870.128 191.278 870.341 191.235 870.576C191.193 870.811 191.049 871.019 190.803 871.2C190.377 871.509 189.865 871.749 189.267 871.92C188.681 872.08 188.083 872.16 187.475 872.16ZM196.116 872.16C195.305 872.16 194.601 871.995 194.004 871.664C193.406 871.333 192.942 870.864 192.612 870.256C192.281 869.637 192.116 868.912 192.116 868.08C192.116 867.248 192.281 866.528 192.612 865.92C192.942 865.312 193.406 864.843 194.004 864.512C194.601 864.181 195.305 864.016 196.116 864.016C196.926 864.016 197.63 864.181 198.228 864.512C198.825 864.843 199.289 865.312 199.62 865.92C199.95 866.528 200.116 867.248 200.116 868.08C200.116 868.912 199.95 869.637 199.62 870.256C199.289 870.864 198.825 871.333 198.228 871.664C197.63 871.995 196.926 872.16 196.116 872.16ZM196.116 870.64C196.713 870.64 197.193 870.427 197.556 870C197.918 869.563 198.1 868.923 198.1 868.08C198.1 867.227 197.918 866.592 197.556 866.176C197.193 865.749 196.713 865.536 196.116 865.536C195.518 865.536 195.038 865.749 194.676 866.176C194.313 866.592 194.132 867.227 194.132 868.08C194.132 868.923 194.313 869.563 194.676 870C195.038 870.427 195.518 870.64 196.116 870.64ZM202.959 872.128C202.297 872.128 201.967 871.787 201.967 871.104V865.056C201.967 864.384 202.292 864.048 202.943 864.048C203.593 864.048 203.919 864.384 203.919 865.056V865.392C204.185 864.944 204.543 864.603 204.991 864.368C205.449 864.133 205.961 864.016 206.527 864.016C208.372 864.016 209.295 865.088 209.295 867.232V871.104C209.295 871.787 208.964 872.128 208.303 872.128C207.631 872.128 207.295 871.787 207.295 871.104V867.328C207.295 866.72 207.177 866.277 206.943 866C206.719 865.723 206.367 865.584 205.887 865.584C205.3 865.584 204.831 865.771 204.479 866.144C204.137 866.507 203.967 866.992 203.967 867.6V871.104C203.967 871.787 203.631 872.128 202.959 872.128ZM215.11 872.16C213.041 872.16 212.006 871.136 212.006 869.088V865.68H211.174C210.641 865.68 210.374 865.429 210.374 864.928C210.374 864.427 210.641 864.176 211.174 864.176H212.006V862.72C212.006 862.048 212.342 861.712 213.014 861.712C213.675 861.712 214.006 862.048 214.006 862.72V864.176H215.702C216.235 864.176 216.502 864.427 216.502 864.928C216.502 865.429 216.235 865.68 215.702 865.68H214.006V868.976C214.006 869.488 214.118 869.872 214.342 870.128C214.566 870.384 214.929 870.512 215.43 870.512C215.611 870.512 215.771 870.496 215.91 870.464C216.049 870.432 216.171 870.411 216.278 870.4C216.406 870.389 216.513 870.432 216.598 870.528C216.683 870.613 216.726 870.795 216.726 871.072C216.726 871.285 216.689 871.477 216.614 871.648C216.55 871.808 216.427 871.92 216.246 871.984C216.107 872.027 215.926 872.064 215.702 872.096C215.478 872.139 215.281 872.16 215.11 872.16ZM219.062 862.576C218.688 862.576 218.395 862.485 218.182 862.304C217.979 862.112 217.878 861.851 217.878 861.52C217.878 861.179 217.979 860.917 218.182 860.736C218.395 860.555 218.688 860.464 219.062 860.464C219.851 860.464 220.246 860.816 220.246 861.52C220.246 862.224 219.851 862.576 219.062 862.576ZM219.062 872.112C218.742 872.112 218.496 872.016 218.326 871.824C218.155 871.632 218.07 871.365 218.07 871.024V865.152C218.07 864.427 218.4 864.064 219.062 864.064C219.734 864.064 220.07 864.427 220.07 865.152V871.024C220.07 871.365 219.984 871.632 219.814 871.824C219.643 872.016 219.392 872.112 219.062 872.112ZM223.34 872.128C222.678 872.128 222.348 871.787 222.348 871.104V865.056C222.348 864.384 222.673 864.048 223.324 864.048C223.974 864.048 224.3 864.384 224.3 865.056V865.392C224.566 864.944 224.924 864.603 225.372 864.368C225.83 864.133 226.342 864.016 226.908 864.016C228.753 864.016 229.676 865.088 229.676 867.232V871.104C229.676 871.787 229.345 872.128 228.684 872.128C228.012 872.128 227.676 871.787 227.676 871.104V867.328C227.676 866.72 227.558 866.277 227.324 866C227.1 865.723 226.748 865.584 226.268 865.584C225.681 865.584 225.212 865.771 224.86 866.144C224.518 866.507 224.348 866.992 224.348 867.6V871.104C224.348 871.787 224.012 872.128 223.34 872.128ZM234.739 872.16C232.819 872.16 231.859 871.083 231.859 868.928V865.056C231.859 864.384 232.19 864.048 232.851 864.048C233.523 864.048 233.859 864.384 233.859 865.056V868.96C233.859 869.515 233.971 869.925 234.195 870.192C234.419 870.459 234.777 870.592 235.267 870.592C235.801 870.592 236.238 870.411 236.579 870.048C236.921 869.675 237.091 869.184 237.091 868.576V865.056C237.091 864.384 237.422 864.048 238.083 864.048C238.755 864.048 239.091 864.384 239.091 865.056V871.104C239.091 871.787 238.766 872.128 238.115 872.128C237.465 872.128 237.139 871.787 237.139 871.104V870.832C236.617 871.717 235.817 872.16 234.739 872.16ZM245.229 872.16C244.343 872.16 243.581 871.995 242.941 871.664C242.301 871.333 241.805 870.864 241.453 870.256C241.111 869.648 240.941 868.928 240.941 868.096C240.941 867.285 241.106 866.576 241.437 865.968C241.778 865.36 242.242 864.885 242.829 864.544C243.426 864.192 244.103 864.016 244.861 864.016C245.97 864.016 246.845 864.368 247.485 865.072C248.135 865.776 248.461 866.736 248.461 867.952C248.461 868.347 248.205 868.544 247.693 868.544H242.861C243.01 869.941 243.81 870.64 245.261 870.64C245.538 870.64 245.847 870.608 246.189 870.544C246.541 870.469 246.871 870.347 247.181 870.176C247.458 870.016 247.693 869.968 247.885 870.032C248.077 870.085 248.21 870.197 248.285 870.368C248.37 870.539 248.381 870.731 248.317 870.944C248.263 871.147 248.114 871.323 247.869 871.472C247.495 871.707 247.063 871.883 246.573 872C246.093 872.107 245.645 872.16 245.229 872.16ZM244.941 865.376C244.354 865.376 243.879 865.557 243.517 865.92C243.154 866.283 242.935 866.773 242.861 867.392H246.797C246.754 866.741 246.573 866.245 246.253 865.904C245.943 865.552 245.506 865.376 244.941 865.376Z" fill="white"/>
</g>
<path d="M26.968 27.144C26.4987 27.144 26.008 27.0587 25.496 26.888C24.9947 26.7173 24.536 26.472 24.12 26.152C23.9493 26.024 23.8533 25.8693 23.832 25.688C23.8107 25.5067 23.8427 25.3413 23.928 25.192C24.0133 25.032 24.136 24.9253 24.296 24.872C24.4667 24.8187 24.6533 24.856 24.856 24.984C25.2187 25.2507 25.576 25.4427 25.928 25.56C26.2907 25.6773 26.648 25.736 27 25.736C27.992 25.736 28.7493 25.3787 29.272 24.664C29.8053 23.9387 30.072 22.8613 30.072 21.432V20.792C29.8587 21.4427 29.4853 21.9547 28.952 22.328C28.4293 22.6907 27.8213 22.872 27.128 22.872C26.4667 22.872 25.88 22.7173 25.368 22.408C24.8667 22.0987 24.472 21.6773 24.184 21.144C23.896 20.6 23.752 19.9813 23.752 19.288C23.752 18.5627 23.9067 17.9227 24.216 17.368C24.5253 16.8027 24.952 16.3653 25.496 16.056C26.0507 15.736 26.6853 15.576 27.4 15.576C28.7653 15.576 29.816 16.0613 30.552 17.032C31.2987 18.0027 31.672 19.3627 31.672 21.112C31.672 23.0427 31.256 24.5307 30.424 25.576C29.592 26.6213 28.44 27.144 26.968 27.144ZM27.512 21.512C28.1627 21.512 28.6907 21.2987 29.096 20.872C29.5013 20.4453 29.704 19.8907 29.704 19.208C29.704 18.5253 29.5013 17.9707 29.096 17.544C28.6907 17.1173 28.1627 16.904 27.512 16.904C26.8613 16.904 26.3333 17.1173 25.928 17.544C25.5227 17.9707 25.32 18.5253 25.32 19.208C25.32 19.8907 25.5227 20.4453 25.928 20.872C26.3333 21.2987 26.8613 21.512 27.512 21.512ZM34.7137 21.16C34.3937 21.16 34.1377 21.064 33.9457 20.872C33.7644 20.68 33.6737 20.44 33.6737 20.152C33.6737 19.8427 33.7644 19.5973 33.9457 19.416C34.1377 19.224 34.3937 19.128 34.7137 19.128C35.0231 19.128 35.2684 19.224 35.4497 19.416C35.6311 19.5973 35.7218 19.8427 35.7218 20.152C35.7218 20.44 35.6311 20.68 35.4497 20.872C35.2684 21.064 35.0231 21.16 34.7137 21.16ZM34.7137 27.064C34.3937 27.064 34.1377 26.968 33.9457 26.776C33.7644 26.584 33.6737 26.3387 33.6737 26.04C33.6737 25.7413 33.7644 25.5013 33.9457 25.32C34.1377 25.128 34.3937 25.032 34.7137 25.032C35.0231 25.032 35.2684 25.128 35.4497 25.32C35.6311 25.5013 35.7218 25.7413 35.7218 26.04C35.7218 26.3387 35.6311 26.584 35.4497 26.776C35.2684 26.968 35.0231 27.064 34.7137 27.064ZM43.4466 27.112C43.1906 27.112 42.988 27.0427 42.8386 26.904C42.6893 26.7547 42.6146 26.552 42.6146 26.296V24.712H38.3266C38.06 24.712 37.8466 24.6533 37.6866 24.536C37.5266 24.4187 37.4466 24.2427 37.4466 24.008C37.4466 23.8587 37.484 23.704 37.5586 23.544C37.6333 23.384 37.756 23.176 37.9266 22.92L42.5826 16.152C42.7 15.9707 42.8333 15.8373 42.9826 15.752C43.132 15.656 43.3026 15.608 43.4946 15.608C43.7186 15.608 43.9 15.6773 44.0386 15.816C44.188 15.944 44.2626 16.1467 44.2626 16.424V23.32H45.2706C45.772 23.32 46.0226 23.5493 46.0226 24.008C46.0226 24.4773 45.772 24.712 45.2706 24.712H44.2626V26.296C44.2626 26.84 43.9906 27.112 43.4466 27.112ZM42.6146 23.32V18.296L39.1746 23.32H42.6146ZM49.0644 27C48.5844 27 48.3444 26.7653 48.3444 26.296C48.3444 25.8373 48.5844 25.608 49.0644 25.608H51.0164V17.624L49.5124 18.584C49.3097 18.712 49.1177 18.7493 48.9364 18.696C48.7657 18.632 48.6324 18.52 48.5364 18.36C48.451 18.2 48.4244 18.0293 48.4564 17.848C48.499 17.656 48.6217 17.496 48.8244 17.368L51.0324 15.976C51.2137 15.8693 51.3844 15.784 51.5444 15.72C51.715 15.6453 51.875 15.608 52.0244 15.608C52.2057 15.608 52.355 15.6613 52.4724 15.768C52.6004 15.8747 52.6644 16.04 52.6644 16.264V25.608H54.4564C54.947 25.608 55.1924 25.8373 55.1924 26.296C55.1924 26.7653 54.947 27 54.4564 27H49.0644Z" fill="black"/>
<path fill-rule="evenodd" clip-rule="evenodd" d="M353 18H352C351.448 18 351 18.4197 351 18.9375V27.0625C351 27.5803 351.448 28 352 28H353C353.552 28 354 27.5803 354 27.0625V18.9375C354 18.4197 353.552 18 353 18ZM347 20H348C348.552 20 349 20.4298 349 20.96V27.04C349 27.5702 348.552 28 348 28H347C346.448 28 346 27.5702 346 27.04V20.96C346 20.4298 346.448 20 347 20ZM343 22H342C341.448 22 341 22.4477 341 23V27C341 27.5523 341.448 28 342 28H343C343.552 28 344 27.5523 344 27V23C344 22.4477 343.552 22 343 22ZM338 24H337C336.448 24 336 24.4477 336 25V27C336 27.5523 336.448 28 337 28H338C338.552 28 339 27.5523 339 27V25C339 24.4477 338.552 24 338 24Z" fill="black"/>
<path fill-rule="evenodd" clip-rule="evenodd" d="M366.637 19.2773C368.852 19.2774 370.984 20.1289 372.59 21.6557C372.711 21.7735 372.904 21.772 373.023 21.6523L374.179 20.4857C374.239 20.4249 374.273 20.3427 374.272 20.2571C374.272 20.1715 374.237 20.0897 374.176 20.0297C369.961 15.9901 363.311 15.9901 359.096 20.0297C359.035 20.0896 359.001 20.1715 359 20.257C358.999 20.3426 359.033 20.4249 359.093 20.4857L360.25 21.6523C360.369 21.7722 360.562 21.7737 360.683 21.6557C362.289 20.1288 364.42 19.2773 366.637 19.2773ZM366.637 23.0729C367.854 23.0728 369.028 23.5254 369.931 24.3426C370.053 24.4585 370.245 24.456 370.364 24.3369L371.519 23.1702C371.579 23.109 371.613 23.026 371.612 22.9398C371.611 22.8535 371.576 22.7712 371.514 22.7112C368.766 20.1548 364.51 20.1548 361.762 22.7112C361.699 22.7712 361.664 22.8535 361.663 22.9398C361.662 23.0261 361.696 23.1091 361.757 23.1702L362.912 24.3369C363.031 24.456 363.223 24.4585 363.345 24.3426C364.247 23.5259 365.42 23.0734 366.637 23.0729ZM368.95 25.6267C368.951 25.7132 368.917 25.7966 368.856 25.8572L366.858 27.8729C366.8 27.9321 366.72 27.9655 366.637 27.9655C366.553 27.9655 366.473 27.9321 366.415 27.8729L364.417 25.8572C364.356 25.7966 364.322 25.7131 364.323 25.6266C364.325 25.5401 364.363 25.4582 364.427 25.4002C365.703 24.3213 367.571 24.3213 368.846 25.4002C368.91 25.4583 368.948 25.5402 368.95 25.6267Z" fill="black"/>
<path opacity="0.35" d="M382.667 16.5H402.333C403.53 16.5 404.5 17.4704 404.5 18.667V26.333C404.5 27.5296 403.53 28.5 402.333 28.5H382.667C381.47 28.5 380.5 27.5296 380.5 26.333V18.667L380.511 18.4453C380.622 17.3527 381.545 16.5 382.667 16.5Z" stroke="black"/>
<path opacity="0.4" d="M405.65 21V25C406.455 24.6612 406.978 23.8731 406.978 23C406.978 22.1269 406.455 21.3388 405.65 21Z" fill="black"/>
<path d="M382.3 19.6663C382.3 18.93 382.897 18.333 383.633 18.333H401.166C401.903 18.333 402.5 18.93 402.5 19.6663V25.3297C402.5 26.0661 401.903 26.663 401.166 26.663H383.633C382.897 26.663 382.3 26.0661 382.3 25.3297V19.6663Z" fill="black"/>
</g>
<defs>
<filter id="filter0_d_2032_28123" x="4" y="822" width="430" height="106" filterUnits="userSpaceOnUse" color-interpolation-filters="sRGB">
<feFlood flood-opacity="0" result="BackgroundImageFix"/>
<feColorMatrix in="SourceAlpha" type="matrix" values="0 0 0 0 0 0 0 0 0 0 0 0 0 0 0 0 0 0 127 0" result="hardAlpha"/>
<feOffset dx="4" dy="8"/>
<feGaussianBlur stdDeviation="12"/>
<feComposite in2="hardAlpha" operator="out"/>
<feColorMatrix type="matrix" values="0 0 0 0 0.411765 0 0 0 0 0.286275 0 0 0 0 1 0 0 0 0.25 0"/>
<feBlend mode="normal" in2="BackgroundImageFix" result="effect1_dropShadow_2032_28123"/>
<feBlend mode="normal" in="SourceGraphic" in2="effect1_dropShadow_2032_28123" result="shape"/>
</filter>
<clipPath id="clip0_2032_28123">
<rect width="430" height="932" fill="white"/>
</clipPath>
</defs>
</svg>
