<svg width="120" height="105" viewBox="0 0 120 105" fill="none" xmlns="http://www.w3.org/2000/svg">
<ellipse cx="60" cy="52.5" rx="60" ry="52.5" fill="#FF981F"/>
<ellipse cx="60" cy="45.1316" rx="60" ry="45.1316" fill="#FFC107"/>
<path d="M55.1268 14.0308C55.1268 11.0295 52.6893 8.57186 49.6992 8.83067C43.5383 9.36394 37.555 10.8017 32.0907 13.0777C25.0327 16.0175 19.0691 20.2604 14.7534 25.4126C10.4377 30.5649 7.90966 36.4597 7.40393 42.5498C7.04198 46.9085 7.72424 51.2661 9.39856 55.4157C10.5846 58.3551 13.9909 59.4903 16.9765 58.4258C21.0204 56.9841 22.5733 52.108 21.8967 47.8684C21.6522 46.3359 21.5919 44.7842 21.7208 43.2323C22.0748 38.9691 23.8444 34.8428 26.8654 31.2362C29.8864 27.6296 34.0609 24.6596 39.0015 22.6018C42.3454 21.209 45.9668 20.2647 49.7063 19.7997C52.6846 19.4294 55.1268 17.032 55.1268 14.0308Z" fill="#FFDA6A"/>
<path fill-rule="evenodd" clip-rule="evenodd" d="M52.062 26.6665H67.957C74.172 26.6665 78.3337 31.0298 78.3337 37.5198V52.5C78.3337 58.9698 74.172 63.3331 67.957 63.3331H52.062C45.847 63.3331 41.667 58.9698 41.667 52.5V37.5198C41.667 31.0298 45.847 26.6665 52.062 26.6665ZM58.9553 50.4815L67.6637 41.7731C68.287 41.1498 68.287 40.1415 67.6637 39.4998C67.0403 38.8765 66.0137 38.8765 65.3903 39.4998L57.8187 47.0715L54.6103 43.8631C53.987 43.2398 52.9603 43.2398 52.337 43.8631C51.7137 44.4865 51.7137 45.4948 52.337 46.1365L56.7003 50.4815C57.012 50.7931 57.4153 50.9398 57.8187 50.9398C58.2403 50.9398 58.6437 50.7931 58.9553 50.4815Z" fill="white"/>
</svg>
