<svg width="430" height="120" viewBox="0 0 430 120" fill="none" xmlns="http://www.w3.org/2000/svg">
<rect width="430" height="120" fill="url(#paint0_linear_2034_30399)"/>
<path d="M26.968 27.144C26.4987 27.144 26.008 27.0587 25.496 26.888C24.9947 26.7173 24.536 26.472 24.12 26.152C23.9493 26.024 23.8533 25.8693 23.832 25.688C23.8107 25.5067 23.8427 25.3413 23.928 25.192C24.0133 25.032 24.136 24.9253 24.296 24.872C24.4667 24.8187 24.6533 24.856 24.856 24.984C25.2187 25.2507 25.576 25.4427 25.928 25.56C26.2907 25.6773 26.648 25.736 27 25.736C27.992 25.736 28.7493 25.3787 29.272 24.664C29.8053 23.9387 30.072 22.8613 30.072 21.432V20.792C29.8587 21.4427 29.4853 21.9547 28.952 22.328C28.4293 22.6907 27.8213 22.872 27.128 22.872C26.4667 22.872 25.88 22.7173 25.368 22.408C24.8667 22.0987 24.472 21.6773 24.184 21.144C23.896 20.6 23.752 19.9813 23.752 19.288C23.752 18.5627 23.9067 17.9227 24.216 17.368C24.5253 16.8027 24.952 16.3653 25.496 16.056C26.0507 15.736 26.6853 15.576 27.4 15.576C28.7653 15.576 29.816 16.0613 30.552 17.032C31.2987 18.0027 31.672 19.3627 31.672 21.112C31.672 23.0427 31.256 24.5307 30.424 25.576C29.592 26.6213 28.44 27.144 26.968 27.144ZM27.512 21.512C28.1627 21.512 28.6907 21.2987 29.096 20.872C29.5013 20.4453 29.704 19.8907 29.704 19.208C29.704 18.5253 29.5013 17.9707 29.096 17.544C28.6907 17.1173 28.1627 16.904 27.512 16.904C26.8613 16.904 26.3333 17.1173 25.928 17.544C25.5227 17.9707 25.32 18.5253 25.32 19.208C25.32 19.8907 25.5227 20.4453 25.928 20.872C26.3333 21.2987 26.8613 21.512 27.512 21.512ZM34.7137 21.16C34.3937 21.16 34.1377 21.064 33.9457 20.872C33.7644 20.68 33.6737 20.44 33.6737 20.152C33.6737 19.8427 33.7644 19.5973 33.9457 19.416C34.1377 19.224 34.3937 19.128 34.7137 19.128C35.0231 19.128 35.2684 19.224 35.4497 19.416C35.6311 19.5973 35.7218 19.8427 35.7218 20.152C35.7218 20.44 35.6311 20.68 35.4497 20.872C35.2684 21.064 35.0231 21.16 34.7137 21.16ZM34.7137 27.064C34.3937 27.064 34.1377 26.968 33.9457 26.776C33.7644 26.584 33.6737 26.3387 33.6737 26.04C33.6737 25.7413 33.7644 25.5013 33.9457 25.32C34.1377 25.128 34.3937 25.032 34.7137 25.032C35.0231 25.032 35.2684 25.128 35.4497 25.32C35.6311 25.5013 35.7218 25.7413 35.7218 26.04C35.7218 26.3387 35.6311 26.584 35.4497 26.776C35.2684 26.968 35.0231 27.064 34.7137 27.064ZM43.4466 27.112C43.1906 27.112 42.988 27.0427 42.8386 26.904C42.6893 26.7547 42.6146 26.552 42.6146 26.296V24.712H38.3266C38.06 24.712 37.8466 24.6533 37.6866 24.536C37.5266 24.4187 37.4466 24.2427 37.4466 24.008C37.4466 23.8587 37.484 23.704 37.5586 23.544C37.6333 23.384 37.756 23.176 37.9266 22.92L42.5826 16.152C42.7 15.9707 42.8333 15.8373 42.9826 15.752C43.132 15.656 43.3026 15.608 43.4946 15.608C43.7186 15.608 43.9 15.6773 44.0386 15.816C44.188 15.944 44.2626 16.1467 44.2626 16.424V23.32H45.2706C45.772 23.32 46.0226 23.5493 46.0226 24.008C46.0226 24.4773 45.772 24.712 45.2706 24.712H44.2626V26.296C44.2626 26.84 43.9906 27.112 43.4466 27.112ZM42.6146 23.32V18.296L39.1746 23.32H42.6146ZM49.0644 27C48.5844 27 48.3444 26.7653 48.3444 26.296C48.3444 25.8373 48.5844 25.608 49.0644 25.608H51.0164V17.624L49.5124 18.584C49.3097 18.712 49.1177 18.7493 48.9364 18.696C48.7657 18.632 48.6324 18.52 48.5364 18.36C48.451 18.2 48.4244 18.0293 48.4564 17.848C48.499 17.656 48.6217 17.496 48.8244 17.368L51.0324 15.976C51.2137 15.8693 51.3844 15.784 51.5444 15.72C51.715 15.6453 51.875 15.608 52.0244 15.608C52.2057 15.608 52.355 15.6613 52.4724 15.768C52.6004 15.8747 52.6644 16.04 52.6644 16.264V25.608H54.4564C54.947 25.608 55.1924 25.8373 55.1924 26.296C55.1924 26.7653 54.947 27 54.4564 27H49.0644Z" fill="white"/>
<path fill-rule="evenodd" clip-rule="evenodd" d="M353 18H352C351.448 18 351 18.4197 351 18.9375V27.0625C351 27.5803 351.448 28 352 28H353C353.552 28 354 27.5803 354 27.0625V18.9375C354 18.4197 353.552 18 353 18ZM347 20H348C348.552 20 349 20.4298 349 20.96V27.04C349 27.5702 348.552 28 348 28H347C346.448 28 346 27.5702 346 27.04V20.96C346 20.4298 346.448 20 347 20ZM343 22H342C341.448 22 341 22.4477 341 23V27C341 27.5523 341.448 28 342 28H343C343.552 28 344 27.5523 344 27V23C344 22.4477 343.552 22 343 22ZM338 24H337C336.448 24 336 24.4477 336 25V27C336 27.5523 336.448 28 337 28H338C338.552 28 339 27.5523 339 27V25C339 24.4477 338.552 24 338 24Z" fill="white"/>
<path fill-rule="evenodd" clip-rule="evenodd" d="M366.637 19.2773C368.852 19.2774 370.984 20.1289 372.59 21.6557C372.711 21.7735 372.904 21.772 373.023 21.6523L374.179 20.4857C374.239 20.4249 374.273 20.3427 374.272 20.2571C374.272 20.1715 374.237 20.0897 374.176 20.0297C369.961 15.9901 363.311 15.9901 359.096 20.0297C359.035 20.0896 359.001 20.1715 359 20.257C358.999 20.3426 359.033 20.4249 359.093 20.4857L360.25 21.6523C360.369 21.7722 360.562 21.7737 360.683 21.6557C362.289 20.1288 364.42 19.2773 366.637 19.2773ZM366.637 23.0729C367.854 23.0728 369.028 23.5254 369.931 24.3426C370.053 24.4585 370.245 24.456 370.364 24.3369L371.519 23.1702C371.579 23.109 371.613 23.026 371.612 22.9398C371.611 22.8535 371.576 22.7712 371.514 22.7112C368.766 20.1548 364.51 20.1548 361.762 22.7112C361.699 22.7712 361.664 22.8535 361.663 22.9398C361.662 23.0261 361.696 23.1091 361.757 23.1702L362.912 24.3369C363.031 24.456 363.223 24.4585 363.345 24.3426C364.247 23.5259 365.42 23.0734 366.637 23.0729ZM368.95 25.6267C368.951 25.7132 368.917 25.7966 368.856 25.8572L366.858 27.8729C366.8 27.9321 366.72 27.9655 366.637 27.9655C366.553 27.9655 366.473 27.9321 366.415 27.8729L364.417 25.8572C364.356 25.7966 364.322 25.7131 364.323 25.6266C364.325 25.5401 364.363 25.4582 364.427 25.4002C365.703 24.3213 367.571 24.3213 368.846 25.4002C368.91 25.4583 368.948 25.5402 368.95 25.6267Z" fill="white"/>
<path opacity="0.35" d="M382.667 16.5H402.333C403.53 16.5 404.5 17.4704 404.5 18.667V26.333C404.5 27.5296 403.53 28.5 402.333 28.5H382.667C381.47 28.5 380.5 27.5296 380.5 26.333V18.667L380.511 18.4453C380.622 17.3527 381.545 16.5 382.667 16.5Z" stroke="white"/>
<path opacity="0.4" d="M405.65 21V25C406.455 24.6612 406.978 23.8731 406.978 23C406.978 22.1269 406.455 21.3388 405.65 21Z" fill="white"/>
<path d="M382.3 19.6666C382.3 18.9302 382.897 18.3333 383.633 18.3333H401.166C401.903 18.3333 402.5 18.9302 402.5 19.6666V25.3299C402.5 26.0663 401.903 26.6633 401.166 26.6633H383.633C382.897 26.6633 382.3 26.0663 382.3 25.3299V19.6666Z" fill="white"/>
<g clip-path="url(#clip0_2034_30399)">
<path d="M45 72.8875C42.9437 71.6187 40.5812 70.875 38 70.875V72.8875H45Z" fill="#ED4C5C"/>
<path d="M38 74.9H47.45C46.7062 74.1562 45.875 73.4562 45 72.8875H38V74.9Z" fill="white"/>
<path d="M38 76.9125H49.0687C48.5875 76.1688 48.0625 75.5125 47.4938 74.9H38V76.9125Z" fill="#ED4C5C"/>
<path d="M38 78.925H50.1188C49.8125 78.225 49.4625 77.525 49.0687 76.9125H38V78.925Z" fill="white"/>
<path d="M38 80.9375H50.775C50.6 80.2375 50.3813 79.5813 50.1188 78.925H38V80.9375Z" fill="#ED4C5C"/>
<path d="M38 82.9937H51.0813C51.0375 82.2937 50.9063 81.6375 50.775 80.9812H38V82.9937Z" fill="white"/>
<path d="M51.0813 82.9938H38V84H24.875C24.875 84.35 24.875 84.6563 24.9187 85.0063H51.0813C51.125 84.6563 51.125 84.35 51.125 84C51.125 83.65 51.125 83.3 51.0813 82.9938Z" fill="#ED4C5C"/>
<path d="M25.2252 87.0187H50.7752C50.9502 86.3625 51.0377 85.7062 51.0814 85.0062H24.9189C24.9627 85.6625 25.0502 86.3625 25.2252 87.0187Z" fill="white"/>
<path d="M25.8809 89.0313H50.1184C50.3809 88.375 50.5996 87.7188 50.7746 87.0188H25.2246C25.3996 87.7188 25.6184 88.375 25.8809 89.0313Z" fill="#ED4C5C"/>
<path d="M26.9309 91.0437H49.0684C49.4621 90.3875 49.8121 89.7312 50.1184 89.0312H25.8809C26.1871 89.7312 26.5371 90.3875 26.9309 91.0437Z" fill="white"/>
<path d="M28.5066 93.0562H47.4941C48.0629 92.4437 48.6316 91.7437 49.0691 91.0437H26.9316C27.3691 91.7875 27.9379 92.4437 28.5066 93.0562Z" fill="#ED4C5C"/>
<path d="M30.9559 95.0688H45.0434C45.9621 94.5 46.7496 93.8 47.4934 93.0563H28.5059C29.2496 93.8438 30.0809 94.5 30.9559 95.0688Z" fill="white"/>
<path d="M37.9998 97.125C40.5811 97.125 42.9873 96.3812 45.0436 95.0687H30.9561C33.0123 96.3812 35.4186 97.125 37.9998 97.125Z" fill="#ED4C5C"/>
<path d="M31 72.8875C30.0813 73.4562 29.25 74.1562 28.5063 74.9C27.8938 75.5125 27.3687 76.2125 26.9312 76.9125C26.5375 77.5687 26.1438 78.225 25.8813 78.925C25.6188 79.5813 25.4 80.2375 25.225 80.9375C25.05 81.5938 24.9625 82.25 24.9187 82.95C24.875 83.3 24.875 83.65 24.875 84H38V70.875C35.4187 70.875 33.0562 71.6187 31 72.8875Z" fill="#428BC1"/>
<path d="M34.9373 71.3125L35.1561 71.9688H35.8123L35.2873 72.4062L35.4623 73.0625L34.9373 72.6687L34.4123 73.0625L34.5873 72.4062L34.0623 71.9688H34.7186L34.9373 71.3125ZM36.6873 73.9375L36.9061 74.5938H37.5623L37.0373 75.0312L37.2123 75.6875L36.6873 75.2938L36.1623 75.6875L36.3373 75.0312L35.8123 74.5938H36.4686L36.6873 73.9375ZM33.1873 73.9375L33.4061 74.5938H34.0623L33.5373 75.0312L33.7123 75.6875L33.1873 75.2938L32.6623 75.6875L32.8373 75.0312L32.3123 74.5938H32.9686L33.1873 73.9375ZM34.9373 76.5625L35.1561 77.2188H35.8123L35.2873 77.6562L35.4623 78.3125L34.9373 77.9188L34.4123 78.3125L34.5873 77.6562L34.0623 77.2188H34.7186L34.9373 76.5625ZM31.4373 76.5625L31.6561 77.2188H32.3123L31.7873 77.6562L31.9623 78.3125L31.4373 77.9188L30.9123 78.3125L31.0873 77.6562L30.5623 77.2188H31.2186L31.4373 76.5625ZM27.9373 76.5625L28.1561 77.2188H28.8123L28.2873 77.6562L28.4623 78.3125L27.9373 77.9188L27.4123 78.3125L27.5873 77.6562L27.0623 77.2188H27.7186L27.9373 76.5625ZM36.6873 79.1875L36.9061 79.8438H37.5623L37.0373 80.2812L37.2123 80.9375L36.6873 80.5437L36.1623 80.9375L36.3373 80.2812L35.8123 79.8438H36.4686L36.6873 79.1875ZM33.1873 79.1875L33.4061 79.8438H34.0623L33.5373 80.2812L33.7123 80.9375L33.1873 80.5437L32.6623 80.9375L32.8373 80.2812L32.3123 79.8438H32.9686L33.1873 79.1875ZM29.6873 79.1875L29.9061 79.8438H30.5623L30.0373 80.2812L30.2123 80.9375L29.6873 80.5437L29.1623 80.9375L29.3373 80.2812L28.8123 79.8438H29.4686L29.6873 79.1875ZM34.9373 81.8125L35.1561 82.4688H35.8123L35.2873 82.9062L35.4623 83.5625L34.9373 83.1687L34.4123 83.5625L34.5873 82.9062L34.0623 82.4688H34.7186L34.9373 81.8125ZM31.4373 81.8125L31.6561 82.4688H32.3123L31.7873 82.9062L31.9623 83.5625L31.4373 83.1687L30.9123 83.5625L31.0873 82.9062L30.5623 82.4688H31.2186L31.4373 81.8125ZM27.9373 81.8125L28.1561 82.4688H28.8123L28.2873 82.9062L28.4623 83.5625L27.9373 83.1687L27.4123 83.5625L27.5873 82.9062L27.0623 82.4688H27.7186L27.9373 81.8125ZM29.1623 75.6875L29.6873 75.2938L30.2123 75.6875L29.9936 75.0312L30.5186 74.5938H29.8623L29.6873 73.9375L29.4686 74.5938H28.8561L29.3811 74.9875L29.1623 75.6875ZM25.6623 80.9375L26.1873 80.5437L26.7123 80.9375L26.4936 80.2812L27.0186 79.8438H26.4061L26.1873 79.1875L25.9686 79.8438H25.5311C25.5311 79.8875 25.4873 79.9312 25.4873 79.975L25.8373 80.2375L25.6623 80.9375Z" fill="white"/>
</g>
<path d="M62.9 91C61.9933 91 61.54 90.5467 61.54 89.64V78.26C61.54 77.3533 61.9933 76.9 62.9 76.9H70.04C70.7333 76.9 71.08 77.2333 71.08 77.9C71.08 78.5933 70.7333 78.94 70.04 78.94H64V82.82H69.6C70.2933 82.82 70.64 83.16 70.64 83.84C70.64 84.52 70.2933 84.86 69.6 84.86H64V88.96H70.04C70.7333 88.96 71.08 89.3 71.08 89.98C71.08 90.66 70.7333 91 70.04 91H62.9ZM74.6736 91.16C73.8736 91.16 73.4736 90.7467 73.4736 89.92V78.02C73.4736 77.6067 73.5736 77.2933 73.7736 77.08C73.9869 76.8533 74.2603 76.74 74.5936 76.74C74.9003 76.74 75.1269 76.8 75.2736 76.92C75.4336 77.0267 75.6203 77.2133 75.8336 77.48L82.9736 86.74V77.96C82.9736 77.1467 83.3736 76.74 84.1736 76.74C84.9603 76.74 85.3536 77.1467 85.3536 77.96V89.96C85.3536 90.3333 85.2603 90.6267 85.0736 90.84C84.8869 91.0533 84.6336 91.16 84.3136 91.16C84.0069 91.16 83.7603 91.1 83.5736 90.98C83.4003 90.86 83.2069 90.6667 82.9936 90.4L75.8536 81.12V89.92C75.8536 90.7467 75.4603 91.16 74.6736 91.16Z" fill="white"/>
<path d="M151.573 79.2017C151.449 80.5317 151.361 82.8855 152.146 83.8873C152.146 83.8873 151.777 81.3017 155.091 78.0577C156.425 76.7517 156.734 74.9755 156.268 73.6433C156.003 72.8886 155.52 72.2652 155.1 71.8298C154.855 71.5739 155.043 71.1517 155.399 71.167C157.556 71.2633 161.052 71.8627 162.537 75.5902C163.189 77.2264 163.237 78.9173 162.926 80.6367C162.73 81.7348 162.03 84.1761 163.626 84.4758C164.766 84.6902 165.317 83.7845 165.565 83.1327C165.667 82.8614 166.024 82.7936 166.216 83.0102C168.141 85.1998 168.306 87.7789 167.907 89.9992C167.137 94.2911 162.791 97.4148 158.473 97.4148C153.078 97.4148 148.784 94.3283 147.671 88.7414C147.222 86.4861 147.45 82.0236 150.928 78.8736C151.186 78.6373 151.608 78.8473 151.573 79.2017Z" fill="url(#paint1_radial_2034_30399)"/>
<path d="M160.444 87.2281C158.456 84.6687 159.346 81.7484 159.834 80.5847C159.899 80.4315 159.724 80.2872 159.587 80.3812C158.731 80.9631 156.979 82.3325 156.163 84.2597C155.059 86.865 155.137 88.1403 155.791 89.6978C156.185 90.6362 155.728 90.8353 155.498 90.8703C155.275 90.9053 155.069 90.7565 154.905 90.6012C154.433 90.1481 154.097 89.5724 153.934 88.9387C153.899 88.8031 153.722 88.7659 153.641 88.8775C153.029 89.724 152.711 91.0825 152.696 92.0428C152.648 95.0112 155.1 97.4175 158.066 97.4175C161.805 97.4175 164.528 93.2831 162.38 89.8269C161.757 88.8206 161.17 88.1622 160.444 87.2281Z" fill="url(#paint2_radial_2034_30399)"/>
<path d="M188.26 91.16C187.86 91.16 187.547 91.0533 187.32 90.84C187.093 90.6133 186.98 90.2933 186.98 89.88V88.32H182.04C181.627 88.32 181.293 88.2333 181.04 88.06C180.8 87.8867 180.68 87.6133 180.68 87.24C180.68 87.0267 180.733 86.7933 180.84 86.54C180.96 86.2867 181.167 85.9533 181.46 85.54L186.94 77.6C187.127 77.32 187.333 77.1067 187.56 76.96C187.787 76.8133 188.047 76.74 188.34 76.74C188.687 76.74 188.973 76.8467 189.2 77.06C189.427 77.26 189.54 77.58 189.54 78.02V86.2H190.52C190.907 86.2 191.193 86.2933 191.38 86.48C191.58 86.6533 191.68 86.9133 191.68 87.26C191.68 87.6067 191.58 87.8733 191.38 88.06C191.193 88.2333 190.907 88.32 190.52 88.32H189.54V89.88C189.54 90.2933 189.427 90.6133 189.2 90.84C188.973 91.0533 188.66 91.16 188.26 91.16ZM186.98 86.2V79.96H187.56L182.84 86.88V86.2H186.98Z" fill="white"/>
<path d="M263 70.875L274.367 77.4375V90.5625L263 97.125L251.633 90.5625V77.4375L263 70.875Z" fill="#1A96F0"/>
<path d="M253.025 78.3563L263 72.7125V79.0125L258.8 81.5063L253.025 78.3563Z" fill="white"/>
<path d="M289.9 91.2C289.327 91.2 288.733 91.1133 288.12 90.94C287.507 90.7533 286.933 90.48 286.4 90.12C286.187 89.9867 286.047 89.8133 285.98 89.6C285.913 89.3867 285.9 89.18 285.94 88.98C285.993 88.7667 286.087 88.5867 286.22 88.44C286.367 88.28 286.547 88.1867 286.76 88.16C286.973 88.12 287.207 88.1733 287.46 88.32C287.913 88.5867 288.34 88.7733 288.74 88.88C289.14 88.9867 289.54 89.04 289.94 89.04C290.713 89.04 291.367 88.86 291.9 88.5C292.433 88.14 292.833 87.6 293.1 86.88C293.38 86.1467 293.52 85.2467 293.52 84.18V82.68H293.76C293.667 83.3467 293.447 83.9267 293.1 84.42C292.753 84.9133 292.313 85.2933 291.78 85.56C291.247 85.8133 290.653 85.94 290 85.94C289.2 85.94 288.48 85.7467 287.84 85.36C287.213 84.9733 286.72 84.44 286.36 83.76C286 83.0667 285.82 82.2867 285.82 81.42C285.82 80.5 286.013 79.6867 286.4 78.98C286.8 78.2733 287.353 77.72 288.06 77.32C288.767 76.9067 289.573 76.7 290.48 76.7C291.653 76.7 292.647 76.9733 293.46 77.52C294.273 78.0667 294.893 78.8667 295.32 79.92C295.747 80.96 295.96 82.22 295.96 83.7C295.96 84.9 295.82 85.9667 295.54 86.9C295.273 87.82 294.88 88.6 294.36 89.24C293.84 89.88 293.2 90.3667 292.44 90.7C291.693 91.0333 290.847 91.2 289.9 91.2ZM290.64 83.9C291.12 83.9 291.54 83.7933 291.9 83.58C292.273 83.3533 292.56 83.0467 292.76 82.66C292.96 82.26 293.06 81.8067 293.06 81.3C293.06 80.78 292.96 80.3267 292.76 79.94C292.56 79.5533 292.273 79.2533 291.9 79.04C291.54 78.8267 291.12 78.72 290.64 78.72C290.16 78.72 289.74 78.8267 289.38 79.04C289.02 79.2533 288.733 79.5533 288.52 79.94C288.32 80.3267 288.22 80.78 288.22 81.3C288.22 81.8067 288.32 82.26 288.52 82.66C288.733 83.0467 289.02 83.3533 289.38 83.58C289.74 83.7933 290.16 83.9 290.64 83.9ZM303.112 91.2C302.406 91.2 301.686 91.1067 300.952 90.92C300.219 90.7333 299.546 90.4467 298.932 90.06C298.679 89.9 298.506 89.7133 298.412 89.5C298.332 89.2733 298.312 89.0533 298.352 88.84C298.406 88.6133 298.506 88.4267 298.652 88.28C298.812 88.12 298.999 88.0267 299.212 88C299.439 87.9733 299.686 88.0333 299.952 88.18C300.446 88.46 300.946 88.6733 301.452 88.82C301.959 88.9667 302.499 89.04 303.072 89.04C303.632 89.04 304.112 88.94 304.512 88.74C304.912 88.54 305.219 88.26 305.432 87.9C305.646 87.54 305.752 87.12 305.752 86.64C305.752 85.8933 305.526 85.2933 305.072 84.84C304.619 84.3733 303.999 84.14 303.212 84.14C302.786 84.14 302.372 84.2133 301.972 84.36C301.572 84.4933 301.179 84.7333 300.792 85.08C300.672 85.1867 300.519 85.2933 300.332 85.4C300.146 85.4933 299.946 85.54 299.732 85.54C299.399 85.54 299.146 85.4533 298.972 85.28C298.799 85.1067 298.712 84.8667 298.712 84.56V78.02C298.712 77.66 298.806 77.3867 298.992 77.2C299.192 77 299.472 76.9 299.832 76.9H306.412C306.772 76.9 307.046 76.9933 307.232 77.18C307.432 77.3533 307.532 77.6133 307.532 77.96C307.532 78.2933 307.432 78.5533 307.232 78.74C307.046 78.9267 306.772 79.02 306.412 79.02H301.212V83.5H300.552C300.899 83.0333 301.359 82.6733 301.932 82.42C302.506 82.1667 303.132 82.04 303.812 82.04C304.706 82.04 305.479 82.2333 306.132 82.62C306.799 82.9933 307.312 83.52 307.672 84.2C308.046 84.8667 308.232 85.6467 308.232 86.54C308.232 87.46 308.026 88.2733 307.612 88.98C307.199 89.6733 306.606 90.22 305.832 90.62C305.072 91.0067 304.166 91.2 303.112 91.2ZM312.424 91.16C312.118 91.16 311.864 91.0867 311.664 90.94C311.464 90.7933 311.344 90.6 311.304 90.36C311.264 90.1067 311.324 89.8267 311.484 89.52L317.524 78.16V79.04H311.044C310.684 79.04 310.404 78.9467 310.204 78.76C310.018 78.5733 309.924 78.3133 309.924 77.98C309.924 77.6333 310.018 77.3667 310.204 77.18C310.404 76.9933 310.684 76.9 311.044 76.9H318.784C319.144 76.9 319.438 76.9933 319.664 77.18C319.891 77.3667 320.004 77.6333 320.004 77.98C320.004 78.2733 319.964 78.5333 319.884 78.76C319.804 78.9733 319.698 79.2067 319.564 79.46L313.884 90.32C313.738 90.6133 313.544 90.8267 313.304 90.96C313.078 91.0933 312.784 91.16 312.424 91.16Z" fill="white"/>
<path d="M386.267 78.1869L383.174 76.205C383.111 76.1668 383.058 76.1149 383.019 76.0533C382.979 75.9917 382.954 75.922 382.946 75.8494C382.937 75.7767 382.945 75.7031 382.969 75.634C382.993 75.5649 383.032 75.5021 383.084 75.4503L384.245 74.2887C384.469 74.0656 384.845 74.1137 385.004 74.3872L386.938 77.5306C387.192 77.9637 386.695 78.4494 386.267 78.1869ZM383.563 87.72L379.971 87.7922C379.898 87.7937 379.826 87.8119 379.761 87.8451C379.696 87.8784 379.64 87.926 379.596 87.9843C379.552 88.0426 379.521 88.1102 379.507 88.1818C379.493 88.2535 379.495 88.3274 379.514 88.3981L379.932 89.9862C380.013 90.2925 380.36 90.439 380.636 90.2859L383.81 88.6256C384.248 88.3784 384.066 87.709 383.563 87.72ZM391.906 93.8209L391.119 97.3187C391.046 97.6228 391.276 97.9159 391.589 97.9159H393.232C393.549 97.9159 393.779 97.6162 393.7 97.31L392.844 93.8122C392.718 93.3244 392.024 93.3309 391.906 93.8209ZM398.315 78.1869L401.409 76.205C401.675 76.0409 401.719 75.6712 401.498 75.4503L400.337 74.2887C400.284 74.2366 400.221 74.1971 400.151 74.1734C400.081 74.1496 400.006 74.1422 399.933 74.1517C399.86 74.1612 399.79 74.1874 399.728 74.2282C399.666 74.269 399.615 74.3234 399.578 74.3872L397.644 77.5306C397.39 77.9637 397.887 78.4494 398.315 78.1869ZM401.019 87.72L404.611 87.7922C404.684 87.7937 404.756 87.8119 404.821 87.8451C404.886 87.8784 404.943 87.926 404.987 87.9843C405.031 88.0426 405.061 88.1102 405.075 88.1818C405.089 88.2535 405.087 88.3274 405.068 88.3981L404.65 89.9862C404.632 90.0576 404.597 90.1237 404.548 90.1795C404.5 90.2353 404.439 90.2794 404.371 90.3083C404.304 90.3372 404.23 90.3502 404.156 90.3463C404.082 90.3424 404.011 90.3218 403.946 90.2859L400.772 88.6256C400.334 88.3784 400.516 87.709 401.019 87.72Z" fill="#FFC107"/>
<path d="M393.178 71.716L396.122 78.4316C396.233 78.6843 396.409 78.9027 396.633 79.0639C396.857 79.2251 397.12 79.3233 397.395 79.3481L404.568 79.9913C405.379 80.1094 405.703 81.1047 405.115 81.6778L399.712 86.2169C399.274 86.5844 399.075 87.1619 399.195 87.7197L400.766 95.0719C400.904 95.8791 400.057 96.496 399.331 96.1131L393.07 92.4469C392.834 92.3083 392.565 92.2352 392.292 92.2352C392.018 92.2352 391.749 92.3083 391.513 92.4469L385.252 96.111C384.528 96.4916 383.679 95.8769 383.817 95.0697L385.388 87.7175C385.506 87.1597 385.309 86.5822 384.872 86.2147L379.466 81.68C378.88 81.1091 379.204 80.1116 380.013 79.9935L387.186 79.3503C387.461 79.3255 387.724 79.2273 387.948 79.0661C388.172 78.9049 388.348 78.6865 388.459 78.4338L391.404 71.7181C391.769 70.9831 392.814 70.9831 393.178 71.716Z" fill="#FDD835"/>
<path d="M392.963 78.8339L392.465 73.8858C392.445 73.6102 392.388 73.1377 392.83 73.1377C393.18 73.1377 393.37 73.8661 393.37 73.8661L394.867 77.8386C395.431 79.3502 395.199 79.8686 394.654 80.1749C394.029 80.5249 393.106 80.2514 392.963 78.8339Z" fill="#FFFF8D"/>
<path d="M399.135 85.7769L403.426 82.4279C403.639 82.2507 404.021 81.9685 403.715 81.6469C403.472 81.3932 402.816 81.7585 402.816 81.7585L399.06 83.2263C397.94 83.6135 397.196 84.1866 397.131 84.9085C397.045 85.871 397.91 86.6126 399.135 85.7769Z" fill="#F4B400"/>
<defs>
<linearGradient id="paint0_linear_2034_30399" x1="430" y1="120" x2="163.256" y2="-157.135" gradientUnits="userSpaceOnUse">
<stop stop-color="#6949FF"/>
<stop offset="1" stop-color="#876DFF"/>
</linearGradient>
<radialGradient id="paint1_radial_2034_30399" cx="0" cy="0" r="1" gradientTransform="matrix(-15.4409 -0.0670135 -0.110094 25.3354 157.404 97.4829)" gradientUnits="userSpaceOnUse">
<stop offset="0.314" stop-color="#FF9800"/>
<stop offset="0.662" stop-color="#FF6D00"/>
<stop offset="0.972" stop-color="#F44336"/>
</radialGradient>
<radialGradient id="paint2_radial_2034_30399" cx="0" cy="0" r="1" gradientTransform="matrix(-0.163184 16.1553 12.158 0.122792 158.272 82.1177)" gradientUnits="userSpaceOnUse">
<stop offset="0.214" stop-color="#FFF176"/>
<stop offset="0.328" stop-color="#FFF27D"/>
<stop offset="0.487" stop-color="#FFF48F"/>
<stop offset="0.672" stop-color="#FFF7AD"/>
<stop offset="0.793" stop-color="#FFF9C4"/>
<stop offset="0.822" stop-color="#FFF8BD" stop-opacity="0.804"/>
<stop offset="0.863" stop-color="#FFF6AB" stop-opacity="0.529"/>
<stop offset="0.91" stop-color="#FFF38D" stop-opacity="0.209"/>
<stop offset="0.941" stop-color="#FFF176" stop-opacity="0"/>
</radialGradient>
<clipPath id="clip0_2034_30399">
<rect width="28" height="28" fill="white" transform="translate(24 70)"/>
</clipPath>
</defs>
</svg>
