<svg width="120" height="105" viewBox="0 0 120 105" fill="none" xmlns="http://www.w3.org/2000/svg">
<ellipse cx="60" cy="52.5" rx="60" ry="52.5" fill="#543ACC"/>
<ellipse cx="60" cy="45.1316" rx="60" ry="45.1316" fill="#6949FF"/>
<path d="M55.1268 14.0308C55.1268 11.0295 52.6893 8.57187 49.6992 8.83068C43.5383 9.36396 37.555 10.8018 32.0907 13.0777C25.0327 16.0175 19.0691 20.2604 14.7534 25.4127C10.4377 30.5649 7.90966 36.4597 7.40393 42.5499C7.04198 46.9085 7.72424 51.2661 9.39856 55.4157C10.5846 58.3552 13.9909 59.4903 16.9765 58.4259C21.0204 56.9841 22.5733 52.108 21.8967 47.8684C21.6522 46.3359 21.5919 44.7842 21.7208 43.2323C22.0748 38.9692 23.8444 34.8428 26.8654 31.2362C29.8864 27.6297 34.0609 24.6596 39.0015 22.6018C42.3454 21.209 45.9668 20.2647 49.7063 19.7997C52.6846 19.4294 55.1268 17.032 55.1268 14.0308Z" fill="#A592FF"/>
<path d="M70.8506 49.2535C70.3758 49.7137 70.1576 50.3792 70.2658 51.0318L71.8956 60.0518C72.0331 60.8163 71.7105 61.59 71.0706 62.0318C70.4436 62.4902 69.6095 62.5452 68.9256 62.1785L60.8058 57.9435C60.5235 57.7932 60.21 57.7125 59.8891 57.7033H59.3923C59.22 57.729 59.0513 57.784 58.8973 57.8683L50.7756 62.1235C50.3741 62.3252 49.9195 62.3967 49.474 62.3252C48.3886 62.1198 47.6645 61.0858 47.8423 59.995L49.474 50.975C49.5821 50.3168 49.364 49.6477 48.8891 49.1802L42.269 42.7635C41.7153 42.2263 41.5228 41.4197 41.7758 40.6918C42.0215 39.9658 42.6485 39.436 43.4056 39.3168L52.5173 37.995C53.2103 37.9235 53.819 37.5018 54.1306 36.8785L58.1456 28.6468C58.241 28.4635 58.3638 28.2948 58.5123 28.1518L58.6773 28.0235C58.7635 27.9282 58.8625 27.8493 58.9725 27.7852L59.1723 27.7118L59.484 27.5835H60.2558C60.9451 27.655 61.552 28.0675 61.8691 28.6835L65.9373 36.8785C66.2306 37.478 66.8008 37.8942 67.459 37.995L76.5706 39.3168C77.3406 39.4268 77.9841 39.9585 78.239 40.6918C78.4791 41.427 78.272 42.2337 77.7073 42.7635L70.8506 49.2535Z" fill="white"/>
</svg>
